<?xml version="1.0" encoding="UTF-8" standalone="no"?><!DOCTYPE svg PUBLIC "-//W3C//DTD SVG 1.1//EN" "http://www.w3.org/Graphics/SVG/1.1/DTD/svg11.dtd"><svg width="100%" height="100%" viewBox="0 0 1182 1182" version="1.1" xmlns="http://www.w3.org/2000/svg" xmlns:xlink="http://www.w3.org/1999/xlink" xml:space="preserve" xmlns:serif="http://www.serif.com/" style="fill-rule:evenodd;clip-rule:evenodd;stroke-linejoin:round;stroke-miterlimit:2;"><path d="M449.651,798.605c-16.327,47.609 -79.727,183.155 -79.714,232.449c0.018,69.789 -99.923,136.566 -206.118,69.842c-169.531,-106.52 110.637,-255.295 129.766,-375.824c19.99,-125.959 31.641,-123.126 76.212,-242.716c63.056,-169.191 29.653,-461.862 136.351,-422.096c6.495,2.421 127.555,89.671 151.34,152.94c97.366,258.996 39.387,247.381 129.318,423.267c34.136,66.765 87.495,191.236 124.859,244.202c155.358,220.227 -83.538,215.017 -124.003,220.227c-40.856,5.26 -107.354,-39.231 -87.966,-123.094c8.06,-34.864 1.041,-117.126 -26.647,-146.075c-75.455,-78.888 -208.566,-76.37 -223.398,-33.122Zm12.831,-174.719c19.461,28.946 137.718,18.162 160.536,0c16.38,-13.039 -10.929,-39.849 -16.438,-60.62c-6.506,-24.53 -77.895,-146.803 -100.332,-113.058c-34.82,52.368 -63.228,144.732 -43.766,173.678Z" style="fill:#77b83b;"/><path d="M455.982,803.496c-42.321,54.79 -77.899,179.32 -78.045,227.582c-0.047,15.417 -9.556,35.45 -26.695,53.608c-38.077,40.34 -113.215,72.284 -191.679,22.984c-36.505,-22.938 -53.203,-48.037 -57.096,-74.007c-3.865,-25.778 5.048,-52.859 21.402,-80.441c27.709,-46.736 76.921,-95.354 114.402,-142.445c23.859,-29.977 43.003,-59.171 47.413,-86.959c20.115,-126.747 31.767,-123.918 76.616,-244.256c21.871,-58.683 31.957,-132.371 40.459,-201.662c8.668,-70.643 15.765,-136.798 31.298,-178.758c8.836,-23.868 20.734,-40.225 36.117,-46.954c10.857,-4.749 23.622,-5.069 38.768,0.576c3.354,1.25 36.509,24.132 71.683,55.147c35.069,30.922 72.103,69.892 84.352,102.473c48.972,130.27 58.87,192.486 67.841,244.25c8.805,50.809 16.711,91.354 61.111,178.191c33.996,66.49 87.063,190.485 124.274,243.232c48.654,68.97 59.299,117.089 50.576,150.346c-8.479,32.327 -35.016,51.881 -66.25,63.469c-43.777,16.24 -96.58,16.735 -113.845,18.958c-44.382,5.715 -117.843,-41.731 -96.783,-132.83c4.653,-20.125 3.947,-56.663 -3.008,-88.692c-4.464,-20.563 -11.364,-39.323 -21.626,-50.051c-43.428,-45.405 -102.245,-60.239 -148.136,-57.359c-29.068,1.824 -52.959,10.406 -63.149,23.598Zm-12.662,-9.781c12.171,-15.757 40.089,-27.607 74.809,-29.786c49.788,-3.125 113.584,13.008 160.701,62.269c11.89,12.431 20.526,33.888 25.699,57.715c7.502,34.553 7.981,73.979 2.961,95.691c-17.716,76.635 41.815,118.164 79.15,113.357c16.725,-2.153 67.919,-2.359 110.324,-18.09c26.222,-9.729 49.22,-25.386 56.339,-52.528c7.989,-30.459 -3.613,-73.894 -48.175,-137.063c-37.518,-53.183 -91.168,-178.131 -125.445,-245.171c-45.531,-89.049 -53.601,-130.64 -62.63,-182.743c-8.865,-51.15 -18.661,-112.625 -67.053,-241.351c-11.537,-30.689 -46.925,-66.977 -79.957,-96.103c-32.926,-29.033 -63.549,-50.985 -66.689,-52.156c-10.463,-3.899 -19.268,-4.189 -26.768,-0.909c-12.153,5.316 -20.544,18.994 -27.524,37.849c-15.216,41.104 -21.931,105.951 -30.422,175.152c-8.657,70.553 -19.078,145.551 -41.347,205.302c-44.292,118.842 -55.942,116.004 -75.807,241.176c-3.998,25.193 -18.697,51.671 -38.578,78.636c-28.576,38.759 -67.86,78.799 -98.649,118.201c-29.191,37.356 -51.119,73.777 -45.969,108.128c3.339,22.272 18.477,43.159 49.785,62.831c70.209,44.114 137.46,15.678 171.532,-20.419c13.783,-14.603 22.293,-30.274 22.33,-42.673c0.153,-50.326 37.252,-180.182 81.383,-237.315Z" style="fill:#4c8a13;"/><path d="M455.843,628.35c-6.607,-9.826 -8.912,-26.026 -7.035,-45.609c3.976,-41.488 25.737,-99.302 50.778,-136.962c9.299,-13.985 25.095,-11.987 42.32,3.359c30.134,26.845 67.689,94.292 72.407,112.077c3.24,12.215 14.282,26.508 19.041,38.792c4.678,12.071 4.113,22.602 -5.354,30.138c-4.685,3.729 -12.815,7.37 -23.261,10.338c-22.016,6.256 -55.019,10.146 -84.19,9.134c-17.144,-0.595 -32.986,-2.914 -44.71,-7.253c-9.231,-3.416 -16.1,-8.219 -19.996,-14.014Zm13.278,-8.928c2.332,3.469 6.746,5.892 12.271,7.937c10.406,3.851 24.494,5.74 39.712,6.267c23.592,0.819 49.843,-1.731 69.944,-6.195c12.256,-2.722 22.119,-5.929 26.987,-9.804c2.298,-1.829 2.408,-4.339 1.855,-7.077c-0.663,-3.286 -2.195,-6.814 -4.037,-10.495c-5.708,-11.409 -14.13,-23.897 -17.006,-34.738c-4.391,-16.557 -39.529,-79.239 -67.584,-104.232c-4.158,-3.704 -8.076,-6.541 -11.714,-7.962c-1.518,-0.592 -2.899,-0.988 -4.164,-0.667c-0.997,0.254 -1.738,1.073 -2.476,2.182c-20.362,30.625 -38.467,75.287 -45.602,112.209c-2.754,14.247 -3.884,27.295 -2.71,37.81c0.668,5.981 2.025,11.049 4.524,14.765Z" style="fill:#4c8a13;"/><path d="M337.814,1018.92c-0,-0 -27.555,77.452 -49.083,62.693c-2.477,-1.698 44.188,-107.242 59.637,-122.765c11.445,-11.5 -10.554,60.072 -10.554,60.072Z" style="fill:#4c8a13;"/><path d="M345.351,1021.6c-0,0 -14.278,39.692 -30.502,58.245c-9.901,11.323 -21.006,14.971 -30.642,8.366l-2.243,-2.311l-0.896,-1.88l-0.392,-1.883c-0.086,-0.909 0.053,-3.153 1.084,-6.387c4.184,-13.117 24.878,-60.249 41.777,-92.198c7.643,-14.449 14.696,-25.862 19.161,-30.348l3.089,-2.39l2.007,-0.84l1.794,-0.342l2.906,0.217l2.821,1.245l1.666,1.448l1.454,2.158l0.905,2.682c0.179,0.863 0.301,1.918 0.324,3.15c0.238,12.956 -14.203,60.737 -14.203,60.737c-0.035,0.111 -0.071,0.222 -0.11,0.331Zm-45.232,50.533c2.919,-2.677 5.753,-6.427 8.507,-10.612c11.605,-17.628 20.832,-43.004 21.599,-45.139l0.001,-0.005c0.493,-1.582 3.955,-12.768 7.243,-24.943c-13.749,26.047 -30.062,62.227 -37.35,80.699Z" style="fill:#4c8a13;"/><path d="M400.511,792.586c-0,-0 -16.65,26.591 7.437,35.31c2.771,1.003 18.339,-39.926 13.924,-50.366c-3.272,-7.734 -21.361,15.056 -21.361,15.056Z" style="fill:#4c8a13;"/><path d="M394.245,787.612c-0,-0 6.162,-7.744 12.201,-13.093c3.421,-3.03 6.956,-5.255 9.669,-6.061l3.876,-0.523l3.238,0.625l2.034,1.018l1.753,1.444l2.224,3.392c1.453,3.435 1.796,9.265 0.714,16.143c-1.969,12.515 -8.008,29.422 -11.946,37.129c-2.069,4.047 -4.389,6.299 -5.566,7.001l-1.805,0.819l-1.743,0.365l-1.778,-0.01l-1.891,-0.443c-6.684,-2.42 -11.005,-5.976 -13.805,-9.886c-4.307,-6.016 -5.12,-13.131 -4.136,-19.739c1.397,-9.387 6.446,-17.453 6.446,-17.453c0.158,-0.252 0.33,-0.495 0.515,-0.728Zm10.77,29.329c2.331,-5.558 5.853,-14.482 7.622,-21.592c0.498,-2.004 0.932,-3.969 1.269,-5.838c-3.164,3.226 -5.901,6.533 -6.81,7.651l-0.004,0.007c-0.555,0.965 -2.148,3.903 -3.222,7.579c-0.951,3.256 -1.759,7.25 0.044,10.639c0.292,0.549 0.658,1.067 1.101,1.554Z" style="fill:#4c8a13;"/><path d="M465.606,110.341c0,0 -9.931,32.395 40.275,33.024c5.776,0.072 2.86,-46.388 -13.058,-55.402c-11.793,-6.677 -27.217,22.378 -27.217,22.378Z" style="fill:#4c8a13;"/><path d="M458.54,106.59c0,0 8.731,-16.091 18.492,-23.203c6.502,-4.739 13.476,-5.928 19.733,-2.385c6.497,3.68 11.803,11.91 15.084,21.862c4.278,12.974 5.475,28.663 4.343,36.742c-0.28,1.997 -0.708,3.655 -1.195,4.917l-1.051,2.146l-1.191,1.595l-1.468,1.326l-2.07,1.143l-3.437,0.631c-23.595,-0.295 -35.626,-7.323 -41.88,-14.737c-10.817,-12.824 -5.942,-28.631 -5.942,-28.631c0.149,-0.486 0.344,-0.957 0.582,-1.406Zm41.959,28.567c0.073,-0.951 0.125,-1.987 0.118,-2.957c-0.044,-6.182 -1.054,-14.274 -3.153,-21.678c-1.915,-6.751 -4.3,-13.172 -8.583,-15.597c-0.392,-0.222 -0.688,0.319 -1.101,0.543c-1.378,0.747 -2.71,1.891 -4.001,3.17c-5.119,5.072 -9.351,12.293 -10.675,14.666l-0.002,0.003c-0.41,1.923 -1.237,7.947 3.028,13.004c3.883,4.603 11.267,7.979 24.369,8.846Z" style="fill:#4c8a13;"/><path d="M922.113,988.755c0,-0 -16.319,4.379 -2.989,42.55c1.534,4.392 20.292,-14.856 19.774,-30.192c-0.383,-11.362 -16.785,-12.358 -16.785,-12.358Z" style="fill:#4c8a13;"/><path d="M922.598,980.769c0,0 7.819,0.503 14.189,4.136c5.462,3.115 9.845,8.192 10.107,15.938c0.257,7.631 -3.058,16.128 -7.567,23.123c-4.492,6.967 -10.101,12.348 -13.552,14.311l-3.528,1.414l-2.147,0.25l-1.818,-0.167l-2.147,-0.706l-2.072,-1.377l-1.569,-1.844l-0.923,-1.904c-9.482,-27.151 -4.975,-39.927 -0.92,-45.767c4.265,-6.142 9.389,-7.148 9.389,-7.148c0.833,-0.223 1.697,-0.311 2.558,-0.259Zm0.985,37.606c0.837,-1.007 1.638,-2.058 2.296,-3.079c2.742,-4.253 5.181,-9.274 5.024,-13.913c-0.069,-2.032 -2.044,-2.691 -3.528,-3.288c-1.15,-0.463 -2.294,-0.772 -3.255,-0.976c-0.612,0.868 -1.491,2.371 -1.845,4.223c-0.754,3.933 -0.553,9.401 1.308,17.033Z" style="fill:#4c8a13;"/><path d="M712.489,517.392c0,-0 7.192,-6.481 -4.392,-35.573c-1.333,-3.348 -7.657,15.809 -5.312,28.349c1.737,9.291 9.704,7.224 9.704,7.224Z" style="fill:#4c8a13;"/><path d="M714.498,525.135l-2.814,0.421c-0.992,0.06 -2.218,0.047 -3.552,-0.155l-2.359,-0.54l-2.561,-1.064c-3.371,-1.783 -6.974,-5.118 -8.29,-12.158c-2.261,-12.091 2.403,-29.248 5.085,-33.576l1.32,-1.755l1.802,-1.522l2.183,-1.005l2.114,-0.344l2.697,0.358l2.355,1.153l1.813,1.735l1.238,2.176c14.394,36.148 2.315,44.476 2.315,44.476c-0.954,0.86 -2.102,1.477 -3.346,1.8Z" style="fill:#4c8a13;"/></svg>