<?xml version="1.0" encoding="UTF-8" standalone="no"?><!DOCTYPE svg PUBLIC "-//W3C//DTD SVG 1.1//EN" "http://www.w3.org/Graphics/SVG/1.1/DTD/svg11.dtd"><svg width="100%" height="100%" viewBox="0 0 1182 1182" version="1.1" xmlns="http://www.w3.org/2000/svg" xmlns:xlink="http://www.w3.org/1999/xlink" xml:space="preserve" xmlns:serif="http://www.serif.com/" style="fill-rule:evenodd;clip-rule:evenodd;stroke-linejoin:round;stroke-miterlimit:2;"><path d="M842.139,1093.06c-182.403,82.21 -391.962,33.654 -505.315,-89.782c-96.861,-105.476 -122.004,-269.009 -132.535,-419.031c-24.849,-354.002 279.548,-691.697 629.428,-499.999c3.592,1.969 35.897,-6.383 67.833,0c103.466,20.68 -25.407,305.265 -111.286,199.027c-7.902,-9.775 -13.107,-31.596 -29.993,-37.103c-123.682,-40.335 -360.38,-87.331 -377.964,313.714c-6.324,144.224 56.947,485.547 345.699,388.751c47.743,-16.005 35.109,-61.449 94.608,-82.387c94.935,-33.409 215.317,174.107 105.65,226.81c-31.561,15.167 -52.683,-15.073 -86.125,-0Z" style="fill:#77b83b;"/><path d="M836.199,76.492c4.289,-0.641 39.392,-5.587 66.919,-0.086c24.103,4.818 37.636,21.692 42.655,45c6.772,31.45 -2.824,75.506 -21.696,113.511c-12.564,25.299 -29.175,47.877 -47.358,62.384c-14.695,11.724 -30.502,18.236 -46.158,17.607c-15.835,-0.637 -31.83,-8.43 -46.519,-26.601c-4.142,-5.124 -7.661,-13.357 -12.273,-21.078c-3.415,-5.717 -7.426,-11.311 -13.978,-13.448c-72.134,-23.524 -183.876,-50.301 -265.372,16.982c-54.743,45.196 -95.231,132.361 -102.12,289.476c-3.114,71.029 10.83,190.61 61.184,280.498c24.697,44.088 58.181,81.024 103.05,100.967c44.917,19.965 101.108,22.757 170.93,-0.649c21.7,-7.275 29.39,-21.552 38.704,-36.077c11.039,-17.214 23.743,-34.994 55.791,-46.272c21.015,-7.395 43.179,-4.352 64.185,6.081c29.825,14.814 57.358,44.759 75.118,78.885c30.428,58.468 31.52,128.223 -27.532,156.601c-17.881,8.593 -32.802,4.808 -47.993,0.525c-11.735,-3.309 -23.673,-7.039 -38.31,-0.442c-185.732,83.711 -399.072,34.025 -514.494,-91.663c-98.019,-106.738 -123.967,-272.067 -134.623,-423.883c-25.249,-359.696 284.5,-701.732 639.89,-508.318Zm2.652,1009.28c18.807,-8.476 34.149,-4.622 49.227,-0.371c11.623,3.278 23.039,7.029 36.721,0.454c50.624,-24.328 46.354,-84.671 20.269,-134.793c-16.145,-31.023 -40.93,-58.476 -68.042,-71.942c-16.952,-8.419 -34.797,-11.286 -51.757,-5.318c-27.45,9.66 -38.178,25.072 -47.633,39.816c-11.18,17.433 -21.043,33.879 -47.088,42.61c-74.553,24.992 -134.553,21.417 -182.513,0.1c-48.008,-21.338 -84.087,-60.597 -110.511,-107.768c-51.889,-92.63 -66.419,-215.823 -63.209,-289.019c7.178,-163.721 50.873,-254.017 107.918,-301.113c86.186,-71.156 204.233,-44.734 280.518,-19.855c10.336,3.37 17.368,11.437 22.754,20.454c4.186,7.009 7.22,14.574 10.98,19.225c11.076,13.701 22.778,20.191 34.719,20.671c12.119,0.488 24.161,-5.051 35.536,-14.126c16.576,-13.225 31.554,-33.931 43.006,-56.994c17.152,-34.537 26.539,-74.445 20.385,-103.026c-3.599,-16.714 -12.865,-29.223 -30.149,-32.678c-24.637,-4.924 -49.5,-0.622 -60.234,0.271c-5.149,0.428 -8.546,-0.371 -9.875,-1.1c-343.799,-188.367 -642.021,144.573 -617.604,492.423c10.405,148.228 34.745,309.965 130.448,414.18c111.284,121.183 317.061,168.609 496.134,87.899Z" style="fill:#4c8a13;"/><path d="M232.346,557.001c-0,0 -8.07,60.7 18.09,58.329c3.01,-0.272 5.624,-86.118 -1.885,-101.693c-5.564,-11.537 -16.205,43.364 -16.205,43.364Z" style="fill:#4c8a13;"/><path d="M224.492,555.479c0,-0 3.426,-17.65 7.438,-31.106c1.975,-6.621 4.228,-12.296 6.196,-15.173l1.615,-1.994l1.621,-1.389l2.473,-1.268l2.244,-0.473l3.121,0.279l2.678,1.203l2.134,1.887l1.745,2.718c2.272,4.711 4.004,15.115 4.837,27.869c1.779,27.252 0.43,65.983 -1.402,76.215c-0.282,1.577 -0.625,2.75 -0.919,3.497l-1.48,2.552l-2.465,2.041l-3.17,0.961c-11.756,1.065 -19.388,-5.696 -23.626,-16.631c-7.159,-18.474 -3.116,-50.72 -3.116,-50.72c0.021,-0.157 0.046,-0.313 0.076,-0.468Zm19.761,48.994c1.229,-14.737 1.781,-43.849 0.375,-65.398c-0.007,-0.112 -0.015,-0.223 -0.022,-0.335c-2.315,9.254 -4.055,17.996 -4.359,19.542l-0.001,0.008c-0.293,2.306 -2.538,21.152 0.372,35.994c0.7,3.574 1.679,6.898 3.216,9.523c0.134,0.229 0.274,0.452 0.419,0.666Z" style="fill:#4c8a13;"/><path d="M925.279,957.676c-0,0 -44.871,-84.511 -77.978,-56.282c-3.809,3.248 71.519,114.282 95.954,126.725c18.101,9.218 -17.976,-70.443 -17.976,-70.443Z" style="fill:#4c8a13;"/><path d="M932.566,954.376c0,-0 11.502,25.409 18.395,46.121c3.245,9.753 5.386,18.598 5.375,23.852c-0.005,2.331 -0.38,4.25 -0.939,5.721l-1.135,2.229l-1.962,2.21l-2.775,1.651l-3.015,0.675l-3.167,-0.232l-3.719,-1.355c-7.128,-3.63 -18.484,-14.797 -30.864,-29.569c-27.208,-32.464 -60.722,-82.292 -67.594,-96.872c-0.915,-1.942 -1.458,-3.489 -1.706,-4.542l-0.259,-3.289l0.91,-3.143l2,-2.526c12.903,-11.002 27.17,-9.454 40.838,-1.011c25.947,16.028 49.396,59.628 49.396,59.628c0.078,0.148 0.152,0.299 0.221,0.452Zm-75.574,-49.714c8.901,16.724 39.239,61.158 64.031,90.74c6.403,7.64 12.333,14.302 17.362,19.047c-0.376,-1.604 -0.804,-3.239 -1.281,-4.78c-6.017,-19.454 -17.762,-45.695 -19.005,-48.455l-0.007,-0.013c-1.476,-2.743 -16.244,-29.753 -34.421,-46.27c-8.614,-7.828 -17.924,-13.918 -26.679,-10.269Z" style="fill:#4c8a13;"/><path d="M874.266,253.967c-0,-0 44.411,-42.158 22.568,-56.747c-2.514,-1.679 -58.477,63.471 -62.418,80.306c-2.919,12.472 39.85,-23.559 39.85,-23.559Z" style="fill:#4c8a13;"/><path d="M879.42,260.085c0,0 -13.753,11.581 -25.328,19.529c-5.696,3.912 -11.013,6.911 -14.352,7.913l-2.51,0.538l-2.133,0.061l-2.721,-0.566l-2.043,-1.041l-2.253,-2.178l-1.328,-2.619l-0.474,-2.809l0.349,-3.21c1.192,-5.093 6.379,-14.276 13.744,-24.723c15.736,-22.32 41.117,-51.608 48.969,-58.418c1.21,-1.049 2.214,-1.747 2.912,-2.143l2.755,-1.057l3.2,-0.038l3.07,1.243c9.816,6.557 11.507,16.612 7.935,27.781c-6.036,18.872 -29.439,41.421 -29.439,41.421c-0.114,0.109 -0.232,0.214 -0.353,0.316Zm-26.165,0.388c7.614,-5.746 14.46,-11.454 15.668,-12.466l0.012,-0.012c1.704,-1.636 15.264,-14.873 22.316,-28.232c1.7,-3.221 3.027,-6.422 3.48,-9.43c0.04,-0.263 0.071,-0.523 0.093,-0.781c-10.215,10.694 -28.933,32.997 -41.376,50.647c-0.064,0.092 -0.128,0.183 -0.193,0.274Z" style="fill:#4c8a13;"/><path d="M678.578,90.733c-0,-0 56.859,22.728 60.985,-3.213c0.475,-2.985 -82.101,-26.6 -99.042,-23.144c-12.551,2.56 38.057,26.357 38.057,26.357Z" style="fill:#4c8a13;"/><path d="M675.174,97.972c-0,0 -16.269,-7.655 -28.327,-14.848c-5.934,-3.54 -10.882,-7.118 -13.187,-9.732l-1.537,-2.056l-0.948,-1.912l-0.622,-2.708l0.092,-2.292l1.037,-2.956l1.823,-2.302l2.354,-1.604l3.063,-1.025c5.125,-1.045 15.636,-0.17 28.204,2.155c26.854,4.967 64.068,15.785 73.537,20.073c1.459,0.661 2.512,1.281 3.164,1.75l2.111,2.061l1.373,2.891l0.153,3.309c-1.854,11.658 -10.282,17.396 -21.923,18.819c-19.666,2.403 -49.933,-9.434 -49.933,-9.434c-0.146,-0.059 -0.291,-0.122 -0.434,-0.189Zm-11.287,-23.608c8.401,4.516 16.448,8.35 17.872,9.024l0.008,0.003c2.164,0.851 19.881,7.654 34.983,8.478c3.636,0.199 7.099,0.066 10.021,-0.779c0.255,-0.074 0.505,-0.155 0.749,-0.243c-13.985,-4.81 -42.07,-12.494 -63.304,-16.422c-0.11,-0.021 -0.22,-0.041 -0.329,-0.061Z" style="fill:#4c8a13;"/><path d="M355.876,333.199c0,0 15.972,11.823 18.833,-10.063c0.329,-2.519 -23.446,-11.945 -28.835,-7.037c-3.993,3.637 10.002,17.1 10.002,17.1Z" style="fill:#4c8a13;"/><path d="M350.33,338.965c-0,-0 -10.732,-10.902 -12.633,-17.464l-0.539,-3.449l0.345,-2.922l1.098,-2.634l1.886,-2.311c2.511,-2.287 6.883,-3.769 12.365,-3.42c7.746,0.493 18.516,4.37 23.527,7.287c1.069,0.622 1.943,1.229 2.601,1.768l1.977,2.046l1.432,2.897l0.253,3.41c-1.815,13.878 -8.318,18.317 -13.833,19.715c-8.363,2.119 -17.693,-4.259 -17.693,-4.259c-0.276,-0.204 -0.538,-0.426 -0.786,-0.664Zm7.761,-15.02c1.21,1.352 2.284,2.449 2.868,3.032l0.006,0.005c0.334,0.206 0.902,0.531 1.599,0.831c0.663,0.285 1.486,0.775 2.314,0.565c0.259,-0.066 0.269,-0.436 0.457,-0.8c0.13,-0.253 0.252,-0.524 0.366,-0.813c-2.077,-0.881 -4.925,-2.013 -7.61,-2.82Z" style="fill:#4c8a13;"/><path d="M502.868,1064.52c0,-0 -1.425,16.451 5.197,5.752c0.762,-1.231 0.541,-21.074 -1.527,-21.567c-1.532,-0.365 -3.67,15.815 -3.67,15.815Z" style="fill:#4c8a13;"/><path d="M494.937,1063.47c-0,0 0.902,-6.797 1.972,-11.731c0.691,-3.184 1.659,-5.778 2.359,-6.904l2.113,-2.372l2.164,-1.223l2.287,-0.517l2.561,0.198l2.091,0.807l2.034,1.553l1.72,2.482l1.166,3.662c0.98,4.826 1.235,15.059 0.929,19.526l-0.52,3.394l-0.945,2.135c-1.307,2.111 -2.468,3.505 -3.405,4.403l-2.049,1.591l-2.016,0.938l-1.757,0.402l-2.022,0.028l-2.057,-0.456l-1.803,-0.871l-1.389,-1.076l-1.379,-1.627l-1.485,-3.251c-1.057,-3.655 -0.608,-10.733 -0.608,-10.733c0.01,-0.12 0.023,-0.239 0.039,-0.358Z" style="fill:#4c8a13;"/></svg>