<?xml version="1.0" encoding="UTF-8" standalone="no"?><!DOCTYPE svg PUBLIC "-//W3C//DTD SVG 1.1//EN" "http://www.w3.org/Graphics/SVG/1.1/DTD/svg11.dtd"><svg width="100%" height="100%" viewBox="0 0 1182 1182" version="1.1" xmlns="http://www.w3.org/2000/svg" xmlns:xlink="http://www.w3.org/1999/xlink" xml:space="preserve" xmlns:serif="http://www.serif.com/" style="fill-rule:evenodd;clip-rule:evenodd;stroke-linejoin:round;stroke-miterlimit:2;"><path d="M214.189,37.999l228.612,26.3c1005.83,133.44 466.463,976.312 220.656,1070.87c-59.8,23.003 -538.51,31.065 -575.861,-26.477c-48.158,-74.19 3.817,-135.345 7.77,-164.712c11.651,-59.313 55.355,-529.346 -7.77,-668.107c-14.672,-32.252 -33.045,-134.99 -0,-207.345c31.863,-69.768 83.186,-30.524 126.593,-30.524Zm161.318,202.161c-86.094,-14.005 -97.275,135.216 -94.496,244.02c2.308,90.34 4.78,192.213 16.376,292.54c12.937,111.94 12.291,86.174 24.427,171.26c4.535,31.8 64.95,39.083 96.701,34.787c19.197,-2.598 80.659,-22.972 141.606,-19.162c60.478,3.781 107.311,-17.102 129.588,-43.626c542.619,-646.076 -234.649,-666.879 -314.202,-679.819Z" style="fill:#77b83b;"/><path d="M215.104,30.051l228.612,26.3l0.137,0.017c305.279,40.501 469.468,146.376 543.585,276.249c86.802,152.099 50.628,338.088 -29.722,494.417c-80.178,155.992 -204.202,282.06 -291.386,315.596c-12.9,4.962 -44.749,9.432 -87.417,12.558c-97.297,7.13 -252.019,8.086 -362.567,-3.099c-48.196,-4.877 -88.113,-12.152 -111.666,-22.048c-11.773,-4.946 -19.79,-10.83 -23.794,-16.999c-30.668,-47.246 -23.245,-89.495 -11.358,-122.481c7.227,-20.056 16.379,-36.282 17.91,-47.653c0.021,-0.159 0.048,-0.317 0.078,-0.474c8.123,-41.355 31.842,-283.163 23.806,-471.931c-3.405,-79.966 -12.364,-150.338 -31.008,-191.322c-15.142,-33.285 -34.097,-139.311 0.005,-213.981c10.656,-23.334 23.564,-35.463 37.302,-41.384c13.741,-5.923 28.593,-5.621 43.767,-3.054c17.703,2.995 35.86,9.237 52.801,9.237c0.306,-0 0.611,0.017 0.915,0.052Zm-1.383,15.946l-0.003,0c-17.651,-0.11 -36.579,-6.343 -54.999,-9.459c-12.043,-2.037 -23.86,-2.73 -34.765,1.971c-10.908,4.701 -20.619,14.809 -29.081,33.338c-31.987,70.039 -14.198,169.488 0.005,200.709c19.231,42.273 28.918,114.786 32.429,197.267c8.087,189.937 -15.818,433.146 -24.045,475.455c-1.72,12.113 -11.026,29.465 -18.682,50.708c-10.512,29.17 -17.395,66.563 9.726,108.345c3.821,5.886 13.399,10.366 26.789,14.716c23.159,7.524 57.097,13.1 96.862,17.123c109.7,11.099 263.236,10.136 359.787,3.061c40.41,-2.961 70.625,-6.835 82.841,-11.534c84.88,-32.65 204.842,-156.108 282.9,-307.977c77.885,-151.533 114.196,-331.74 30.057,-479.172c-72.397,-126.86 -233.55,-228.74 -531.725,-268.31l-228.096,-26.241Z" style="fill:#4c8a13;"/><path d="M376.792,232.263c33.601,5.466 190.947,12.459 321.767,66.715c89.23,37.007 165.934,96.006 185.446,190.061c20.618,99.386 -22.988,239.409 -188.17,436.085c-23.448,27.918 -72.557,50.445 -136.214,46.465c-60.278,-3.768 -121.047,16.536 -140.033,19.105c-20.154,2.727 -51.218,0.985 -73.886,-8.065c-17.264,-6.891 -29.615,-18.147 -31.808,-33.52c-12.151,-85.19 -11.501,-59.392 -24.455,-171.47c-11.623,-100.573 -14.112,-202.694 -16.425,-293.255c-1.696,-66.411 1.96,-147.594 23.882,-198.86c16.003,-37.425 41.535,-59.501 79.896,-53.261Zm-2.569,15.793c-30.519,-4.964 -49.884,13.985 -62.616,43.759c-21.177,49.525 -24.237,128.006 -22.598,192.16c2.301,90.12 4.757,191.744 16.325,291.827c12.921,111.802 12.278,86.067 24.4,171.048c1.437,10.075 10.585,16.403 21.9,20.92c20.186,8.058 47.861,9.497 65.808,7.069c19.408,-2.626 81.564,-23.07 143.178,-19.218c57.301,3.582 101.856,-15.656 122.963,-40.787c160.39,-190.971 204.775,-326.043 184.756,-422.545c-18.417,-88.774 -91.69,-143.602 -175.909,-178.531c-129.351,-53.647 -284.984,-60.298 -318.207,-65.702Z" style="fill:#4c8a13;"/><path d="M105.507,1047.56c-0,-0 4.104,61.096 29.277,53.594c2.897,-0.863 -11.533,-85.528 -21.977,-99.308c-7.737,-10.208 -7.3,45.714 -7.3,45.714Z" style="fill:#4c8a13;"/><path d="M97.507,1047.62c-0,0 -0.136,-17.979 1.134,-31.962c0.624,-6.881 1.71,-12.89 3.069,-16.099l1.189,-2.275l1.314,-1.682l2.173,-1.733l2.105,-0.908l3.115,-0.344l2.863,0.649l2.465,1.428l2.249,2.318c3.159,4.169 6.917,14.023 10.258,26.361c7.138,26.36 13.482,64.592 13.712,74.984c0.035,1.601 -0.068,2.819 -0.209,3.61l-0.945,2.795l-2.013,2.487l-2.917,1.57c-11.312,3.371 -20.132,-1.745 -26.45,-11.625c-10.674,-16.692 -13.094,-49.1 -13.094,-49.1c-0.011,-0.158 -0.017,-0.316 -0.018,-0.474Zm16.402,-20.388c-0.437,9.528 -0.413,18.442 -0.404,20.017l0,0.009c0.169,2.318 1.7,21.235 7.489,35.207c1.394,3.365 3.012,6.43 5.038,8.698c0.177,0.199 0.358,0.389 0.543,0.571c-1.713,-14.69 -6.934,-43.335 -12.578,-64.179c-0.029,-0.108 -0.058,-0.216 -0.088,-0.323Z" style="fill:#4c8a13;"/><path d="M992.107,467.227c0,0 -21.744,-119.247 -55.925,-103.057c-3.933,1.863 38.746,166.585 57.311,192.906c13.753,19.5 -1.386,-89.849 -1.386,-89.849Z" style="fill:#4c8a13;"/><path d="M1000.03,466.13c-0,0 9.732,71.961 6.477,90.475c-0.541,3.077 -1.513,5.292 -2.468,6.656l-1.903,2.058l-1.987,1.242l-2.061,0.671l-2.175,0.165l-3.644,-0.907l-2.748,-1.845c-0.779,-0.699 -1.654,-1.662 -2.568,-2.958c-5.247,-7.44 -12.498,-25.376 -19.969,-47.734c-16.809,-50.302 -35.591,-123.477 -38.569,-143.46c-0.617,-4.141 -0.446,-6.899 -0.17,-7.987l0.692,-1.845l1.192,-1.748l2.626,-1.973c13.717,-6.497 27.01,1.25 37.396,18.164c18.693,30.444 29.825,90.688 29.825,90.688c0.02,0.113 0.038,0.225 0.054,0.338Zm-55.294,-94.99c4.112,23.112 21.683,90.638 37.423,137.742c3.053,9.136 6.003,17.487 8.759,24.529c-1.365,-25.811 -6.332,-62.149 -6.714,-64.918l-0.001,-0.008c-0.639,-3.48 -10.717,-57.371 -27.687,-85.008c-2.589,-4.216 -5.299,-7.773 -8.24,-10.205c-1.148,-0.95 -2.325,-1.699 -3.54,-2.132Z" style="fill:#4c8a13;"/><path d="M791.976,873.591c-0,0 44.411,-42.157 22.568,-56.747c-2.513,-1.679 -58.477,63.471 -62.417,80.306c-2.92,12.472 39.849,-23.559 39.849,-23.559Z" style="fill:#4c8a13;"/><path d="M797.13,879.709c0,0 -13.753,11.581 -25.328,19.529c-5.695,3.912 -11.013,6.911 -14.352,7.914l-2.51,0.537l-2.133,0.061l-2.721,-0.566l-2.043,-1.041l-2.252,-2.178l-1.329,-2.618l-0.474,-2.81l0.349,-3.21c1.192,-5.093 6.38,-14.276 13.744,-24.723c15.736,-22.32 41.117,-51.608 48.969,-58.418c1.21,-1.049 2.214,-1.747 2.912,-2.143l2.755,-1.056l3.2,-0.039l3.07,1.243c9.816,6.557 11.507,16.612 7.935,27.781c-6.036,18.872 -29.438,41.421 -29.438,41.421c-0.115,0.109 -0.233,0.214 -0.354,0.316Zm-26.164,0.388c7.613,-5.745 14.459,-11.454 15.667,-12.466l0.013,-0.011c1.703,-1.637 15.264,-14.874 22.315,-28.233c1.7,-3.221 3.027,-6.422 3.48,-9.43c0.04,-0.263 0.071,-0.523 0.093,-0.781c-10.214,10.694 -28.933,32.998 -41.376,50.647c-0.064,0.092 -0.128,0.183 -0.192,0.274Z" style="fill:#4c8a13;"/><path d="M548.578,130.733c-0,-0 56.859,22.728 60.985,-3.213c0.475,-2.985 -82.101,-26.6 -99.042,-23.144c-12.551,2.56 38.057,26.357 38.057,26.357Z" style="fill:#4c8a13;"/><path d="M545.174,137.972c-0,0 -16.269,-7.655 -28.327,-14.848c-5.934,-3.54 -10.882,-7.118 -13.187,-9.732l-1.537,-2.056l-0.948,-1.912l-0.622,-2.708l0.092,-2.292l1.037,-2.956l1.823,-2.302l2.354,-1.604l3.063,-1.025c5.125,-1.045 15.636,-0.17 28.204,2.155c26.854,4.967 64.068,15.785 73.537,20.073c1.459,0.661 2.512,1.281 3.164,1.75l2.111,2.061l1.373,2.891l0.153,3.309c-1.854,11.658 -10.282,17.396 -21.923,18.819c-19.666,2.403 -49.933,-9.434 -49.933,-9.434c-0.146,-0.059 -0.291,-0.122 -0.434,-0.189Zm-11.287,-23.608c8.401,4.516 16.448,8.35 17.872,9.024l0.008,0.003c2.164,0.851 19.881,7.654 34.983,8.478c3.636,0.199 7.099,0.066 10.021,-0.779c0.255,-0.074 0.505,-0.155 0.749,-0.243c-13.985,-4.81 -42.07,-12.494 -63.304,-16.422c-0.11,-0.021 -0.22,-0.041 -0.329,-0.061Z" style="fill:#4c8a13;"/><path d="M159.964,809.898c-0,0 15.971,11.823 18.833,-10.063c0.329,-2.518 -23.446,-11.945 -28.836,-7.036c-3.993,3.636 10.003,17.099 10.003,17.099Z" style="fill:#4c8a13;"/><path d="M154.417,815.664c0,-0 -10.731,-10.902 -12.633,-17.464l-0.538,-3.449l0.345,-2.922l1.097,-2.634l1.887,-2.311c2.51,-2.287 6.883,-3.769 12.364,-3.42c7.746,0.493 18.516,4.37 23.527,7.287c1.069,0.622 1.943,1.229 2.602,1.768l1.977,2.046l1.432,2.898l0.252,3.409c-1.814,13.878 -8.318,18.317 -13.832,19.715c-8.364,2.119 -17.693,-4.259 -17.693,-4.259c-0.276,-0.204 -0.539,-0.426 -0.787,-0.664Zm7.761,-15.02c1.21,1.352 2.285,2.449 2.868,3.032l0.006,0.005c0.335,0.206 0.903,0.531 1.599,0.831c0.664,0.285 1.487,0.775 2.315,0.565c0.258,-0.065 0.269,-0.436 0.456,-0.8c0.131,-0.253 0.253,-0.524 0.367,-0.813c-2.077,-0.881 -4.926,-2.013 -7.611,-2.82Z" style="fill:#4c8a13;"/><path d="M91.008,186.517c-0,0 -1.425,16.451 5.197,5.752c0.762,-1.231 0.541,-21.073 -1.527,-21.566c-1.533,-0.366 -3.67,15.814 -3.67,15.814Z" style="fill:#4c8a13;"/><path d="M83.077,185.47c-0,-0 0.902,-6.798 1.972,-11.731c0.69,-3.184 1.659,-5.779 2.359,-6.905l2.112,-2.372l2.165,-1.222l2.287,-0.517l2.561,0.198l2.091,0.806l2.034,1.554l1.72,2.482l1.166,3.661c0.98,4.827 1.235,15.06 0.929,19.527l-0.521,3.393l-0.945,2.136c-1.306,2.111 -2.468,3.504 -3.404,4.402l-2.05,1.591l-2.015,0.939l-1.757,0.401l-2.023,0.028l-2.056,-0.456l-1.804,-0.871l-1.389,-1.076l-1.378,-1.627l-1.485,-3.251c-1.058,-3.655 -0.609,-10.733 -0.609,-10.733c0.011,-0.119 0.024,-0.239 0.04,-0.357Z" style="fill:#4c8a13;"/></svg>