<?xml version="1.0" encoding="UTF-8" standalone="no"?><!DOCTYPE svg PUBLIC "-//W3C//DTD SVG 1.1//EN" "http://www.w3.org/Graphics/SVG/1.1/DTD/svg11.dtd"><svg width="100%" height="100%" viewBox="0 0 1182 1182" version="1.1" xmlns="http://www.w3.org/2000/svg" xmlns:xlink="http://www.w3.org/1999/xlink" xml:space="preserve" xmlns:serif="http://www.serif.com/" style="fill-rule:evenodd;clip-rule:evenodd;stroke-linejoin:round;stroke-miterlimit:2;"><path d="M660.074,739.476c123.814,37.509 179.042,1.246 191.685,-86.932c2.837,-19.782 1.556,-91.491 -106.44,-100.733c-51.158,-4.378 -64.171,45.578 -112.019,43.485c-127.565,-2.5 -108.103,-5.868 -137.415,-13.779c-39.885,-10.766 -38.332,-59.088 -32.243,-110.735c27.428,-134.333 -57.427,-236.341 52.9,-259.086c80.107,-16.514 97.263,39.947 248.27,23.619c134.911,-19.009 134.174,-149.354 65.234,-193.766c-74.357,-47.9 -122.27,-10.081 -145.796,-1.51c-84.976,35.562 -66.689,31.352 -173.051,30.512c-83.614,-0.66 -113.429,-24.738 -124.394,-29.002c-3.539,-1.293 -94.731,-39.243 -126.594,30.525c-33.044,72.355 32.713,171.542 47.385,203.794c63.125,138.761 19.421,608.794 7.77,668.107c-3.953,29.367 -55.928,90.522 -7.77,164.712c37.351,57.542 131.827,62.37 176.929,-14.157c32.807,-55.666 335.787,51.491 398.932,40.634c86.534,-14.878 91.01,-218.107 -18.613,-218.107c-23.376,0 -72.508,42.026 -132.525,33.666c-60.482,-8.424 -123.313,7.226 -142.652,8.36c-31.985,1.874 -91.673,-9.973 -93.782,-42.026c-5.644,-85.761 -37.027,-62.896 -11.36,-172.619c20.827,-89.028 134.648,-17.866 175.549,-4.962" style="fill:#77b83b;"/><path d="M389.905,34.175l-0.016,-0.007l-0.04,-0.016l-0.145,-0.059l0.091,0.038l-0.243,-0.095c-1.852,-0.677 -26.653,-10.896 -55.15,-11.868c-30.065,-1.025 -63.873,8.056 -81.468,46.583c-13.991,30.635 -11.57,65.808 -2.249,99.179c13.344,47.774 40.736,91.702 49.629,111.251c18.644,40.984 27.603,111.356 31.008,191.322c8.036,188.768 -15.683,430.576 -23.806,471.931c-0.03,0.157 -0.057,0.315 -0.078,0.474c-1.531,11.371 -10.683,27.597 -17.91,47.653c-11.887,32.986 -19.31,75.235 11.358,122.481c40.21,61.947 141.977,67.934 190.531,-14.451c2.996,-5.082 9.246,-7.87 17.491,-9.753c15.596,-3.564 37.69,-2.971 63.426,-0.078c72.846,8.19 173.753,35.227 242.871,48.096c30.934,5.76 55.792,8.567 69.608,6.192c19.408,-3.337 35.247,-14.957 47.005,-31.679c16.626,-23.641 25.008,-57.705 23.887,-91.106c-1.914,-57.053 -31.485,-111.206 -90.861,-111.206c-10.096,0 -24.794,6.836 -42.762,14.97c-23.795,10.773 -54.331,23.554 -88.66,18.773c-61.144,-8.517 -124.672,7.151 -144.223,8.296c-18.079,1.06 -45.565,-2.475 -65.082,-12.043c-10.939,-5.362 -19.581,-12.366 -20.249,-22.521c-2.329,-35.389 -8.894,-52.851 -14.254,-68.307c-7.468,-21.536 -12.058,-38.875 2.701,-101.965c3.581,-15.31 10.087,-25.28 18.924,-31.073c13.762,-9.023 32.375,-8.088 51.749,-3.656c35.942,8.223 74.358,29.163 94.679,35.574l0.044,0.013l0.044,0.014c64.551,19.556 111.239,19.226 143.422,3.169c33.029,-16.479 51.736,-49.441 58.501,-96.622c1.871,-13.049 2.118,-46.651 -23.633,-73.638c-16.581,-17.376 -44.175,-32.276 -90.044,-36.201c-27.961,-2.392 -45.637,9.681 -62.722,22.449c-14.217,10.625 -27.867,21.967 -49.63,21.014l-0.349,15.993l0.156,-15.999c-125.767,-2.464 -106.587,-5.704 -135.486,-13.504c-16.705,-4.509 -24.379,-17.175 -27.592,-33.829c-3.688,-19.116 -1.746,-43.124 1.174,-67.945c13.775,-67.92 -0.537,-127.67 -4.578,-173.331c-2.175,-24.574 -1.691,-44.725 10.437,-59.037c7.995,-9.434 20.948,-16.038 40.746,-20.119c30.441,-6.276 51.304,-1.344 74.574,5.703c37.428,11.334 80.643,28.014 172.941,18.034l-0.86,0.046l1.117,-0.078c57.353,-8.081 91.37,-35.524 107.177,-68.052c24.065,-49.519 5.889,-111.619 -38.728,-140.361c-77.967,-50.226 -128.198,-11.289 -152.867,-2.302l2.739,15.517l-3.089,-15.38c-83.422,34.913 -65.481,30.717 -169.898,29.893c-81.22,-0.641 -110.478,-23.999 -121.358,-28.377Zm373.912,193.201c50.504,-7.146 80.97,-30.523 94.899,-59.185c20.555,-42.298 5.109,-95.365 -33.003,-119.916c-70.5,-45.416 -116.021,-9.13 -138.487,-0.809c-86.401,36.162 -67.828,31.94 -176.09,31.085c-85.504,-0.675 -116.018,-25.185 -127.231,-29.546l0.007,0.002c-2.562,-0.981 -24.691,-9.983 -50.055,-10.848c-24.381,-0.831 -52.1,5.996 -66.369,37.238c-12.444,27.249 -9.684,58.546 -1.393,88.229c13.074,46.808 40.069,89.776 48.783,108.93c19.231,42.273 28.918,114.786 32.429,197.267c8.087,189.937 -15.818,433.146 -24.045,475.455c-1.72,12.113 -11.026,29.465 -18.682,50.708c-10.512,29.17 -17.395,66.563 9.726,108.345c34.494,53.14 121.676,56.809 163.327,-13.863c4.881,-8.281 14.277,-14.159 27.711,-17.228c16.913,-3.865 40.87,-3.517 68.778,-0.38c73.184,8.228 174.572,35.338 244.011,48.266c28.447,5.297 51.264,8.338 63.969,6.153c15.206,-2.614 27.416,-12.012 36.629,-25.113c14.832,-21.092 21.983,-51.567 20.983,-81.366c-1.62,-48.287 -24.617,-95.743 -74.87,-95.743c-8.605,0 -20.848,6.612 -36.163,13.546c-26.127,11.829 -59.774,25.294 -97.466,20.044c-59.819,-8.332 -121.953,7.301 -141.08,8.422c-20.302,1.19 -51.145,-2.905 -73.061,-13.649c-16.69,-8.182 -28.152,-20.343 -29.172,-35.837c-2.186,-33.22 -8.373,-49.607 -13.405,-64.115c-8.118,-23.41 -13.804,-42.274 2.238,-110.852c4.75,-20.302 14.013,-33.127 25.732,-40.81c11.656,-7.642 25.976,-10.223 41.554,-9.277c41.834,2.542 93.481,31.424 118.425,39.306c59.237,17.939 102.05,18.886 131.588,4.149c28.701,-14.32 43.928,-43.577 49.806,-84.576c1.533,-10.689 1.725,-38.213 -19.371,-60.321c-14.65,-15.354 -39.303,-27.837 -79.832,-31.305c-23.197,-1.985 -37.606,8.73 -51.78,19.323c-17.011,12.713 -33.76,25.279 -59.766,24.188c-129.306,-2.534 -109.569,-6.03 -139.291,-14.053c-23.182,-6.257 -34.673,-23.133 -39.132,-46.245c-3.969,-20.571 -2.121,-46.431 1.029,-73.149l7.945,8.936l-7.838,-9.6c13.53,-66.265 -0.827,-124.552 -4.768,-169.083c-2.619,-29.593 -0.436,-53.558 14.169,-70.792c9.826,-11.596 25.387,-20.429 49.721,-25.446c33.645,-6.936 56.723,-1.728 82.442,6.061c36.036,10.912 77.633,27.037 166.449,17.454Zm-376.652,-177.835l-0.36,0.008c0.121,0 0.241,-0.002 0.36,-0.008Zm0.357,-0.024l-0.227,0.016l0.225,-0.015l0.002,-0.001Zm0.353,-0.039l-0.195,0.022l0.191,-0.021l0.004,-0.001Zm0.349,-0.055l-0.18,0.028l0.175,-0.027l0.005,-0.001Zm0.343,-0.069l-0.169,0.034l0.164,-0.033l0.005,-0.001Zm0.339,-0.085l-0.163,0.041l0.156,-0.039l0.007,-0.002Zm0.333,-0.098l-0.158,0.047l0.15,-0.044l0.008,-0.003Zm0.327,-0.113l-0.154,0.054l0.146,-0.05l0.008,-0.004Zm0.322,-0.126l-0.153,0.06l0.143,-0.055l0.01,-0.005Zm0.314,-0.139l-0.15,0.067l0.139,-0.062l0.011,-0.005Zm0.308,-0.153l-0.149,0.074l0.137,-0.067l0.012,-0.007Zm0.3,-0.165l-0.147,0.081l0.134,-0.074l0.013,-0.007Zm0.292,-0.178l-0.145,0.089l0.132,-0.08l0.013,-0.009Zm0.285,-0.19l-0.143,0.096l0.128,-0.086l0.015,-0.01Zm0.275,-0.202l-0.14,0.103l0.125,-0.091l0.015,-0.012Zm0.267,-0.213l-0.136,0.11l0.121,-0.096l0.015,-0.014Zm0.258,-0.224l-0.133,0.116l0.117,-0.101l0.016,-0.015Zm0.247,-0.235l-0.128,0.122l0.112,-0.105l0.016,-0.017Zm0.238,-0.245l-0.123,0.127l0.107,-0.109l0.016,-0.018Zm0.227,-0.256l-0.117,0.133l0.101,-0.113l0.016,-0.02Zm0.216,-0.266l-0.11,0.137l0.094,-0.115l0.016,-0.022Zm0.206,-0.274l-0.105,0.14l0.089,-0.118l0.016,-0.022Zm0.193,-0.285l-0.097,0.145l0.082,-0.12l0.015,-0.025Zm0.182,-0.292l-0.091,0.146l0.076,-0.121l0.015,-0.025Zm0.169,-0.302l-0.083,0.149l0.069,-0.122l0.014,-0.027Zm0.156,-0.31l-0.075,0.152l0.062,-0.123l0.013,-0.029Zm0.144,-0.318l-0.069,0.154l0.057,-0.124l0.012,-0.03Zm0.13,-0.325l-0.062,0.157l0.051,-0.126l0.011,-0.031Zm0.117,-0.333l-0.056,0.16l0.045,-0.127l0.011,-0.033Zm0.102,-0.341l-0.049,0.165l0.04,-0.13l0.009,-0.035Zm0.088,-0.347l-0.043,0.17l0.035,-0.133l0.008,-0.037Zm0.072,-0.355l-0.035,0.178l0.029,-0.138l0.006,-0.04Zm0.057,-0.357l-0.028,0.184l0.023,-0.141l0.005,-0.043Zm0.041,-0.356l-0.02,0.186l0.016,-0.141l0.004,-0.045Zm0.024,-0.354l-0.012,0.185l0.011,-0.139l0.001,-0.046Zm0.009,-0.353l-0.004,0.183l0.004,-0.135l-0,-0.048Zm-0.007,-0.35l0.004,0.179l-0.001,-0.131l-0.003,-0.048Zm-0.022,-0.347l0.012,0.174l-0.007,-0.126l-0.005,-0.048Zm-0.037,-0.345l0.019,0.17l-0.012,-0.122l-0.007,-0.048Zm-0.052,-0.342l0.026,0.167l-0.017,-0.118l-0.009,-0.049Zm-0.066,-0.338l0.033,0.164l-0.022,-0.115l-0.011,-0.049Zm-0.081,-0.334l0.04,0.161l-0.026,-0.111l-0.014,-0.05Zm-0.095,-0.33l0.047,0.158l-0.031,-0.108l-0.016,-0.05Zm-0.109,-0.325l0.054,0.157l-0.035,-0.106l-0.019,-0.051Zm-0.122,-0.32l0.06,0.155l-0.038,-0.103l-0.022,-0.052Zm-0.136,-0.314l0.068,0.154l-0.043,-0.102l-0.025,-0.052Zm-0.149,-0.308l0.075,0.153l-0.048,-0.1l-0.027,-0.053Zm-0.162,-0.301l0.082,0.151l-0.051,-0.098l-0.031,-0.053Zm-0.175,-0.294l0.09,0.149l-0.056,-0.095l-0.034,-0.054Zm-0.187,-0.286l0.097,0.146l-0.06,-0.093l-0.037,-0.053Zm-0.199,-0.278l0.104,0.143l-0.064,-0.09l-0.04,-0.053Zm-0.211,-0.269l0.11,0.139l-0.066,-0.087l-0.044,-0.052Zm-0.222,-0.261l0.116,0.134l-0.07,-0.083l-0.046,-0.051Zm-0.234,-0.251l0.122,0.129l-0.073,-0.079l-0.049,-0.05Zm-0.245,-0.241l0.127,0.123l-0.075,-0.075l-0.052,-0.048Zm-0.255,-0.23l0.13,0.115l-0.076,-0.07l-0.054,-0.045Zm-0.265,-0.22l0.133,0.108l-0.077,-0.065l-0.056,-0.043Zm-0.276,-0.209l0.136,0.101l-0.079,-0.061l-0.057,-0.04Zm-0.287,-0.198l0.139,0.094l-0.079,-0.056l-0.06,-0.038Zm-0.296,-0.186l0.142,0.087l-0.08,-0.052l-0.062,-0.035Zm-0.306,-0.175l0.145,0.081l-0.081,-0.047l-0.064,-0.034Zm-0.317,-0.161l0.151,0.075l-0.084,-0.044l-0.067,-0.031Zm-0.327,-0.15l0.158,0.07l-0.087,-0.04l-0.071,-0.03Z" style="fill:#4c8a13;"/><path d="M913.353,1027.94c0,-0 -1.814,-82.188 -26.89,-74.944c-2.885,0.834 8.241,115.696 18.029,135.288c7.25,14.515 8.861,-60.344 8.861,-60.344Z" style="fill:#4c8a13;"/><path d="M921.351,1028.11c0,-0 -1.309,49.898 -5.606,62.123c-0.409,1.162 -0.857,2.126 -1.298,2.889l-1.703,2.262l-2.058,1.591l-2.036,0.851l-3.069,0.295l-2.828,-0.707l-1.595,-0.888l-1.641,-1.428l-2.182,-3.241c-2.828,-5.661 -5.937,-18.713 -8.651,-34.832c-6.001,-35.642 -10.832,-86.89 -10.681,-100.657c0.037,-3.393 0.611,-5.567 0.978,-6.404l0.964,-1.664l1.442,-1.503l2.855,-1.489c11.224,-3.242 20.62,3.712 26.46,17.573c9.57,22.712 10.649,64.88 10.649,64.88c0.003,0.116 0.003,0.233 0,0.349Zm-27.055,-62.514c1.114,19.833 5.228,59.288 10.091,88.325c0.707,-12.618 0.936,-24.349 0.965,-25.966l-0,-0.005c-0.062,-2.735 -1.027,-38.998 -9.394,-58.856c-0.527,-1.249 -1.076,-2.424 -1.662,-3.498Z" style="fill:#4c8a13;"/><path d="M429.86,1114.18c0,0 51.014,-33.87 32.013,-52.007c-2.186,-2.087 -68.543,52.441 -75.327,68.344c-5.026,11.782 43.314,-16.337 43.314,-16.337Z" style="fill:#4c8a13;"/><path d="M433.883,1121.1c-0,-0 -15.544,9.036 -28.316,14.87c-6.284,2.871 -12.04,4.909 -15.501,5.321l-2.565,0.096l-2.112,-0.307l-2.582,-1.027l-1.833,-1.378l-1.844,-2.533l-0.857,-2.808l0.017,-2.849l0.898,-3.102c2.052,-4.812 8.745,-12.963 17.8,-21.984c19.348,-19.273 49.397,-43.747 58.306,-49.101c1.373,-0.826 2.482,-1.34 3.238,-1.61l2.896,-0.565l3.158,0.513l2.81,1.754c8.539,8.151 8.471,18.347 3.027,28.733c-9.198,17.549 -36.138,35.726 -36.138,35.726c-0.131,0.088 -0.266,0.171 -0.402,0.251Zm-25.84,-4.129c8.49,-4.347 16.218,-8.789 17.582,-9.578l0.014,-0.01c1.961,-1.318 17.6,-12.019 26.849,-23.962c2.229,-2.88 4.088,-5.804 5.053,-8.689c0.084,-0.252 0.16,-0.504 0.226,-0.754c-11.905,8.774 -34.188,27.516 -49.487,42.757c-0.079,0.079 -0.158,0.157 -0.237,0.236Z" style="fill:#4c8a13;"/><path d="M379.964,809.898c-0,0 15.971,11.823 18.833,-10.063c0.329,-2.518 -23.446,-11.945 -28.836,-7.036c-3.993,3.636 10.003,17.099 10.003,17.099Z" style="fill:#4c8a13;"/><path d="M374.417,815.664c0,-0 -10.731,-10.902 -12.633,-17.464l-0.538,-3.449l0.345,-2.922l1.097,-2.634l1.887,-2.311c2.51,-2.287 6.883,-3.769 12.364,-3.42c7.746,0.493 18.516,4.37 23.527,7.287c1.069,0.622 1.943,1.229 2.602,1.768l1.977,2.046l1.432,2.898l0.252,3.409c-1.814,13.878 -8.318,18.317 -13.832,19.715c-8.364,2.119 -17.693,-4.259 -17.693,-4.259c-0.276,-0.204 -0.539,-0.426 -0.787,-0.664Zm7.761,-15.02c1.21,1.352 2.285,2.449 2.868,3.032l0.006,0.005c0.335,0.206 0.903,0.531 1.599,0.831c0.664,0.285 1.487,0.775 2.315,0.565c0.258,-0.065 0.269,-0.436 0.456,-0.8c0.131,-0.253 0.253,-0.524 0.367,-0.813c-2.077,-0.881 -4.926,-2.013 -7.611,-2.82Z" style="fill:#4c8a13;"/><path d="M552.606,110.487c0,-0 18.735,6.624 15.058,-15.14c-0.423,-2.504 -25.917,-4.551 -29.632,1.721c-2.752,4.647 14.574,13.419 14.574,13.419Z" style="fill:#4c8a13;"/><path d="M548.993,117.624c-0,0 -13.455,-7.279 -17.196,-12.995l-1.525,-3.14l-0.527,-2.895l0.278,-2.84l1.126,-2.763c1.731,-2.921 5.477,-5.62 10.82,-6.892c7.55,-1.798 18.984,-1.248 24.63,0.073c1.204,0.282 2.218,0.607 3.005,0.928l2.49,1.378l2.218,2.35l1.24,3.186c2.332,13.801 -2.585,19.95 -7.448,22.902c-7.376,4.478 -18.165,1.113 -18.165,1.113c-0.324,-0.114 -0.64,-0.25 -0.946,-0.405Zm3.019,-16.634c1.553,0.938 2.902,1.672 3.631,2.058l0.007,0.003c0.38,0.099 1.018,0.244 1.772,0.326c0.718,0.079 1.648,0.306 2.379,-0.138c0.228,-0.138 0.129,-0.495 0.202,-0.898c0.05,-0.281 0.087,-0.575 0.112,-0.885c-2.244,-0.234 -5.299,-0.481 -8.103,-0.466Z" style="fill:#4c8a13;"/><path d="M712.74,711.187c0,-0 19.854,0.843 9.961,-18.888c-1.138,-2.27 -26.112,3.243 -27.827,10.328c-1.27,5.249 17.866,8.56 17.866,8.56Z" style="fill:#4c8a13;"/><path d="M711.377,719.07c-0,-0 -14.998,-3.018 -20.249,-7.387l-2.378,-2.555l-1.352,-2.614l-0.567,-2.797l0.268,-2.971c0.798,-3.3 3.59,-6.978 8.325,-9.76c6.692,-3.932 17.785,-6.755 23.571,-7.147c1.234,-0.083 2.298,-0.07 3.145,0.007l2.784,0.588l2.809,1.597l2.12,2.682c6.273,12.512 3.373,19.833 -0.412,24.08c-5.74,6.442 -17.04,6.386 -17.04,6.386c-0.344,-0.014 -0.686,-0.051 -1.024,-0.109Zm-1.987,-16.789c1.762,0.442 3.267,0.749 4.077,0.905l0.005,-0c0.392,-0.017 1.045,-0.066 1.79,-0.208c0.709,-0.135 1.665,-0.191 2.234,-0.829c0.177,-0.199 -0.022,-0.511 -0.071,-0.918c-0.034,-0.283 -0.084,-0.575 -0.152,-0.879c-2.214,0.434 -5.207,1.093 -7.883,1.929Z" style="fill:#4c8a13;"/><path d="M301.008,216.517c-0,0 -1.425,16.451 5.197,5.752c0.762,-1.231 0.541,-21.073 -1.527,-21.566c-1.533,-0.366 -3.67,15.814 -3.67,15.814Z" style="fill:#4c8a13;"/><path d="M293.077,215.47c-0,-0 0.902,-6.798 1.972,-11.731c0.69,-3.184 1.659,-5.779 2.359,-6.905l2.112,-2.372l2.165,-1.222l2.287,-0.517l2.561,0.198l2.091,0.806l2.034,1.554l1.72,2.482l1.166,3.661c0.98,4.827 1.235,15.06 0.929,19.527l-0.521,3.393l-0.945,2.136c-1.306,2.111 -2.468,3.504 -3.404,4.402l-2.05,1.591l-2.015,0.939l-1.757,0.401l-2.023,0.028l-2.056,-0.456l-1.804,-0.871l-1.389,-1.076l-1.378,-1.627l-1.485,-3.251c-1.058,-3.655 -0.609,-10.733 -0.609,-10.733c0.011,-0.119 0.024,-0.239 0.04,-0.357Z" style="fill:#4c8a13;"/><path d="M724.603,194.68c0,-0 -4.246,-20.171 111.861,-67.329c13.359,-5.426 -20.109,39.424 -61.997,62.373c-31.032,17.001 -49.864,4.956 -49.864,4.956Z" style="fill:#4c8a13;"/><path d="M716.775,196.328c-0,-0 -2.757,-6.109 7.993,-17.307c10.197,-10.621 37.101,-30.007 108.686,-59.082l3.339,-0.934l3.22,0.047l2.198,0.687l2.222,1.452l1.708,2.07l0.937,2.17l0.351,3.271l-0.653,3.322c-1.087,3.344 -4.637,9.255 -10.422,16.295c-11.91,14.495 -33.604,35.032 -58.043,48.421c-36.047,19.748 -58.018,4.679 -58.018,4.679c-1.809,-1.156 -3.076,-2.991 -3.518,-5.091Zm19.667,-6.064c7.055,1.165 18.814,0.863 34.181,-7.556c19.9,-10.902 37.812,-26.97 49.258,-39.761c-41.808,17.989 -64.269,31.355 -76.284,40.721c-2.999,2.338 -5.381,4.66 -7.155,6.596Z" style="fill:#4c8a13;"/></svg>