<?xml version="1.0" encoding="UTF-8" standalone="no"?><!DOCTYPE svg PUBLIC "-//W3C//DTD SVG 1.1//EN" "http://www.w3.org/Graphics/SVG/1.1/DTD/svg11.dtd"><svg width="100%" height="100%" viewBox="0 0 1182 1182" version="1.1" xmlns="http://www.w3.org/2000/svg" xmlns:xlink="http://www.w3.org/1999/xlink" xml:space="preserve" xmlns:serif="http://www.serif.com/" style="fill-rule:evenodd;clip-rule:evenodd;stroke-linejoin:round;stroke-miterlimit:2;"><path d="M689.2,744.816c124.577,37.74 180.145,1.254 192.867,-87.468c2.854,-19.904 1.565,-92.055 -107.096,-101.353c-51.473,-4.405 -64.567,45.859 -112.71,43.752c-128.35,-2.515 -129.553,-5.023 -159.046,-12.984c-40.131,-10.832 -38.568,-59.452 -32.441,-111.416c18.733,-122.516 -82.822,-240.837 1.128,-262.517c79.682,-20.578 118.648,39.312 270.585,22.884c135.742,-19.127 135.001,-150.275 65.635,-194.96c-74.814,-48.195 -123.023,-10.143 -146.694,-1.52c-85.499,35.782 -67.1,31.546 -174.117,30.701c-84.13,-0.664 -151.125,-22.892 -162.158,-27.183c-3.56,-1.301 -97.553,-40.465 -127.374,30.713c-20.461,48.838 57.015,205.937 71.778,238.388c63.514,139.616 84.534,579.044 72.812,638.722c-3.978,29.548 -56.273,91.08 -7.819,165.727c44.926,69.21 176.707,65.278 195.364,-70.529c17.266,-123.64 -42.409,-172.533 -17.344,-295.965c18.307,-90.155 135.477,-17.976 176.63,-4.992" style="fill:#77b83b;"/><path d="M686.837,752.458l0.044,0.014c64.933,19.671 111.897,19.343 144.27,3.191c33.218,-16.574 52.03,-49.727 58.835,-97.18c1.881,-13.121 2.13,-46.912 -23.766,-74.05c-16.677,-17.478 -44.432,-32.461 -90.567,-36.409c-28.119,-2.406 -45.894,9.737 -63.075,22.577c-14.314,10.697 -28.057,22.113 -49.967,21.154l-0.35,15.992l0.157,-15.998c-126.787,-2.484 -127.984,-4.846 -157.118,-12.709c-16.828,-4.542 -24.56,-17.299 -27.797,-34.076c-3.722,-19.288 -1.748,-43.525 1.204,-68.572c11.319,-74.425 -20.772,-147.369 -30.206,-198.526c-3.283,-17.802 -4.032,-32.627 2.822,-43.249c4.256,-6.596 11.557,-11.195 22.58,-14.041c30.384,-7.847 54.55,-3.243 81.89,3.891c43.688,11.402 94.974,29.211 187.554,19.201l-0.095,0.005l0.351,-0.037c57.687,-8.128 91.902,-35.728 107.801,-68.444c24.202,-49.802 5.923,-112.256 -38.949,-141.163c-78.426,-50.521 -128.952,-11.351 -153.765,-2.311l2.738,15.516l-3.088,-15.379c-83.947,35.131 -65.892,30.909 -170.965,30.08c-82.653,-0.652 -148.484,-22.424 -159.322,-26.639c3.587,1.395 5.673,5.148 4.963,8.931c-0.71,3.784 -4.013,6.525 -7.863,6.525l2.747,-15.513c-1.86,-0.681 -27.361,-11.2 -56.281,-12.304c-30.637,-1.17 -64.71,8.034 -81.218,47.439c-6.602,15.757 -4.372,42.026 3.32,71.977c16.817,65.477 58.142,149.927 68.554,172.815c63.031,138.555 83.877,574.643 72.244,633.868c-0.031,0.157 -0.057,0.315 -0.079,0.474c-1.54,11.444 -10.749,27.773 -18.023,47.957c-11.956,33.177 -19.423,75.672 11.423,123.192c29.089,44.814 91.884,61.365 141.845,35.657c32.732,-16.843 60.236,-51.833 68.153,-109.441c8.797,-63.003 -1.901,-106.971 -11.713,-150.904c-9.41,-42.137 -17.965,-84.243 -5.715,-144.569c3.135,-15.439 9.353,-25.494 18.062,-31.331c8.79,-5.891 19.84,-7.457 31.838,-6.719c41.006,2.521 92.173,31.426 116.483,39.095l0.044,0.013Zm54.656,-524.683c50.835,-7.193 81.5,-30.727 95.52,-59.577c20.693,-42.581 5.143,-96.003 -33.223,-120.718c-70.956,-45.71 -116.773,-9.194 -139.386,-0.819c-86.925,36.381 -68.238,32.133 -177.156,31.274c-85.607,-0.676 -153.768,-23.361 -164.994,-27.727l0.007,0.002c-2.59,-0.993 -25.417,-10.301 -51.252,-11.287c-24.706,-0.943 -52.539,5.859 -65.851,37.633c-5.676,13.547 -2.553,36.064 4.06,61.815c16.563,64.49 57.365,147.626 67.621,170.17c63.918,140.505 85.139,582.359 73.427,643.328c-1.727,12.186 -11.093,29.644 -18.796,51.021c-10.581,29.362 -17.509,67 9.791,109.056c24.821,38.238 78.473,52.077 121.103,30.141c28.994,-14.92 52.614,-46.372 59.624,-97.403c0.001,-0.006 0.002,-0.012 0.003,-0.018c8.467,-60.633 -2.038,-102.93 -11.481,-145.21c-9.844,-44.078 -18.595,-88.134 -5.78,-151.24c4.188,-20.624 13.201,-33.642 24.835,-41.438c11.554,-7.743 25.956,-10.368 41.726,-9.398c42.274,2.599 95.19,31.867 120.281,39.795c59.619,18.054 102.708,19.004 132.435,4.172c28.891,-14.415 44.223,-43.864 50.141,-85.134c1.543,-10.763 1.736,-38.475 -19.504,-60.735c-14.747,-15.454 -39.56,-28.021 -80.355,-31.512c-23.355,-1.999 -37.863,8.787 -52.133,19.451c-17.107,12.785 -33.95,25.425 -60.103,24.328c-129.863,-2.545 -131.073,-5.201 -160.922,-13.258c-23.305,-6.29 -34.855,-23.258 -39.338,-46.492c-3.993,-20.693 -2.133,-46.708 1.036,-73.585l7.945,8.937l-7.908,-9.209c11.09,-72.533 -20.907,-143.521 -30.1,-193.37c-4.17,-22.618 -3.595,-41.331 5.112,-54.826c6.118,-9.481 16.181,-16.767 32.024,-20.858c33.361,-8.616 59.912,-3.932 89.931,3.902c42.329,11.046 91.999,28.461 181.66,18.789Z" style="fill:#4c8a13;"/><path d="M281.893,115.043c-0,0 22.539,-8.581 21.053,44.492c-0.171,6.106 -31.842,0.287 -37.4,-17.06c-4.118,-12.852 16.347,-27.432 16.347,-27.432Z" style="fill:#4c8a13;"/><path d="M279.046,107.567c0,-0 9.704,-4.027 19.017,3.645c6.319,5.206 13.741,17.774 12.879,48.547l-0.283,2.069l-0.738,1.985l-2.349,3.002l-3.024,1.856l-3.999,1.034c-5.175,0.669 -14.357,-0.74 -22.877,-4.726c-8.915,-4.171 -16.869,-11.087 -19.745,-20.063c-2.398,-7.485 0.236,-15.542 5.094,-22.312c5.759,-8.028 14.23,-14.076 14.23,-14.076c0.555,-0.396 1.158,-0.719 1.795,-0.961Zm7.486,13.994c0.001,-0.001 0.002,-0.002 0.003,-0.002c-0,-0 -0.001,0 -0.003,0.002Zm-2.056,1.054c-0.005,0 -0.008,0 -0.008,0l0.227,-0.079l-2.802,0.507c0.884,0 1.756,-0.146 2.583,-0.428Zm10.544,30.744c-0.084,-14.811 -2.247,-23.234 -5.439,-27.886c-1.518,-2.211 -3.468,-2.722 -4.464,-2.833c-2.096,1.666 -6.097,5.111 -9.096,9.291c-1.823,2.541 -3.757,5.293 -2.857,8.103c1.572,4.905 6.416,8.173 11.289,10.453c3.142,1.47 7.534,2.378 10.567,2.872Z" style="fill:#4c8a13;"/><path d="M655.601,177.74c0,0 17.423,-3.271 16.274,16.961c-0.132,2.328 -24.613,0.109 -28.91,-6.504c-3.183,-4.899 12.636,-10.457 12.636,-10.457Z" style="fill:#4c8a13;"/><path d="M654.125,169.878c0,-0 9.753,-1.726 17.187,3.616c4.743,3.409 9.236,9.59 8.55,21.66l-0.616,2.705l-1.908,2.819l-3.221,2.021l-4.378,0.838c-5.297,0.337 -16.261,-0.953 -23.738,-3.896c-4.597,-1.809 -8.014,-4.423 -9.744,-7.085l-1.5,-3.621l-0.055,-3.908l1.349,-3.668l2.788,-3.435c4.466,-4.16 14.11,-7.731 14.11,-7.731c0.384,-0.135 0.777,-0.24 1.176,-0.315Zm2.403,16.291c2.074,0.495 4.225,0.867 6.213,1.108c-0.048,-0.068 -0.098,-0.134 -0.149,-0.199c-1.346,-1.701 -3.492,-1.748 -4.671,-1.62l-1.393,0.711Z" style="fill:#4c8a13;"/><path d="M732.272,55.612c0,0 13.468,-1.247 12.58,6.466c-0.102,0.887 -19.026,0.041 -22.347,-2.48c-2.461,-1.867 9.767,-3.986 9.767,-3.986Z" style="fill:#4c8a13;"/><path d="M731.535,47.646c-0,0 6.782,-0.547 11.945,1.284c0.818,0.289 1.603,0.631 2.34,1.021l2.423,1.601l1.566,1.511l1.382,1.913l1.466,3.894l0.143,4.123l-0.704,2.488l-1.695,2.383l-2.481,1.658l-2.414,0.677c-2.569,0.395 -12.214,0.131 -18.952,-1.045c-4.146,-0.724 -7.395,-2.052 -8.886,-3.183l-1.731,-1.719l-1.096,-1.89l-0.571,-2.034l-0.042,-2.168l1.157,-3.443l2.189,-2.494c1.085,-0.869 3.113,-1.918 5.551,-2.675c3.379,-1.048 7.782,-1.818 7.782,-1.818c0.208,-0.036 0.417,-0.064 0.628,-0.084Z" style="fill:#4c8a13;"/><path d="M792.272,156.612c0,0 13.468,-1.247 12.58,6.466c-0.102,0.887 -19.026,0.041 -22.347,-2.48c-2.461,-1.867 9.767,-3.986 9.767,-3.986Z" style="fill:#4c8a13;"/><path d="M791.535,148.646c-0,0 6.782,-0.547 11.945,1.284c0.818,0.289 1.603,0.631 2.34,1.021l2.423,1.601l1.566,1.511l1.382,1.913l1.466,3.894l0.143,4.123l-0.704,2.488l-1.695,2.383l-2.481,1.658l-2.414,0.677c-2.569,0.395 -12.214,0.131 -18.952,-1.045c-4.146,-0.724 -7.395,-2.052 -8.886,-3.183l-1.731,-1.719l-1.096,-1.89l-0.571,-2.034l-0.042,-2.168l1.157,-3.443l2.189,-2.494c1.085,-0.869 3.113,-1.918 5.551,-2.675c3.379,-1.048 7.782,-1.818 7.782,-1.818c0.208,-0.036 0.417,-0.064 0.628,-0.084Z" style="fill:#4c8a13;"/><path d="M420.272,366.612c0,0 13.468,-1.247 12.58,6.466c-0.102,0.887 -19.026,0.041 -22.347,-2.48c-2.461,-1.867 9.767,-3.986 9.767,-3.986Z" style="fill:#4c8a13;"/><path d="M419.535,358.646c-0,0 6.782,-0.547 11.945,1.284c0.818,0.289 1.603,0.631 2.34,1.021l2.423,1.601l1.566,1.511l1.382,1.913l1.466,3.894l0.143,4.123l-0.704,2.488l-1.695,2.383l-2.481,1.658l-2.414,0.677c-2.569,0.395 -12.214,0.131 -18.952,-1.045c-4.146,-0.724 -7.395,-2.052 -8.886,-3.183l-1.731,-1.719l-1.096,-1.89l-0.571,-2.034l-0.042,-2.168l1.157,-3.443l2.189,-2.494c1.085,-0.869 3.113,-1.918 5.551,-2.675c3.379,-1.048 7.782,-1.818 7.782,-1.818c0.208,-0.036 0.417,-0.064 0.628,-0.084Z" style="fill:#4c8a13;"/><path d="M728.26,603.495c0,0 8.63,-10.414 13.462,-4.338c0.556,0.699 -13.408,13.498 -17.539,14.068c-3.059,0.423 4.077,-9.73 4.077,-9.73Z" style="fill:#4c8a13;"/><path d="M722.1,598.391c0,0 4.403,-5.187 9.346,-7.55c0.783,-0.374 1.579,-0.689 2.375,-0.934l2.846,-0.585l2.175,-0.042l2.331,0.373l3.791,1.712l3.02,2.812l1.264,2.256l0.49,2.883l-0.579,2.927l-1.225,2.186c-1.535,2.098 -8.535,8.739 -14.126,12.679c-3.441,2.424 -6.676,3.786 -8.53,4.042l-2.439,0.011l-2.112,-0.558l-1.843,-1.033l-1.565,-1.502l-1.62,-3.25l-0.219,-3.311c0.151,-1.382 0.84,-3.559 2.027,-5.819c1.645,-3.133 4.209,-6.793 4.209,-6.793c0.121,-0.173 0.249,-0.341 0.384,-0.504Z" style="fill:#4c8a13;"/><path d="M401.407,767.351c-0,0 -25.138,10.034 22.905,55.652c5.528,5.249 25.057,-24.606 14.062,-44.236c-8.146,-14.542 -36.967,-11.416 -36.967,-11.416Z" style="fill:#4c8a13;"/><path d="M400.544,759.398c0,-0 11.697,-1.266 23.038,1.26c8.95,1.993 17.424,6.437 21.772,14.199c5.477,9.779 5.2,21.576 2.061,31.817c-3.116,10.168 -9.052,18.587 -13.675,22.039l-4.018,2.209l-3.754,0.69l-3.783,-0.671l-3.381,-2.136c-57.342,-54.448 -20.363,-68.884 -20.363,-68.884c0.674,-0.269 1.382,-0.445 2.103,-0.523Zm3.678,15.759c-0.681,0.913 -1.832,3.09 -0.959,6.637c1.761,7.152 8.079,17.227 22.893,31.861c0.652,-0.778 1.333,-1.66 1.851,-2.5c4.496,-7.294 8.535,-19.289 3.387,-28.479c-2.171,-3.876 -6.821,-5.406 -11.291,-6.401c-6.302,-1.404 -12.746,-1.292 -15.881,-1.118Z" style="fill:#4c8a13;"/><path d="M489.719,1071.97c-0,0 30.579,-76.309 4.671,-79.484c-2.981,-0.366 -37.814,109.652 -36.499,131.513c0.974,16.195 31.828,-52.029 31.828,-52.029Z" style="fill:#4c8a13;"/><path d="M497.008,1075.27c-0,-0 -20.783,45.383 -29.532,54.942c-0.832,0.908 -1.622,1.619 -2.327,2.148l-2.454,1.412l-2.517,0.656l-2.207,-0.017l-2.939,-0.932l-2.323,-1.76l-1.119,-1.443l-0.949,-1.957l-0.736,-3.837c-0.38,-6.317 1.882,-19.542 5.71,-35.433c8.465,-35.138 24.129,-84.173 29.669,-96.777c1.366,-3.106 2.747,-4.881 3.413,-5.506l1.539,-1.153l1.916,-0.816l3.211,-0.249c11.595,1.421 17.509,11.505 17.443,26.545c-0.109,24.646 -15.662,63.856 -15.662,63.856c-0.043,0.108 -0.088,0.215 -0.136,0.321Zm-25.731,17.085c5.601,-11.329 10.414,-22.03 11.075,-23.505l0.002,-0.005c1.016,-2.539 14.357,-36.274 14.452,-57.823c0.006,-1.355 -0.038,-2.651 -0.156,-3.869c-6.757,18.68 -18.453,56.585 -25.373,85.202Z" style="fill:#4c8a13;"/><path d="M839.248,702.774c0,0 -17.916,26.922 -21.502,21.767c-0.413,-0.593 26.386,-37.271 32.571,-42.657c4.583,-3.991 -11.069,20.89 -11.069,20.89Z" style="fill:#4c8a13;"/><path d="M845.908,707.206c0,0 -12.985,18.988 -20.132,23.721l-3.643,1.78l-3.831,0.466l-2.009,-0.36l-2.029,-0.863l-1.764,-1.308l-1.322,-1.533l-1.245,-2.842l-0.154,-2.527l0.617,-2.426l1.25,-2.268c4.274,-6.703 27.608,-38.136 33.418,-43.195l1.994,-1.398l2.028,-0.773l3.386,-0.099l2.864,1.108l2.284,2.145l0.974,1.796l0.511,2.079l-0.055,2.319l-0.655,2.363c-1.771,4.614 -12.375,21.643 -12.375,21.643l-0.112,0.172Z" style="fill:#4c8a13;"/></svg>