<?xml version="1.0" encoding="UTF-8" standalone="no"?><!DOCTYPE svg PUBLIC "-//W3C//DTD SVG 1.1//EN" "http://www.w3.org/Graphics/SVG/1.1/DTD/svg11.dtd"><svg width="100%" height="100%" viewBox="0 0 1182 1182" version="1.1" xmlns="http://www.w3.org/2000/svg" xmlns:xlink="http://www.w3.org/1999/xlink" xml:space="preserve" xmlns:serif="http://www.serif.com/" style="fill-rule:evenodd;clip-rule:evenodd;stroke-linejoin:round;stroke-miterlimit:2;"><path d="M957.763,236.896c-25.659,-54.607 -117.295,-153.895 -252.463,-173.864c-9.682,-1.43 -122.793,-31.082 -233.804,-15.601c-68.72,9.584 -282.514,60.257 -225.636,468.119c40.849,292.924 61.959,529.682 128.512,568.965c26.036,15.368 53.845,62.579 142.509,58.739c281.825,-12.207 353.532,-121.574 362.364,-209.861c19.201,-191.922 -45.298,-303.539 65.319,-274.833c76.66,19.895 79.622,-102.89 -16.961,-134.019c-113.642,-36.627 -375.739,-7.645 -308.345,92.027c41.785,61.798 110.686,0.875 125.12,93.732c34.826,224.048 -228.677,226.736 -259.098,101.498c-16.681,-68.671 -137.154,-314.559 -48.134,-500.47c48.134,-100.523 153.356,-91.563 207.873,-91.563c97.118,0 120.33,80.363 168.539,112.56c93.633,62.533 168.718,-43.261 144.205,-95.429Z" style="fill:#77b83b;"/><path d="M965.004,233.494c8.225,17.505 6.835,40.427 -2.544,62.026c-12.719,29.288 -39.94,55.959 -74.927,62.479c-23.267,4.336 -50.085,-0.099 -78.418,-19.022c-19.82,-13.237 -35.647,-34.28 -53.751,-54.905c-25.087,-28.578 -55.019,-56.307 -110.345,-56.307c-52.493,0 -154.311,-9.774 -200.658,87.018c-43.718,91.302 -35.683,197.348 -14.982,288.982c21.063,93.24 55.339,171.83 63.674,206.144c8.465,34.846 36.61,58.787 70.678,69.937c48.53,15.883 109.384,6.056 145.283,-36.516c24.173,-28.666 36.753,-72.007 27.459,-131.801c-3.099,-19.937 -8.652,-32.098 -16.355,-39.606c-11.704,-11.406 -27.708,-11.939 -44.156,-14.503c-22.101,-3.446 -45.016,-9.285 -63.331,-36.371c-11.726,-17.342 -14.41,-32.945 -10.809,-46.617c3.551,-13.48 13.453,-25.392 28.427,-35.293c25.237,-16.687 65.477,-27.985 110.014,-33.589c65.895,-8.291 141.178,-4.293 189.794,11.377c62.899,20.272 86.085,76.916 77.251,113.878c-3.24,13.552 -10.651,24.658 -21.67,31.297c-10.771,6.49 -25.191,8.845 -43.084,4.202c-12.759,-3.311 -22.981,-4.699 -31.157,-4.072c-6.682,0.513 -11.763,2.385 -15.462,5.94c-3.901,3.748 -6.232,9.152 -7.791,15.922c-1.846,8.022 -2.496,17.783 -2.521,29.164c-0.102,48.477 11.217,124.631 1.583,220.931c-9.048,90.438 -81.288,204.553 -369.979,217.057c-64.972,2.814 -98.715,-20.599 -122.47,-40.394c-9.34,-7.783 -16.95,-15.02 -24.452,-19.448c-21.124,-12.469 -38.627,-43.328 -52.959,-89.369c-31.691,-101.805 -50.739,-279.789 -79.409,-485.381c-28.914,-207.334 11.692,-323.757 67.537,-389.688c56.661,-66.894 129.474,-82.515 164.917,-87.458c112.086,-15.631 226.303,14.166 236.078,15.61c138.501,20.461 232.243,122.422 258.535,178.376Zm-14.481,6.804c-25.026,-53.261 -114.558,-149.876 -246.392,-169.351c-9.588,-1.417 -121.595,-30.923 -231.53,-15.592c-33.277,4.64 -101.721,19.148 -154.918,81.952c-54.012,63.767 -91.864,176.61 -63.9,377.138c28.519,204.502 47.316,381.569 78.84,482.834c12.76,40.993 27.007,69.245 45.815,80.347c8.121,4.793 16.451,12.509 26.562,20.934c21.629,18.024 52.378,39.264 111.535,36.701c274.968,-11.909 346.132,-116.526 354.75,-202.664c11.543,-115.378 -7.043,-201.789 0.132,-246.245c2.273,-14.083 7.111,-24.44 15.008,-31.142c11.318,-9.604 29.958,-12.228 60.148,-4.393c12.773,3.315 23.119,2.213 30.808,-2.419c7.44,-4.483 12.178,-12.163 14.365,-21.313c7.445,-31.147 -13.593,-77.846 -66.597,-94.93c-66.828,-21.539 -186.035,-19.912 -256.441,5.923c-25.946,9.52 -45.272,21.867 -50.865,38.592c-3.457,10.339 -0.986,22.065 8.042,35.417c19.28,28.513 45.144,28.027 67.524,31.812c13.675,2.312 26.278,5.979 36.587,15.353c10.128,9.208 18.289,24.103 22.287,49.82c10.208,65.673 -4.487,113.088 -31.037,144.573c-40.184,47.653 -108.169,59.186 -162.492,41.407c-39.398,-12.894 -71.46,-41.069 -81.248,-81.366c-8.346,-34.356 -42.646,-113.045 -63.734,-206.395c-21.451,-94.954 -29.143,-204.808 16.158,-299.418c49.922,-104.258 158.547,-96.108 215.089,-96.108c61.215,0 94.612,30.132 122.369,61.752c17.124,19.508 31.866,39.635 50.613,52.155c24.101,16.096 46.809,20.286 66.601,16.598c29.603,-5.517 52.42,-28.342 63.182,-53.123c7.392,-17.023 9.221,-35.052 2.739,-48.849Z" style="fill:#4c8a13;"/><path d="M913.494,556.902c-0,-0 -76.654,-29.704 -79.533,-3.762c-0.331,2.985 110.078,36.557 131.922,34.992c16.183,-1.16 -52.389,-31.23 -52.389,-31.23Z" style="fill:#4c8a13;"/><path d="M916.707,549.575c-0,0 45.618,20.262 55.276,28.901c0.918,0.822 1.638,1.604 2.174,2.303l1.441,2.437l0.684,2.51l0.009,2.206l-0.898,2.95l-1.734,2.343l-1.43,1.135l-1.946,0.972l-3.828,0.779c-6.313,0.453 -19.562,-1.658 -35.497,-5.304c-35.232,-8.062 -84.442,-23.163 -97.109,-28.559c-3.122,-1.33 -4.912,-2.691 -5.545,-3.349l-1.17,-1.527l-0.839,-1.906l-0.285,-3.208c1.288,-11.611 11.303,-17.64 26.343,-17.746c24.646,-0.173 64.031,14.93 64.031,14.93c0.109,0.042 0.216,0.086 0.323,0.133Zm-68.108,1.137c18.756,6.543 56.792,17.805 85.486,24.397c-11.392,-5.471 -22.147,-10.161 -23.63,-10.806l-0.005,-0.001c-2.551,-0.988 -36.436,-13.942 -57.984,-13.79c-1.355,0.009 -2.651,0.068 -3.867,0.2Z" style="fill:#4c8a13;"/><path d="M691.415,914.143c0,0 31.241,-13.223 24.224,-22.489c-0.807,-1.066 -43.017,20.966 -48.884,27.985c-4.346,5.2 24.66,-5.496 24.66,-5.496Z" style="fill:#4c8a13;"/><path d="M694.183,921.649c-0,0 -20.651,7.33 -26.416,7.414l-2.247,-0.174l-2.27,-0.712l-1.941,-1.233l-1.339,-1.422l-1.248,-2.416l-0.41,-2.555l0.7,-3.456l1.605,-2.587c1.872,-2.24 6.753,-5.938 13.079,-9.878c12.955,-8.07 32.253,-18.042 37.683,-20.115l3.582,-0.881l3.441,0.5l2.128,1.186l1.487,1.504l1.295,2.072l0.903,2.332l0.42,2.448l-0.056,2.382c-0.379,3.244 -2.154,6.793 -5.304,10.078c-7.621,7.944 -24.741,15.374 -24.741,15.374c-0.116,0.049 -0.233,0.096 -0.351,0.139Z" style="fill:#4c8a13;"/><path d="M405.505,1042.56c-0,-0 -25.886,22.989 77.665,62.318c11.914,4.525 13.613,-41.683 -17.756,-62.493c-23.238,-15.417 -59.909,0.175 -59.909,0.175Z" style="fill:#4c8a13;"/><path d="M402.375,1035.2c-0,-0 14.362,-6.127 31.318,-7.389c12.078,-0.9 25.335,0.739 36.144,7.909c25.189,16.711 31.526,47.818 28.532,63.126c-1.166,5.963 -3.869,10.052 -6.726,12.103l-2.528,1.395l-2.95,0.761l-3.039,-0.027l-2.796,-0.719c-54.725,-20.785 -74.822,-37.965 -81.663,-49.235c-3.841,-6.329 -4.363,-11.554 -3.903,-15.469c0.865,-7.348 5.429,-11.075 5.429,-11.075c0.647,-0.575 1.384,-1.041 2.182,-1.38Zm8.596,13.826c-0.146,1.113 -0.145,3.294 1.374,5.796c5.953,9.807 23.913,23.342 70.085,41.207c0.325,-1.493 0.665,-3.469 0.671,-5.227c0.044,-12.345 -5.894,-30.991 -22.109,-41.749c-7.783,-5.163 -17.414,-5.934 -26.111,-5.287c-10.455,0.779 -19.738,3.747 -23.91,5.26Z" style="fill:#4c8a13;"/><path d="M398.78,661.958c0,-0 14.914,-0.929 1.951,-32.575c-1.492,-3.641 -18.37,8.459 -17.607,20.441c0.565,8.877 15.656,12.134 15.656,12.134Z" style="fill:#4c8a13;"/><path d="M397.092,669.777c0,0 -6.868,-1.494 -12.521,-5.106c-5.142,-3.286 -9.04,-8.209 -9.431,-14.339c-0.43,-6.768 2.758,-13.706 7.314,-19.094c4.391,-5.193 9.921,-8.798 13.365,-9.898l3.441,-0.612l3.321,0.472l3.256,1.879l1.359,1.544l0.938,1.728c7.976,19.47 6.223,29.63 3.628,34.784c-1.643,3.264 -3.834,5.258 -5.821,6.52l-3.479,1.644l-3.682,0.659c-0.567,-0 -1.133,-0.061 -1.688,-0.181Zm0.438,-16.525c0.261,-1.392 0.609,-4.214 -0.001,-7.49c-0.304,-1.638 -0.751,-3.45 -1.359,-5.457c-0.021,-0.069 -0.042,-0.138 -0.063,-0.208c-0.524,0.481 -1.018,0.979 -1.435,1.472c-1.9,2.247 -3.744,4.924 -3.564,7.747c0.03,0.471 0.527,0.687 0.878,0.991c0.824,0.712 1.802,1.28 2.759,1.759c0.97,0.485 1.933,0.878 2.785,1.186Z" style="fill:#4c8a13;"/><path d="M890.637,301.65c-0,0 44.074,-14.68 29.188,-45.419c-1.713,-3.537 -59.564,27.885 -65.992,43.259c-4.763,11.389 36.804,2.16 36.804,2.16Z" style="fill:#4c8a13;"/><path d="M892.371,309.46c-0,-0 -13.765,3.043 -24.993,3.621c-6.014,0.309 -11.416,-0.252 -14.662,-1.625l-1.945,-1l-1.984,-1.53l-2.296,-3.151l-0.83,-2.489l-0.201,-2.535l0.323,-2.319l0.669,-2.028c2.077,-4.968 8.315,-11.642 16.832,-18.208c17.556,-13.537 44.619,-27.831 52.523,-29.793l3.448,-0.446l2.551,0.382l1.862,0.8l1.384,0.999l1.973,2.606c9.524,19.666 0.58,34.296 -11.138,43.909c-10.312,8.459 -22.722,12.587 -22.722,12.587c-0.261,0.087 -0.526,0.16 -0.794,0.22Zm-26.885,-12.312c9.075,-0.304 20.593,-2.698 22.974,-3.211l0.008,-0.003c1.816,-0.65 10.181,-3.835 17.271,-9.651c5.19,-4.258 9.792,-10.161 8.913,-17.876c-9.408,4.729 -29.83,15.386 -41.599,24.46c-2.871,2.214 -5.492,4.315 -7.567,6.281Z" style="fill:#4c8a13;"/><path d="M358.198,139.28c-0,-0 3.489,-13.141 -52.024,62.086c-6.387,8.655 7.532,1.803 27.164,-22.521c14.544,-18.019 24.86,-39.565 24.86,-39.565Z" style="fill:#4c8a13;"/><path d="M359.758,146.049c0.327,-0.111 0.663,-0.234 0.911,-0.326l4.744,-2.989c0,0 -10.728,22.401 -25.85,41.136c-10.232,12.677 -19.053,20.844 -24.541,24.843c-3.637,2.65 -6.51,3.785 -8.059,4.07l-3.374,0.02l-3.382,-1.408l-1.382,-1.213l-1.086,-1.487l-1.038,-2.99l-0.062,-2.092l0.435,-2.145c0.358,-1.123 1.142,-2.791 2.663,-4.852c27.6,-37.403 40.858,-53.252 47.17,-59.715c4.197,-4.296 6.706,-5.555 7.873,-5.969l2.249,-0.498l2.106,0.067l2.036,0.587l1.937,1.17l1.387,1.426l1.176,2.113l0.559,2.681l-0.253,2.667l-6.219,4.904Zm-8.751,-10.185l6.636,10.536c0.085,0.001 0.171,0.002 0.258,0c-1.089,-3.158 -4.911,-13.584 -6.894,-10.536Z" style="fill:#4c8a13;"/></svg>