<?xml version="1.0" encoding="UTF-8" standalone="no"?><!DOCTYPE svg PUBLIC "-//W3C//DTD SVG 1.1//EN" "http://www.w3.org/Graphics/SVG/1.1/DTD/svg11.dtd"><svg width="100%" height="100%" viewBox="0 0 1182 1182" version="1.1" xmlns="http://www.w3.org/2000/svg" xmlns:xlink="http://www.w3.org/1999/xlink" xml:space="preserve" xmlns:serif="http://www.serif.com/" style="fill-rule:evenodd;clip-rule:evenodd;stroke-linejoin:round;stroke-miterlimit:2;"><path d="M524.337,254.051c11.651,59.313 22.409,451.358 -7.77,588.107c-4.21,19.074 -46.93,67.058 -107.416,75.453c-60.021,8.331 -109.133,-33.718 -132.509,-33.73c-109.623,-0.052 -105.245,203.178 -18.718,218.098c63.14,10.887 196.171,-96.124 228.952,-40.443c-0,0 90.263,125.622 135.402,49.115c32.834,-55.649 256.926,45.371 320.077,34.545c86.541,-14.837 91.115,-218.063 -18.508,-218.116c-23.376,-0.011 -72.529,41.991 -132.542,33.602c-60.477,-8.453 -100.842,-10.83 -100.842,-43.071c0,-33.552 7.774,-114.511 8.906,-171.083c0.971,-48.487 -9.821,-192.022 -5.873,-292.94c4.405,-112.599 5.716,-86.858 11.36,-172.619c2.109,-32.053 25.952,-25.242 86.434,-33.666c60.017,-8.36 109.149,33.666 132.525,33.666c109.623,-0 105.147,-203.229 18.613,-218.107c-63.145,-10.856 -216.125,96.3 -248.932,40.635c0,-0 -90.323,-125.578 -135.426,-49.05c-32.807,55.665 -236.948,-45.175 -300.093,-34.318c-86.534,14.878 -91.01,218.106 18.613,218.106c23.376,-0 72.508,-42.025 132.525,-33.666c60.482,8.424 113.113,17.429 115.222,49.482" style="fill:#77b83b;"/><path d="M516.487,255.593c-0.066,-0.336 -0.11,-0.676 -0.133,-1.017c-0.664,-10.087 -8.307,-16.741 -19.541,-22.157c-20.854,-10.053 -53.471,-15.005 -88.801,-19.926c-34.329,-4.782 -64.865,7.999 -88.66,18.772c-17.968,8.135 -32.666,14.97 -42.762,14.97c-59.376,-0 -88.947,-54.153 -90.861,-111.206c-1.121,-33.401 7.261,-67.465 23.887,-91.106c11.758,-16.721 27.597,-28.342 47.005,-31.679c18.422,-3.167 48.408,2.461 82.722,11.407c49.088,12.799 107.549,32.063 152.414,37.948c15.151,1.987 28.66,2.459 39.538,0.38c9.005,-1.72 16.055,-5.099 19.883,-11.594c8.389,-14.235 18.309,-22.252 28.744,-26.017c15.516,-5.599 32.673,-1.779 49.153,7.272c37.096,20.372 70.916,67.185 70.916,67.185c0.141,0.197 0.274,0.401 0.397,0.61c5.158,8.752 14.333,11.893 25.728,12.171c13.773,0.337 30.496,-3.495 48.615,-9.131c34.316,-10.675 73.319,-27.892 107.213,-38.551c24.044,-7.561 45.717,-11.718 61.84,-8.946c19.408,3.337 35.246,14.958 47.005,31.679c16.626,23.641 25.008,57.705 23.887,91.106c-1.914,57.053 -31.485,111.206 -90.861,111.206c-10.096,-0 -24.794,-6.835 -42.762,-14.97c-23.795,-10.773 -54.331,-23.554 -88.66,-18.772c-29.871,4.16 -50.701,4.505 -64.317,7.821c-4.979,1.213 -8.781,2.681 -11.292,5.571c-2.523,2.903 -3.563,7.06 -3.945,12.875c-5.637,85.656 -6.949,59.946 -11.349,172.407c-3.946,100.866 6.848,244.325 5.878,292.787c-1.131,56.519 -8.905,137.402 -8.905,170.923c0,12.462 8.548,18.449 22.193,22.841c17.323,5.575 42.079,8.159 71.756,12.307c34.327,4.798 64.869,-7.968 88.669,-18.729c17.973,-8.127 32.673,-14.955 42.769,-14.95c59.377,0.029 88.921,54.196 90.808,111.25c1.105,33.401 -7.294,67.461 -23.931,91.094c-11.766,16.716 -27.611,28.329 -47.02,31.656c-18.365,3.149 -49.878,-2.487 -86.422,-11.432c-52.486,-12.845 -115.895,-32.165 -164.298,-38.09c-16.469,-2.016 -31.113,-2.492 -42.807,-0.405c-9.663,1.726 -17.156,5.028 -21.012,11.564c-8.396,14.23 -18.319,22.243 -28.756,26.003c-15.519,5.591 -32.674,1.763 -49.15,-7.296c-37.086,-20.39 -70.883,-67.219 -70.883,-67.219c-0.142,-0.197 -0.274,-0.401 -0.397,-0.61c-5.08,-8.628 -13.426,-11.909 -23.665,-12.192c-12.414,-0.344 -27.288,3.456 -43.401,9.013c-30.883,10.652 -65.941,27.843 -97.231,38.482c-22.322,7.589 -42.899,11.761 -59.12,8.964c-19.407,-3.346 -35.24,-14.974 -46.991,-31.701c-16.613,-23.649 -24.979,-57.717 -23.843,-91.118c1.942,-57.052 31.539,-111.19 90.915,-111.162c10.096,0.005 24.79,6.847 42.755,14.991c23.79,10.784 54.32,23.58 88.651,18.815c34.377,-4.772 62.674,-23.088 80.69,-40.845c11.221,-11.06 18.523,-21.656 20.013,-28.408c30.011,-135.989 19.318,-525.857 7.732,-584.841Zm15.795,-2.597c11.678,61.268 22.362,453.747 -7.903,590.886c-1.442,6.534 -6.598,16.183 -15.316,26.548c-18.766,22.31 -54.21,48.914 -98.812,55.105c-37.695,5.232 -71.335,-8.249 -97.456,-20.09c-15.312,-6.942 -27.551,-13.559 -36.157,-13.564c-50.253,-0.024 -73.272,47.421 -74.916,95.707c-1.014,29.798 6.123,60.277 20.945,81.376c9.206,13.105 21.412,22.509 36.616,25.131c14.087,2.429 31.867,-1.755 51.252,-8.346c31.269,-10.631 66.302,-27.814 97.165,-38.459c18.191,-6.274 35.044,-10.269 49.06,-9.881c16.061,0.444 28.768,6.326 36.81,19.733c2.699,3.714 32.588,44.221 65.401,62.261c12.122,6.665 24.6,10.377 36.018,6.264c7.519,-2.709 14.35,-8.828 20.399,-19.081c4.906,-8.316 13.075,-14.057 24.083,-17.332c14.087,-4.191 33.297,-4.29 55.46,-1.577c48.945,5.991 113.084,25.441 166.157,38.43c33.829,8.28 62.915,14.118 79.915,11.204c15.207,-2.608 27.422,-12 36.641,-25.097c14.842,-21.084 22.008,-51.556 21.023,-81.356c-1.597,-48.287 -24.571,-95.754 -74.824,-95.778c-8.606,-0.004 -20.851,6.602 -36.17,13.529c-26.132,11.816 -59.786,25.264 -97.476,19.996c-37.353,-5.221 -67.205,-8.433 -85.148,-17.142c-14.683,-7.127 -22.586,-17.557 -22.586,-33.852c0,-33.584 7.775,-114.618 8.908,-171.243c0.971,-48.512 -9.819,-192.122 -5.869,-293.093c4.411,-112.737 5.72,-86.964 11.371,-172.832c0.672,-10.214 3.402,-17.22 7.835,-22.32c4.443,-5.113 10.774,-8.476 19.582,-10.621c13.953,-3.397 35.286,-3.859 65.896,-8.122c37.692,-5.251 71.339,8.214 97.466,20.043c15.315,6.934 27.558,13.546 36.163,13.546c50.253,-0 73.25,-47.456 74.87,-95.742c1,-29.8 -6.151,-60.275 -20.984,-81.366c-9.212,-13.101 -21.422,-22.5 -36.628,-25.114c-14.187,-2.439 -33.172,1.787 -54.33,8.441c-33.908,10.663 -72.928,27.886 -107.26,38.565c-24.276,7.552 -46.383,11.742 -63.159,9.004c-12.91,-2.107 -23.017,-8.055 -29.522,-18.864c-2.707,-3.722 -32.612,-44.206 -65.429,-62.229c-12.125,-6.659 -24.605,-10.365 -36.021,-6.246c-7.518,2.713 -14.346,8.835 -20.39,19.091c-4.908,8.328 -12.763,14.021 -23.151,17.307c-13.385,4.235 -31.41,4.365 -52.135,1.647c-45.433,-5.96 -104.66,-25.368 -154.37,-38.329c-31.552,-8.227 -59.034,-14.034 -75.974,-11.121c-15.206,2.614 -27.416,12.013 -36.628,25.114c-14.833,21.091 -21.984,51.567 -20.984,81.366c1.62,48.287 24.617,95.742 74.87,95.742c8.605,-0 20.848,-6.612 36.163,-13.546c26.127,-11.828 59.774,-25.293 97.466,-20.043c37.248,5.188 71.556,10.762 93.542,21.36c17.134,8.26 27.302,19.694 28.521,34.99Z" style="fill:#4c8a13;"/><path d="M974.324,162.084c0,0 -1.814,82.188 -26.89,74.944c-2.885,-0.834 8.241,-115.696 18.029,-135.288c7.25,-14.514 8.861,60.344 8.861,60.344Z" style="fill:#4c8a13;"/><path d="M982.322,162.261c0,-0 -1.079,42.168 -10.649,64.88c-5.84,13.861 -15.237,20.815 -26.46,17.573l-2.855,-1.489l-1.442,-1.503l-0.964,-1.664c-0.367,-0.837 -0.941,-3.01 -0.978,-6.404c-0.151,-13.767 4.68,-65.015 10.681,-100.657c2.714,-16.119 5.823,-29.171 8.651,-34.832l2.182,-3.24l1.641,-1.429l1.595,-0.888l2.828,-0.707l3.069,0.295l2.036,0.851l2.058,1.592l1.703,2.261c0.441,0.763 0.889,1.727 1.298,2.889c4.297,12.225 5.606,62.123 5.606,62.123c0.003,0.117 0.003,0.233 0,0.349Zm-27.056,62.188c1.929,-3.458 3.44,-7.909 4.74,-12.747c5.476,-20.383 6.259,-47.373 6.316,-49.641l0,-0.004c-0.029,-1.657 -0.258,-13.365 -0.964,-25.956c-4.865,29.049 -8.98,68.523 -10.092,88.348Z" style="fill:#4c8a13;"/><path d="M320.167,176.606c-0,0 -80.151,18.275 -79.238,-7.811c0.105,-3.001 114.215,-20.209 135.602,-15.493c15.844,3.494 -56.364,23.304 -56.364,23.304Z" style="fill:#4c8a13;"/><path d="M321.945,184.406c0,0 -41.159,9.233 -65.519,5.488c-14.866,-2.286 -23.901,-9.704 -23.492,-21.378l0.748,-3.133l1.106,-1.765l1.379,-1.34c0.722,-0.56 2.69,-1.647 5.972,-2.51c13.315,-3.502 64.195,-11.309 100.224,-14.177c16.295,-1.297 29.711,-1.464 35.891,-0.101l3.674,1.326l1.785,1.244l1.251,1.331l1.375,2.569l0.461,3.049l-0.329,2.182l-1.041,2.384l-1.778,2.203c-0.633,0.614 -1.458,1.283 -2.486,1.962c-10.808,7.148 -58.883,20.581 -58.883,20.581c-0.112,0.031 -0.224,0.059 -0.338,0.085Zm-66.907,-11.081c3.824,1.028 8.509,1.409 13.518,1.49c21.102,0.342 47.469,-5.477 49.683,-5.975l0.004,-0.001c1.6,-0.433 12.898,-3.508 24.937,-7.262c-29.357,2.363 -68.644,7.994 -88.142,11.748Z" style="fill:#4c8a13;"/><path d="M638.831,83.843c0,-0 51.014,33.87 32.013,52.007c-2.187,2.087 -68.543,-52.441 -75.327,-68.344c-5.026,-11.782 43.314,16.337 43.314,16.337Z" style="fill:#4c8a13;"/><path d="M643.256,77.178c0,-0 26.94,18.178 36.138,35.726c5.444,10.386 5.512,20.582 -3.027,28.733l-2.81,1.754l-3.158,0.513l-2.896,-0.565c-0.756,-0.27 -1.865,-0.784 -3.238,-1.609c-8.909,-5.355 -38.958,-29.828 -58.306,-49.102c-9.055,-9.021 -15.748,-17.172 -17.8,-21.983l-0.898,-3.103l-0.017,-2.848l0.857,-2.808l1.844,-2.534l1.833,-1.378l2.582,-1.027l2.112,-0.307l2.565,0.096c3.461,0.412 9.217,2.45 15.501,5.321c12.772,5.834 28.316,14.871 28.316,14.871c0.136,0.079 0.271,0.162 0.402,0.25Zm-26.242,3.878c0.079,0.079 0.158,0.157 0.237,0.236c15.299,15.241 37.582,33.984 49.487,42.757c-0.066,-0.25 -0.142,-0.502 -0.226,-0.754c-0.965,-2.885 -2.824,-5.809 -5.053,-8.689c-9.253,-11.948 -24.9,-22.652 -26.851,-23.964l-0.012,-0.007c-1.363,-0.789 -9.091,-5.232 -17.582,-9.579Z" style="fill:#4c8a13;"/><path d="M560.311,1092.6c-0,0 -34.199,-22.488 -15.709,-40.902c2.127,-2.119 44.654,36.254 47.069,49.175c1.79,9.573 -31.36,-8.273 -31.36,-8.273Z" style="fill:#4c8a13;"/><path d="M555.915,1099.28c0,0 -14.041,-9.344 -20.751,-21.324c-5.582,-9.966 -6.783,-21.399 3.793,-31.931l1.816,-1.367l1.819,-0.743l2.612,-0.299l2.28,0.384c1.258,0.372 3.678,1.592 6.698,3.829c4.709,3.488 12.072,9.893 19.438,17.091c8.274,8.085 16.529,17.175 21.197,24.22c2.638,3.981 4.214,7.562 4.718,10.259l0.169,3.064l-0.487,2.383l-0.936,2.006l-1.381,1.753l-3.26,2.178l-4.192,0.894c-2.997,0.132 -7.668,-0.896 -12.665,-2.731c-9.307,-3.418 -20.264,-9.306 -20.264,-9.306c-0.207,-0.111 -0.408,-0.231 -0.604,-0.36Zm-8.65,-36.025c-0.328,3.837 2.015,7.636 4.543,10.846c4.823,6.126 11.232,10.673 12.624,11.626l0.007,0.005c1.353,0.718 6.597,3.464 12.291,5.943c-0.116,-0.139 -0.233,-0.28 -0.35,-0.42c-7.721,-9.27 -21.739,-21.673 -29.115,-28Z" style="fill:#4c8a13;"/><path d="M938.935,1098.13c-0,-0 15.971,-11.823 18.833,10.063c0.329,2.519 -23.446,11.945 -28.836,7.037c-3.993,-3.637 10.003,-17.1 10.003,-17.1Z" style="fill:#4c8a13;"/><path d="M934.175,1091.7c-0,-0 9.329,-6.378 17.693,-4.259c5.514,1.398 12.018,5.837 13.832,19.715l-0.252,3.41l-1.432,2.897l-1.977,2.046c-0.659,0.539 -1.533,1.146 -2.602,1.768c-5.011,2.917 -15.781,6.794 -23.527,7.287c-5.481,0.349 -9.854,-1.133 -12.364,-3.42l-1.887,-2.311l-1.097,-2.634l-0.345,-2.922l0.538,-3.449c1.902,-6.562 12.633,-17.463 12.633,-17.463c0.248,-0.239 0.511,-0.461 0.787,-0.665Zm6.974,15.684c2.685,-0.807 5.534,-1.939 7.611,-2.82c-0.114,-0.289 -0.236,-0.56 -0.367,-0.813c-0.187,-0.364 -0.198,-0.734 -0.456,-0.8c-0.829,-0.21 -1.651,0.28 -2.315,0.565c-0.697,0.3 -1.265,0.626 -1.6,0.832l-0.004,0.003c-0.583,0.583 -1.658,1.68 -2.869,3.033Z" style="fill:#4c8a13;"/><path d="M258.935,48.128c-0,-0 15.971,-11.823 18.833,10.063c0.329,2.519 -23.446,11.945 -28.836,7.037c-3.993,-3.637 10.003,-17.1 10.003,-17.1Z" style="fill:#4c8a13;"/><path d="M254.175,41.698c-0,-0 9.329,-6.378 17.693,-4.259c5.514,1.398 12.018,5.837 13.832,19.715l-0.252,3.41l-1.432,2.897l-1.977,2.046c-0.659,0.539 -1.533,1.146 -2.602,1.768c-5.011,2.917 -15.781,6.794 -23.527,7.287c-5.481,0.349 -9.854,-1.133 -12.364,-3.42l-1.887,-2.311l-1.097,-2.634l-0.345,-2.922l0.538,-3.449c1.902,-6.562 12.633,-17.463 12.633,-17.463c0.248,-0.239 0.511,-0.461 0.787,-0.665Zm6.974,15.684c2.685,-0.807 5.534,-1.939 7.611,-2.82c-0.114,-0.289 -0.236,-0.56 -0.367,-0.813c-0.187,-0.364 -0.198,-0.734 -0.456,-0.8c-0.829,-0.21 -1.651,0.28 -2.315,0.565c-0.697,0.3 -1.265,0.626 -1.6,0.832l-0.004,0.003c-0.583,0.583 -1.658,1.68 -2.869,3.033Z" style="fill:#4c8a13;"/><path d="M519.979,1011.51c-0,-0 -1.425,-16.451 5.197,-5.752c0.762,1.231 0.541,21.073 -1.528,21.566c-1.532,0.366 -3.669,-15.814 -3.669,-15.814Z" style="fill:#4c8a13;"/><path d="M512.008,1012.2c0,0 -0.449,-7.078 0.609,-10.733l1.485,-3.251l1.378,-1.627l1.389,-1.076l1.804,-0.871l2.056,-0.456l2.023,0.028l1.756,0.401l2.016,0.939l2.05,1.591c0.936,0.898 2.098,2.292 3.404,4.403l0.945,2.135l0.521,3.393c0.306,4.468 0.051,14.701 -0.929,19.527l-1.166,3.661l-1.72,2.482l-2.034,1.554l-2.091,0.806l-2.561,0.199l-2.287,-0.518l-2.165,-1.222l-2.112,-2.372c-0.7,-1.126 -1.669,-3.72 -2.359,-6.905c-1.07,-4.933 -1.972,-11.73 -1.972,-11.73c-0.016,-0.119 -0.029,-0.239 -0.04,-0.358Z" style="fill:#4c8a13;"/><path d="M265.346,911.217c0,0 16.201,-3.195 6.281,4.545c-1.142,0.89 -20.892,2.817 -21.606,0.814c-0.529,-1.484 15.325,-5.359 15.325,-5.359Z" style="fill:#4c8a13;"/><path d="M263.798,903.368c0,0 6.988,-1.212 10.736,-0.556l3.392,1.125l1.767,1.194l1.22,1.265l1.061,1.698l0.676,1.996l0.191,2.013l-0.209,1.79l-0.715,2.106l-1.361,2.209c-0.791,1.028 -2.051,2.334 -4.008,3.861l-2.021,1.17l-3.317,0.885c-4.408,0.787 -14.608,1.641 -19.512,1.188l-3.767,-0.763l-2.653,-1.442l-1.764,-1.854l-1.028,-1.991l-0.474,-2.525l0.266,-2.329l0.982,-2.284l2.129,-2.357c1.044,-0.818 3.518,-2.061 6.609,-3.092c4.789,-1.597 11.449,-3.229 11.449,-3.229c0.116,-0.029 0.233,-0.055 0.351,-0.078Z" style="fill:#4c8a13;"/></svg>