<?xml version="1.0" encoding="UTF-8" standalone="no"?><!DOCTYPE svg PUBLIC "-//W3C//DTD SVG 1.1//EN" "http://www.w3.org/Graphics/SVG/1.1/DTD/svg11.dtd"><svg width="100%" height="100%" viewBox="0 0 1182 1182" version="1.1" xmlns="http://www.w3.org/2000/svg" xmlns:xlink="http://www.w3.org/1999/xlink" xml:space="preserve" xmlns:serif="http://www.serif.com/" style="fill-rule:evenodd;clip-rule:evenodd;stroke-linejoin:round;stroke-miterlimit:2;"><path d="M484.525,744.438c-3.948,-100.918 2.037,-244.595 5.873,-292.94c24.722,-311.497 82.605,-413.499 -56.209,-413.499c-43.407,-0 -94.73,-39.244 -126.593,30.524c-33.045,72.355 -14.672,175.093 -0,207.345c63.125,138.761 19.421,608.794 7.77,668.107c-3.953,29.367 -55.928,90.522 -7.77,164.712c37.351,57.542 131.827,62.37 176.929,-14.157c32.807,-55.666 335.787,51.491 398.932,40.634c86.534,-14.878 91.01,-218.107 -18.613,-218.107c-23.376,0 -72.508,42.026 -132.525,33.666c-60.482,-8.424 -123.313,7.226 -142.652,8.36c-31.985,1.874 -91.673,-9.973 -93.782,-42.026c-5.644,-85.761 -6.955,-60.02 -11.36,-172.619Z" style="fill:#77b83b;"/><path d="M492.519,744.125c4.4,112.461 5.712,86.751 11.349,172.407c0.668,10.155 9.31,17.159 20.249,22.521c19.517,9.568 47.003,13.103 65.082,12.043c19.551,-1.145 83.079,-16.813 144.223,-8.296c34.329,4.781 64.865,-8 88.66,-18.773c17.968,-8.134 32.666,-14.97 42.762,-14.97c59.376,0 88.947,54.153 90.861,111.206c1.121,33.401 -7.261,67.465 -23.887,91.106c-11.758,16.722 -27.597,28.342 -47.005,31.679c-13.816,2.375 -38.674,-0.432 -69.608,-6.192c-69.118,-12.869 -170.025,-39.906 -242.871,-48.096c-25.736,-2.893 -47.83,-3.486 -63.426,0.078c-8.245,1.883 -14.495,4.671 -17.491,9.753c-48.554,82.385 -150.321,76.398 -190.531,14.451c-30.668,-47.246 -23.245,-89.495 -11.358,-122.481c7.227,-20.056 16.379,-36.282 17.91,-47.653c0.021,-0.159 0.048,-0.317 0.078,-0.474c8.123,-41.355 31.842,-283.163 23.806,-471.931c-3.405,-79.966 -12.364,-150.338 -31.008,-191.322c-15.142,-33.285 -34.097,-139.311 0.005,-213.981c10.656,-23.334 23.564,-35.463 37.302,-41.384c13.741,-5.923 28.593,-5.621 43.767,-3.054c17.703,2.995 35.86,9.237 52.801,9.237c37.652,-0 61.749,7.639 76.622,23.295c14.841,15.623 20.922,39.786 20.808,74.669c-0.209,64.558 -20.862,168.129 -33.246,324.168c-3.824,48.189 -9.789,191.402 -5.854,291.994Zm-15.988,0.626c-3.961,-101.244 2.043,-245.385 5.893,-293.886c12.337,-155.458 32.987,-258.636 33.196,-322.954c0.096,-29.558 -3.834,-50.36 -16.41,-63.598c-12.544,-13.205 -33.261,-18.314 -65.021,-18.314c-17.784,-0 -36.886,-6.317 -55.47,-9.461c-12.043,-2.037 -23.86,-2.73 -34.765,1.971c-10.908,4.701 -20.619,14.809 -29.081,33.338c-31.987,70.039 -14.198,169.488 0.005,200.709c19.231,42.273 28.918,114.786 32.429,197.267c8.087,189.937 -15.818,433.146 -24.045,475.455c-1.72,12.113 -11.026,29.465 -18.682,50.708c-10.512,29.17 -17.395,66.563 9.726,108.345c34.494,53.14 121.676,56.809 163.327,-13.863c4.881,-8.281 14.277,-14.159 27.711,-17.228c16.913,-3.865 40.87,-3.517 68.778,-0.38c73.184,8.228 174.572,35.338 244.011,48.266c28.447,5.297 51.264,8.338 63.969,6.153c15.206,-2.614 27.416,-12.012 36.629,-25.113c14.832,-21.092 21.983,-51.567 20.983,-81.366c-1.62,-48.287 -24.617,-95.743 -74.87,-95.743c-8.605,0 -20.848,6.612 -36.163,13.546c-26.127,11.829 -59.774,25.294 -97.466,20.044c-59.819,-8.332 -121.953,7.301 -141.08,8.422c-20.302,1.19 -51.145,-2.905 -73.061,-13.649c-16.69,-8.182 -28.152,-20.343 -29.172,-35.837c-5.651,-85.867 -6.96,-60.095 -11.371,-172.832Z" style="fill:#4c8a13;"/><path d="M913.353,1027.94c0,-0 -1.814,-82.188 -26.89,-74.944c-2.885,0.834 8.241,115.696 18.029,135.288c7.25,14.515 8.861,-60.344 8.861,-60.344Z" style="fill:#4c8a13;"/><path d="M921.351,1028.11c0,-0 -1.309,49.898 -5.606,62.123c-0.409,1.162 -0.857,2.126 -1.298,2.889l-1.703,2.262l-2.058,1.591l-2.036,0.851l-3.069,0.295l-2.828,-0.707l-1.595,-0.888l-1.641,-1.428l-2.182,-3.241c-2.828,-5.661 -5.937,-18.713 -8.651,-34.832c-6.001,-35.642 -10.832,-86.89 -10.681,-100.657c0.037,-3.393 0.611,-5.567 0.978,-6.404l0.964,-1.664l1.442,-1.503l2.855,-1.489c11.224,-3.242 20.62,3.712 26.46,17.573c9.57,22.712 10.649,64.88 10.649,64.88c0.003,0.116 0.003,0.233 0,0.349Zm-27.055,-62.514c1.114,19.833 5.228,59.288 10.091,88.325c0.707,-12.618 0.936,-24.349 0.965,-25.966l-0,-0.005c-0.062,-2.735 -1.027,-38.998 -9.394,-58.856c-0.527,-1.249 -1.076,-2.424 -1.662,-3.498Z" style="fill:#4c8a13;"/><path d="M429.86,1114.18c0,0 51.014,-33.87 32.013,-52.007c-2.186,-2.087 -68.543,52.441 -75.327,68.344c-5.026,11.782 43.314,-16.337 43.314,-16.337Z" style="fill:#4c8a13;"/><path d="M433.883,1121.1c-0,-0 -15.544,9.036 -28.316,14.87c-6.284,2.871 -12.04,4.909 -15.501,5.321l-2.565,0.096l-2.112,-0.307l-2.582,-1.027l-1.833,-1.378l-1.844,-2.533l-0.857,-2.808l0.017,-2.849l0.898,-3.102c2.052,-4.812 8.745,-12.963 17.8,-21.984c19.348,-19.273 49.397,-43.747 58.306,-49.101c1.373,-0.826 2.482,-1.34 3.238,-1.61l2.896,-0.565l3.158,0.513l2.81,1.754c8.539,8.151 8.471,18.347 3.027,28.733c-9.198,17.549 -36.138,35.726 -36.138,35.726c-0.131,0.088 -0.266,0.171 -0.402,0.251Zm-25.84,-4.129c8.49,-4.347 16.218,-8.789 17.582,-9.578l0.014,-0.01c1.961,-1.318 17.6,-12.019 26.849,-23.962c2.229,-2.88 4.088,-5.804 5.053,-8.689c0.084,-0.252 0.16,-0.504 0.226,-0.754c-11.905,8.774 -34.188,27.516 -49.487,42.757c-0.079,0.079 -0.158,0.157 -0.237,0.236Z" style="fill:#4c8a13;"/><path d="M379.964,809.898c-0,0 15.971,11.823 18.833,-10.063c0.329,-2.518 -23.446,-11.945 -28.836,-7.036c-3.993,3.636 10.003,17.099 10.003,17.099Z" style="fill:#4c8a13;"/><path d="M374.417,815.664c0,-0 -10.731,-10.902 -12.633,-17.464l-0.538,-3.449l0.345,-2.922l1.097,-2.634l1.887,-2.311c2.51,-2.287 6.883,-3.769 12.364,-3.42c7.746,0.493 18.516,4.37 23.527,7.287c1.069,0.622 1.943,1.229 2.602,1.768l1.977,2.046l1.432,2.898l0.252,3.409c-1.814,13.878 -8.318,18.317 -13.832,19.715c-8.364,2.119 -17.693,-4.259 -17.693,-4.259c-0.276,-0.204 -0.539,-0.426 -0.787,-0.664Zm7.761,-15.02c1.21,1.352 2.285,2.449 2.868,3.032l0.006,0.005c0.335,0.206 0.903,0.531 1.599,0.831c0.664,0.285 1.487,0.775 2.315,0.565c0.258,-0.065 0.269,-0.436 0.456,-0.8c0.131,-0.253 0.253,-0.524 0.367,-0.813c-2.077,-0.881 -4.926,-2.013 -7.611,-2.82Z" style="fill:#4c8a13;"/><path d="M311.008,186.517c-0,0 -1.425,16.451 5.197,5.752c0.762,-1.231 0.541,-21.073 -1.527,-21.566c-1.533,-0.366 -3.67,15.814 -3.67,15.814Z" style="fill:#4c8a13;"/><path d="M303.077,185.47c-0,-0 0.902,-6.798 1.972,-11.731c0.69,-3.184 1.659,-5.779 2.359,-6.905l2.112,-2.372l2.165,-1.222l2.287,-0.517l2.561,0.198l2.091,0.806l2.034,1.554l1.72,2.482l1.166,3.661c0.98,4.827 1.235,15.06 0.929,19.527l-0.521,3.393l-0.945,2.136c-1.306,2.111 -2.468,3.504 -3.404,4.402l-2.05,1.591l-2.015,0.939l-1.757,0.401l-2.023,0.028l-2.056,-0.456l-1.804,-0.871l-1.389,-1.076l-1.378,-1.627l-1.485,-3.251c-1.058,-3.655 -0.609,-10.733 -0.609,-10.733c0.011,-0.119 0.024,-0.239 0.04,-0.357Z" style="fill:#4c8a13;"/></svg>