<?xml version="1.0" encoding="UTF-8" standalone="no"?><!DOCTYPE svg PUBLIC "-//W3C//DTD SVG 1.1//EN" "http://www.w3.org/Graphics/SVG/1.1/DTD/svg11.dtd"><svg width="100%" height="100%" viewBox="0 0 1182 1182" version="1.1" xmlns="http://www.w3.org/2000/svg" xmlns:xlink="http://www.w3.org/1999/xlink" xml:space="preserve" xmlns:serif="http://www.serif.com/" style="fill-rule:evenodd;clip-rule:evenodd;stroke-linejoin:round;stroke-miterlimit:2;"><path d="M132.505,395.002c-4.939,84.656 -17.308,234.546 0.178,360.877c16.733,120.885 -161.094,344.821 32.08,397.464c121.005,32.975 177.22,-59.969 156.917,-126.74c-14.341,-47.162 16.891,-139.271 8.705,-245.583c-0,0 -26.349,-426.399 15.913,-449.245c42.261,-22.845 132.979,164.198 237.654,312.17c114.083,161.271 65.743,151.145 225.536,377.033c39.035,55.181 178.248,108.922 185.144,109.618c113.292,11.443 53.803,-261.25 71.948,-440.895c12.825,-126.98 24.814,-127.19 12.247,-254.105c-12.025,-121.444 174.364,-338.305 -16.619,-398.41c-119.633,-37.65 -199.4,52.265 -181.706,119.773c12.499,47.684 -22.287,138.511 -18.236,245.06c7.273,191.302 91.174,401.084 63.693,481.133c-13.158,38.328 -162.262,-250.225 -173.049,-273.197c-175.335,-373.376 -356.257,-675.051 -578.09,-576.303c-119.363,53.133 -35.292,240.978 -42.315,361.35Z" style="fill:#77b83b;"/><path d="M919.622,876.611c8.862,-31.429 1.799,-81.041 -9.965,-140.758c-18.996,-96.429 -51.005,-218.324 -55.385,-333.53c-2.452,-64.487 9.141,-123.271 16.131,-170.364c4.426,-29.819 7.151,-54.698 2.361,-72.971c-5.794,-22.106 -2.159,-46.433 9.498,-68.521c26.318,-49.87 93.902,-88.747 182.347,-60.912c40.674,12.801 65.061,32.575 78.492,56.581c19.847,35.473 15.594,80.974 2.238,129.381c-12.746,46.192 -33.547,95.15 -46.853,140.053c-8.535,28.8 -14.014,55.846 -11.698,79.238c12.646,127.708 0.657,127.923 -12.248,255.696c-12.741,126.142 12.495,298.014 -10.087,385.85c-10.841,42.166 -32.436,66.059 -70.625,62.202c-3.562,-0.36 -41.431,-14.098 -83.314,-35.192c-41.758,-21.031 -87.455,-49.35 -107.557,-77.766c-159.793,-225.888 -111.453,-215.762 -225.536,-377.033c-73.124,-103.37 -139.381,-225.875 -187.045,-282.237c-9.564,-11.309 -18.25,-19.856 -26.103,-24.695c-5.425,-3.343 -10.078,-5.032 -14.171,-2.82c-2.195,1.187 -3.565,4.4 -5.221,8.665c-3.654,9.406 -6.394,23.463 -8.527,40.77c-14.711,119.388 1.734,387.703 2.012,392.221c4.943,64.319 -4.353,123.485 -9.507,170.799c-3.264,29.968 -5.021,54.934 0.475,73.008c13.132,43.187 -3.35,96.564 -46.877,124.652c-28.457,18.362 -68.63,26.077 -119.798,12.133c-41.14,-11.211 -66.276,-30.024 -80.629,-53.49c-21.21,-34.675 -18.728,-80.307 -7.261,-129.196c10.942,-46.652 29.826,-96.381 41.378,-141.767c7.41,-29.11 11.835,-56.348 8.612,-79.632c-17.562,-126.879 -5.201,-277.418 -0.24,-362.44c4.209,-72.155 -24.375,-168.576 -22.133,-245.635c1.592,-54.724 18.369,-99.94 69.18,-122.558c91.726,-40.831 176.791,-15.943 257.32,53.934c117.477,101.938 225.503,301.057 331.265,526.278c8.573,18.256 105.016,205.405 149.971,260.024c3.104,3.771 5.929,6.868 8.445,9.15c0.327,0.297 0.687,0.595 1.055,0.882Zm-779.131,-481.143c-4.917,84.289 -17.294,233.53 0.117,359.314c3.47,25.07 -0.977,54.43 -8.955,85.773c-11.529,45.293 -30.387,94.916 -41.307,141.474c-10.395,44.322 -13.896,85.756 5.333,117.193c12.605,20.609 35.057,36.556 71.187,46.402c45.637,12.437 81.535,6.237 106.915,-10.14c37.228,-24.023 51.476,-69.617 40.245,-106.554c-5.977,-19.656 -4.623,-46.802 -1.073,-79.395c5.067,-46.511 14.324,-104.67 9.455,-167.901l-0.008,-0.12c0,-0 -16.874,-273.916 -1.926,-395.223c2.336,-18.949 5.492,-34.307 9.492,-44.606c3.451,-8.884 7.954,-14.475 12.527,-16.947c7.151,-3.865 15.292,-3.901 24.326,0.15c10.386,4.658 22.502,15.414 35.774,31.108c47.858,56.592 114.469,179.538 187.89,283.329c114.083,161.271 65.743,151.145 225.536,377.033c18.934,26.765 62.36,52.907 101.692,72.716c39.207,19.746 74.391,33.226 77.725,33.563c23.287,2.352 37.828,-9.655 47.032,-30.871c6.889,-15.876 10.916,-36.537 13.244,-60.459c9.081,-93.318 -7.979,-234.614 2.909,-342.41c12.745,-126.186 24.734,-126.391 12.245,-252.513c-2.494,-25.186 3.09,-54.351 12.279,-85.36c13.28,-44.812 34.05,-93.665 46.77,-139.763c12.109,-43.886 17.216,-85.152 -0.777,-117.312c-11.795,-21.083 -33.612,-37.89 -69.332,-49.132c-79.041,-24.875 -139.874,8.55 -163.394,53.118c-9.702,18.385 -12.994,38.596 -8.171,56.996c5.209,19.873 2.802,46.947 -2.012,79.377c-6.869,46.279 -18.378,104.035 -15.968,167.407c4.347,114.355 36.238,235.329 55.094,331.046c12.966,65.819 19.467,120.084 8.171,152.989l-1.388,3.021l-2.326,2.87l-2.178,1.57l-2.525,1.03l-2.581,0.4l-2.399,-0.127c-1.743,-0.256 -3.715,-0.909 -5.839,-2.103c-4.318,-2.425 -10.027,-7.773 -16.522,-15.664c-45.551,-55.343 -143.413,-244.893 -152.1,-263.391c-104.639,-222.831 -211.038,-420.139 -327.268,-520.995c-75.276,-65.319 -154.585,-89.568 -240.327,-51.401c-44.68,19.889 -58.293,60.285 -59.693,108.406c-2.247,77.204 26.329,173.811 22.111,246.102Z" style="fill:#4c8a13;"/><path d="M1105.9,188.094c-0,-0 21.452,-79.36 -4.649,-79.486c-3.003,-0.015 -24.742,113.319 -20.881,134.877c2.86,15.971 25.53,-55.391 25.53,-55.391Z" style="fill:#4c8a13;"/><path d="M1113.53,190.516c0,-0 -15.336,47.501 -22.909,58.016c-0.72,1 -1.421,1.798 -2.06,2.406l-2.272,1.689l-2.423,0.946l-2.194,0.241l-3.028,-0.582l-2.513,-1.477l-1.279,-1.302l-1.172,-1.833l-1.179,-3.725c-1.115,-6.229 -0.414,-19.628 1.531,-35.858c4.3,-35.886 14.127,-86.415 18.157,-99.58c0.993,-3.245 2.157,-5.168 2.745,-5.867l1.395,-1.325l1.807,-1.035l3.16,-0.622c11.681,0.056 18.733,9.38 20.425,24.325c2.772,24.489 -8.092,65.248 -8.092,65.248c-0.031,0.113 -0.063,0.224 -0.099,0.335Zm-23.558,19.975c4.239,-11.906 7.769,-23.096 8.253,-24.639l0.001,-0.004c0.713,-2.641 10.02,-37.703 7.597,-59.116c-0.153,-1.346 -0.348,-2.629 -0.607,-3.824c-4.528,19.341 -11.715,58.353 -15.244,87.583Z" style="fill:#4c8a13;"/><path d="M485.439,405.05c-0,-0 -11.744,-29.093 -32.947,-14.718c-2.44,1.654 21.544,38.292 32.587,40.849c8.181,1.894 0.36,-26.131 0.36,-26.131Z" style="fill:#4c8a13;"/><path d="M493.144,402.899c0,0 2.649,9.536 3.431,17.565c0.444,4.548 0.169,8.716 -0.772,11.385l-1.853,3.445l-2.408,2.254l-2.018,1.048l-2.199,0.571l-4.051,-0.193c-3.634,-0.841 -8.553,-3.987 -13.485,-8.903c-8.973,-8.943 -19.111,-23.759 -23.035,-31.473c-2.061,-4.051 -2.521,-7.252 -2.399,-8.617l0.398,-1.942l0.728,-1.626l1.052,-1.432l1.47,-1.271c5.884,-3.989 11.299,-5.398 16.108,-5.367c7.399,0.047 13.635,3.568 18.406,8.245c6.777,6.644 10.34,15.467 10.34,15.467c0.112,0.276 0.207,0.558 0.287,0.844Zm-30.063,-8.507c3.129,5.151 8.284,13.242 13,18.85c1.329,1.58 2.665,3.085 3.979,4.456c-0.753,-4.46 -1.823,-8.619 -2.194,-10.009l-0.002,-0.004c-0.455,-1.016 -1.898,-4.031 -4.242,-7.059c-2.077,-2.682 -4.835,-5.681 -8.637,-6.213c-0.616,-0.086 -1.25,-0.093 -1.904,-0.021Z" style="fill:#4c8a13;"/><path d="M1041.57,1066.63c-0,-0 -0.021,-33.883 -48.197,-19.74c-5.543,1.627 10.889,45.182 28.752,49.123c13.234,2.92 19.445,-29.383 19.445,-29.383Z" style="fill:#4c8a13;"/><path d="M1049.43,1068.14c0,0 -3.621,17.946 -10.862,27.611c-4.824,6.439 -11.141,9.624 -18.162,8.074c-7.292,-1.608 -14.781,-7.918 -20.84,-16.467c-7.899,-11.146 -13.651,-25.792 -14.941,-33.847c-0.319,-1.991 -0.397,-3.702 -0.302,-5.051l0.374,-2.36l0.67,-1.874l1.014,-1.699l1.643,-1.701l3.1,-1.612c22.642,-6.647 36.205,-3.463 44.361,1.788c14.106,9.082 14.089,25.623 14.089,25.623c0,0.508 -0.048,1.016 -0.144,1.515Zm-48.498,-14.984c0.21,0.93 0.464,1.936 0.755,2.86c1.858,5.897 5.2,13.336 9.381,19.797c3.813,5.891 7.979,11.328 12.785,12.388c0.44,0.097 0.564,-0.506 0.893,-0.842c1.098,-1.119 2.035,-2.604 2.894,-4.206c3.403,-6.351 5.328,-14.496 5.897,-17.153l0,-0.004c-0.172,-1.958 -1.151,-7.96 -6.713,-11.541c-5.063,-3.26 -13.113,-4.319 -25.892,-1.299Z" style="fill:#4c8a13;"/><path d="M291.737,1068.64c0,-0 -10.661,-21.536 -76.96,45.593c-7.628,7.724 30.164,15.613 57.63,-3.433c20.347,-14.11 19.33,-42.16 19.33,-42.16Z" style="fill:#4c8a13;"/><path d="M299.732,1068.35c0,-0 0.947,32.58 -22.767,49.024c-17.225,11.945 -38.078,14.428 -51.592,12.784c-7.116,-0.866 -12.448,-3.047 -15.192,-5.262l-1.616,-1.535l-1.478,-2.082l-1.235,-3.797l-0.027,-2.16l0.418,-2.079l1.238,-2.639l1.604,-1.992c34.866,-35.303 55.396,-46.901 66.916,-50.064c8.27,-2.27 13.403,-0.911 16.476,0.554l3.885,2.643l2.545,3.345c0.503,1.016 0.784,2.127 0.825,3.26Zm-73.526,45.776c10.52,1.597 27.611,-0.17 41.642,-9.9c12.334,-8.554 15.136,-23.302 15.746,-30.734c-0.956,0.033 -2.153,0.155 -3.357,0.485c-9.737,2.674 -26.12,12.683 -54.031,40.149Z" style="fill:#4c8a13;"/><path d="M679.465,592.806c0,-0 4.302,-8.674 -17.18,-31.457c-2.472,-2.622 -1.298,17.517 5.499,28.314c5.035,7.998 11.681,3.143 11.681,3.143Z" style="fill:#4c8a13;"/><path d="M684.185,599.266l-2.462,1.427c-0.9,0.421 -2.046,0.86 -3.36,1.164l-2.392,0.366l-2.772,-0.046c-3.792,-0.416 -8.369,-2.191 -12.185,-8.252c-6.553,-10.409 -8.534,-28.078 -7.633,-33.09l0.581,-2.118l1.115,-2.078l1.659,-1.738l1.839,-1.099l2.64,-0.66l2.614,0.206l2.325,0.945l1.951,1.568c26.692,28.309 18.528,40.499 18.528,40.499c-0.571,1.151 -1.411,2.148 -2.448,2.906Z" style="fill:#4c8a13;"/><path d="M211.874,76.993c0,0 20.065,15.284 84.862,-23.175c7.456,-4.425 -43.249,-13.15 -72.707,-3.037c-21.823,7.493 -12.155,26.212 -12.155,26.212Z" style="fill:#4c8a13;"/><path d="M204.766,80.664c0,0 -6.626,-13.246 0.078,-24.905c2.726,-4.74 7.618,-9.465 16.587,-12.544c25.447,-8.737 65.577,-4.285 76.489,0.223c1.14,0.471 2.078,0.963 2.815,1.432l2.108,1.694l1.496,1.996l0.833,2.038l0.283,2.873l-0.688,2.84l-1.572,2.454l-2.376,1.932c-71.073,42.185 -93.792,22.66 -93.792,22.66c-0.944,-0.719 -1.716,-1.639 -2.261,-2.693Zm13.275,-9.784c2.543,0.638 7.881,1.562 15.054,0.574c10.293,-1.418 24.831,-5.826 44.829,-16.278c-14.615,-1.896 -36.049,-2.063 -51.297,3.172c-4.129,1.417 -6.658,3.206 -7.912,5.387c-1.454,2.529 -1.186,5.25 -0.674,7.145Z" style="fill:#4c8a13;"/></svg>