<?xml version="1.0" encoding="UTF-8" standalone="no"?><!DOCTYPE svg PUBLIC "-//W3C//DTD SVG 1.1//EN" "http://www.w3.org/Graphics/SVG/1.1/DTD/svg11.dtd"><svg width="100%" height="100%" viewBox="0 0 1182 1182" version="1.1" xmlns="http://www.w3.org/2000/svg" xmlns:xlink="http://www.w3.org/1999/xlink" xml:space="preserve" xmlns:serif="http://www.serif.com/" style="fill-rule:evenodd;clip-rule:evenodd;stroke-linejoin:round;stroke-miterlimit:2;"><path d="M810.274,103.508c14.769,5.133 86.481,9.673 134.818,76.729c15.742,21.839 6.969,7.593 14.978,44.874c9.643,44.887 -31.221,166.789 -26.323,220.825c3.346,36.907 86.735,121.493 57.397,205.36c-52.35,149.655 -22.403,198.59 -19.55,213.754c9.931,52.787 65.897,237.88 -80.143,226.2c-121.54,-9.72 -213.288,-13.081 -297.555,48.142c-37.379,27.158 -139.186,13.89 -213.794,-58.968c-38.975,-38.061 -63.832,-158.559 -88.538,-217.373c-14.324,-34.102 -8.048,-123.099 32.633,-190.628c30.154,-50.055 -53.894,-218.071 -54.8,-267.563c-1.898,-103.647 70.459,-114.739 88.845,-130.014c95.609,-79.425 56.362,-266.479 176.437,-232.685c58.099,16.351 103.436,56.951 139.484,64.531c75.47,15.868 110.22,-12.183 136.111,-3.184Zm-37.716,746.625c12.344,-14.037 15.13,-40.927 47.553,-83.924c15.486,-20.536 45.633,-40.133 72.014,-72.404c54.52,-66.693 -23.747,-80.201 -16.854,-154.635c1.326,-14.314 23.377,-60.814 -12.898,-80.444c-17.321,-9.373 -105.062,8.351 -111.475,-20.141c-8.652,-38.438 -36.974,-60.131 -53.805,-58.206c-29.029,3.318 -79.295,-5.643 -106.297,10.57c-51.686,31.037 -92.628,90.67 -96.661,118.99c-9.091,63.843 -43.036,119.308 -89.813,191.727c-56.206,87.017 27.364,89.901 49.042,94.414c6.227,1.296 33.736,-7.212 66.422,54.841c18.318,34.774 77.171,0.717 91.042,6.074c20.308,7.842 47.568,57.299 66.431,60.403c15.666,2.578 7.637,5.088 20.764,-0.163c40.305,-16.126 67.494,-59.095 74.535,-67.102Z" style="fill:#77b83b;"/><path d="M812.9,95.951c15.225,5.292 88.854,10.485 138.681,79.608c11.149,15.466 11.392,15.865 12.235,23.002c0.463,3.914 0.964,10.389 4.075,24.87c4.004,18.639 -0.086,50.093 -6.464,84.69c-9.074,49.221 -22.606,105.17 -19.713,137.093c0.6,6.616 4.268,14.868 9.225,24.557c8.317,16.254 20.373,35.939 30.959,57.741c18.487,38.073 32.207,82.376 16.798,126.426c-51.343,146.774 -22.038,194.76 -19.24,209.633c5.035,26.764 21.607,87.089 18.542,139.224c-1.965,33.43 -12.083,63.472 -36.519,80.985c-16.266,11.658 -39.059,17.973 -70.665,15.445c-119.318,-9.543 -209.489,-13.465 -292.215,46.639c-16.166,11.745 -43.387,17.005 -75.502,13.438c-46.003,-5.11 -102.367,-28.021 -148.584,-73.154c-16.223,-15.843 -30.35,-45.274 -42.802,-78.97c-17.907,-48.457 -32.734,-105.823 -47.522,-141.029c-6.066,-14.44 -8.873,-38.152 -7.025,-66.012c2.693,-40.591 15.085,-90.185 40.18,-131.842c4.177,-6.933 5.551,-16.535 5.366,-27.858c-0.312,-19.055 -5.316,-42.579 -12.223,-67.423c-17.985,-64.69 -48.539,-137.969 -49.089,-168.007c-1.413,-77.171 36.138,-105.962 65.346,-121.949c11.198,-6.129 21.138,-10.005 26.386,-14.365c27.57,-22.903 43.292,-55.23 55.164,-88.229c12.418,-34.516 20.648,-69.845 32.618,-97.089c10.509,-23.92 24.085,-41.78 44.376,-49.319c13.562,-5.039 30.305,-5.577 51.558,0.404c35.516,9.996 66.39,28.803 93.308,43.983c16.796,9.472 31.906,17.529 45.655,20.42c43.802,9.21 73.423,3.067 95.521,-1.394c16.938,-3.419 30.053,-5.521 41.57,-1.518Zm-5.252,15.114c-9.198,-3.197 -19.626,-0.642 -33.152,2.088c-23.592,4.762 -55.217,11.2 -101.979,1.367c-15.089,-3.172 -31.79,-11.746 -50.222,-22.14c-25.924,-14.619 -55.58,-32.892 -89.784,-42.518c-16.147,-4.545 -29.072,-4.857 -39.682,-1.485c-12.022,3.82 -20.828,12.386 -28.08,23.824c-8.012,12.637 -14.085,28.663 -19.859,46.331c-17.574,53.767 -32.547,121.771 -81.535,162.468c-5.784,4.804 -16.59,9.34 -28.929,16.093c-25.713,14.074 -58.275,39.684 -57.031,107.621c0.538,29.352 30.933,100.801 48.508,164.014c7.316,26.317 12.474,51.262 12.804,71.447c0.243,14.837 -2.185,27.291 -7.658,36.376c-23.721,39.378 -35.375,86.276 -37.92,124.645c-1.644,24.779 0.417,45.914 5.811,58.756c14.858,35.372 29.788,92.995 47.779,141.68c11.48,31.066 24.016,58.462 38.973,73.069c43.311,42.296 96.06,63.91 139.171,68.699c27.295,3.032 50.592,-0.498 64.331,-10.48c85.808,-62.343 179.133,-59.542 302.895,-49.644c26.81,2.144 46.272,-2.612 60.07,-12.501c20.66,-14.807 28.205,-40.654 29.867,-68.919c2.979,-50.689 -13.398,-109.305 -18.294,-135.327c-2.908,-15.456 -33.497,-65.339 19.861,-217.874c16.815,-48.069 -5.837,-96.248 -26.778,-134.825c-15.276,-28.14 -29.637,-51.741 -31.035,-67.172c-2.984,-32.921 10.554,-90.678 19.912,-141.438c5.91,-32.058 10.267,-61.158 6.556,-78.429c-2.485,-11.568 -3.403,-18.341 -3.917,-22.763c-0.977,-8.403 -0.445,-6.234 -9.729,-19.113c-46.847,-64.989 -116.64,-68.875 -130.954,-73.85Z" style="fill:#4c8a13;"/><path d="M778.566,855.416c-7.301,8.302 -35.783,52.527 -77.571,69.246c-11.812,4.726 -12.468,4.059 -15.965,2.896c-1.37,-0.456 -3.55,-1.358 -9.07,-2.266c-4.077,-0.671 -8.529,-2.767 -13.102,-6.157c-5.453,-4.043 -11.311,-10.046 -17.272,-16.777c-8.218,-9.28 -16.714,-19.998 -24.803,-28.084c-4.536,-4.534 -8.79,-8.254 -12.837,-9.817c-0.514,-0.198 -1.204,-0.066 -2.02,-0.012c-1.87,0.122 -4.046,0.506 -6.462,1.023c-8.589,1.835 -19.705,5.273 -31.021,7.386c-22.311,4.165 -44.829,2.499 -55.735,-18.205c-15.128,-28.721 -28.725,-41.397 -39.594,-46.758c-6.74,-3.324 -12.156,-3.573 -15.672,-3.619c-2.509,-0.034 -4.433,-0.095 -5.708,-0.36c-8.029,-1.671 -24.296,-3.194 -39.15,-8.548c-11.209,-4.04 -21.557,-10.248 -28.082,-19.592c-10.494,-15.027 -12.163,-39.335 13.1,-78.446c46.021,-71.25 79.669,-125.703 88.613,-188.515c1.728,-12.138 9.568,-29.743 22.158,-48.509c18.205,-27.137 46.272,-56.976 78.305,-76.211c11.794,-7.082 27.597,-9.997 44.41,-10.899c22.927,-1.231 47.807,1.215 65.096,-0.762c8.313,-0.95 19.056,2.311 29.445,10.149c13.821,10.426 27.39,28.997 33.074,54.25c0.732,3.253 3.764,4.97 7.518,6.448c5.935,2.336 13.727,3.439 22.248,4.026c19.779,1.361 43.19,-0.257 59.013,0.579c8.325,0.44 14.879,1.741 18.699,3.808c21.487,11.628 26.076,31.028 24.72,49.827c-1.148,15.934 -6.998,31.204 -7.664,38.391c-3.252,35.121 14.064,55.71 25.284,75.544c6.704,11.851 11.489,23.502 10.996,36.819c-0.485,13.11 -6.066,28.086 -21.199,46.598c-26.3,32.171 -56.38,51.683 -71.82,72.157c-18.942,25.12 -27.48,44.604 -33.888,59.116c-4.79,10.848 -8.654,19.144 -14.044,25.274Zm-89.303,56.672c1.117,-0.433 3.327,-1.296 5.788,-2.281c38.822,-15.532 64.717,-57.244 71.499,-64.957c4.485,-5.1 7.438,-12.146 11.423,-21.171c6.754,-15.295 15.786,-35.811 35.75,-62.286c15.534,-20.6 45.747,-40.282 72.208,-72.651c12.128,-14.836 17.208,-26.556 17.597,-37.063c0.381,-10.301 -3.747,-19.182 -8.933,-28.349c-12.56,-22.203 -30.931,-45.583 -27.29,-84.898c0.66,-7.127 6.498,-22.264 7.638,-38.066c0.933,-12.939 -1.588,-26.601 -16.377,-34.604c-1.289,-0.698 -3.201,-1.027 -5.523,-1.341c-4.949,-0.67 -11.323,-0.813 -18.441,-0.805c-19.283,0.024 -43.605,1.154 -61.466,-2.009c-16.346,-2.896 -27.52,-10.056 -30.043,-21.265c-4.698,-20.874 -15.674,-36.371 -27.099,-44.99c-6.444,-4.86 -12.837,-7.615 -17.992,-7.025c-14.737,1.685 -34.865,0.297 -54.735,0.501c-18.038,0.185 -35.909,1.508 -48.352,8.98c-29.991,18.008 -56.212,46.002 -73.255,71.408c-10.91,16.262 -18.107,31.332 -19.605,41.85c-9.238,64.874 -43.481,121.352 -91.013,194.941c-19.717,30.525 -21.613,48.876 -13.422,60.604c4.681,6.704 12.348,10.803 20.39,13.701c14.021,5.054 29.405,6.358 36.984,7.935c3.376,0.703 12.467,-0.985 25.198,5.295c12.615,6.222 29.114,20.317 46.672,53.65c4.08,7.745 10.996,10.681 18.777,11.398c6.293,0.579 13.117,-0.205 19.865,-1.465c13.196,-2.463 26.121,-6.727 35.08,-8.147c5.576,-0.884 10.084,-0.62 13.124,0.554c11.004,4.249 24.271,19.368 36.962,34.25c6.714,7.872 13.333,15.571 19.526,20.766c3.015,2.529 5.728,4.523 8.359,4.956c5.257,0.865 9.108,2.047 10.706,2.584Z" style="fill:#4c8a13;"/><path d="M954.102,946.473c0,-0 -11.784,-81.359 -35.795,-71.122c-2.762,1.178 22.235,113.838 34.33,132.096c8.96,13.526 1.465,-60.974 1.465,-60.974Z" style="fill:#4c8a13;"/><path d="M962.062,945.672c-0,0 4.762,49.688 1.981,62.344c-0.264,1.204 -0.592,2.215 -0.937,3.026l-1.415,2.451l-1.85,1.83l-1.918,1.092l-3.01,0.666l-2.893,-0.359l-1.691,-0.688l-1.803,-1.218l-2.559,-2.951c-3.495,-5.276 -8.166,-17.854 -12.818,-33.524c-10.286,-34.648 -21.307,-84.93 -22.829,-98.614c-0.376,-3.373 -0.07,-5.6 0.193,-6.475l0.754,-1.769l1.249,-1.667l2.654,-1.824c10.746,-4.582 20.917,1.179 28.398,14.228c12.258,21.381 18.452,63.106 18.452,63.106c0.016,0.115 0.03,0.23 0.042,0.346Zm-34.449,-58.765c3.516,19.551 12.391,58.214 20.746,86.446c-0.831,-12.611 -2.029,-24.282 -2.197,-25.891l-0.001,-0.005c-0.393,-2.707 -5.756,-38.585 -16.474,-57.279c-0.674,-1.176 -1.361,-2.276 -2.074,-3.271Z" style="fill:#4c8a13;"/><path d="M497.125,1109.56c0,0 77.539,27.311 79.612,1.292c0.238,-2.994 -111.159,-33.124 -132.945,-30.882c-16.139,1.661 53.333,29.59 53.333,29.59Z" style="fill:#4c8a13;"/><path d="M494.141,1116.98c0,-0 -46.225,-18.837 -56.146,-27.173c-0.943,-0.792 -1.687,-1.551 -2.245,-2.234l-1.515,-2.391l-0.762,-2.487l-0.078,-2.206l0.807,-2.976l1.66,-2.395l1.394,-1.179l1.915,-1.032l3.802,-0.898c6.296,-0.648 19.605,1.05 35.644,4.2c35.466,6.966 85.121,20.533 97.949,25.534c3.162,1.232 4.993,2.536 5.646,3.175l1.217,1.489l0.897,1.88l0.385,3.197c-0.927,11.645 -10.75,17.982 -25.78,18.555c-24.628,0.937 -64.463,-12.936 -64.463,-12.936c-0.11,-0.039 -0.219,-0.08 -0.327,-0.123Zm-18.162,-24.983c11.556,5.116 22.452,9.47 23.954,10.067l0.005,0.002c2.58,0.908 36.851,12.804 58.384,11.984c1.354,-0.051 2.648,-0.15 3.859,-0.32c-18.95,-5.957 -57.317,-16.034 -86.202,-21.733Z" style="fill:#4c8a13;"/><path d="M798.818,204.042c0,0 -13.372,3.144 19.995,34.494c3.839,3.607 11.569,-11.554 2.825,-24.027c-6.478,-9.24 -22.82,-10.467 -22.82,-10.467Z" style="fill:#4c8a13;"/><path d="M794.306,197.445c-5.01,3.905 3.649,13.648 4.453,14.533l0.062,-0.005l0.596,-15.908c0,-0 7.001,0.508 14.263,3.301c5.5,2.117 11.007,5.556 14.509,10.551c8.646,12.334 5.246,26.554 0.953,32.212l-1.56,1.76l-2.091,1.622l-1.841,0.906l-2.281,0.576l-2.173,0.043l-2.219,-0.471l-2.008,-0.945l-1.634,-1.254c-18.952,-17.806 -23.971,-28.103 -24.911,-33.447c-0.162,-0.923 -0.237,-1.769 -0.251,-2.544l0.181,-2.526l0.646,-2.411l1.065,-2.139l1.62,-2.028l1.694,-1.398l0.927,-0.428Zm12.976,16.612c0.25,0.383 0.514,0.766 0.788,1.142c2.118,2.898 5.046,6.338 9.016,10.438c-0.119,-2.212 -0.638,-4.594 -1.999,-6.536c-1.681,-2.398 -4.511,-3.785 -7.153,-4.802c-0.218,-0.084 -0.435,-0.164 -0.652,-0.242Zm-12.976,-16.612c0.609,-0.474 1.418,-0.862 2.468,-1.137l-2.468,1.137Z" style="fill:#4c8a13;"/><path d="M488.818,164.042c0,0 -13.372,3.144 19.995,34.494c3.839,3.607 11.569,-11.554 2.825,-24.027c-6.478,-9.24 -22.82,-10.467 -22.82,-10.467Z" style="fill:#4c8a13;"/><path d="M484.306,157.445c-5.01,3.905 3.649,13.648 4.453,14.533l0.062,-0.005l0.596,-15.908c0,-0 7.001,0.508 14.263,3.301c5.5,2.117 11.007,5.556 14.509,10.551c8.646,12.334 5.246,26.554 0.953,32.212l-1.56,1.76l-2.091,1.622l-1.841,0.906l-2.281,0.576l-2.173,0.043l-2.219,-0.471l-2.008,-0.945l-1.634,-1.254c-18.952,-17.806 -23.971,-28.103 -24.911,-33.447c-0.162,-0.923 -0.237,-1.769 -0.251,-2.544l0.181,-2.526l0.646,-2.411l1.065,-2.139l1.62,-2.028l1.694,-1.398l0.927,-0.428Zm12.976,16.612c0.25,0.383 0.514,0.766 0.788,1.142c2.118,2.898 5.046,6.338 9.016,10.438c-0.119,-2.212 -0.638,-4.594 -1.999,-6.536c-1.681,-2.398 -4.511,-3.785 -7.153,-4.802c-0.218,-0.084 -0.435,-0.164 -0.652,-0.242Zm-12.976,-16.612c0.609,-0.474 1.418,-0.862 2.468,-1.137l-2.468,1.137Z" style="fill:#4c8a13;"/><path d="M428.818,394.042c0,0 -13.372,3.144 19.995,34.494c3.839,3.607 11.569,-11.554 2.825,-24.027c-6.478,-9.24 -22.82,-10.467 -22.82,-10.467Z" style="fill:#4c8a13;"/><path d="M424.306,387.445c-5.01,3.905 3.649,13.648 4.453,14.533l0.062,-0.005l0.596,-15.908c0,-0 7.001,0.508 14.263,3.301c5.5,2.117 11.007,5.556 14.509,10.551c8.646,12.334 5.246,26.554 0.953,32.212l-1.56,1.76l-2.091,1.622l-1.841,0.906l-2.281,0.576l-2.173,0.043l-2.219,-0.471l-2.008,-0.945l-1.634,-1.254c-18.952,-17.806 -23.971,-28.103 -24.911,-33.447c-0.162,-0.923 -0.237,-1.769 -0.251,-2.544l0.181,-2.526l0.646,-2.411l1.065,-2.139l1.62,-2.028l1.694,-1.398l0.927,-0.428Zm12.976,16.612c0.25,0.383 0.514,0.766 0.788,1.142c2.118,2.898 5.046,6.338 9.016,10.438c-0.119,-2.212 -0.638,-4.594 -1.999,-6.536c-1.681,-2.398 -4.511,-3.785 -7.153,-4.802c-0.218,-0.084 -0.435,-0.164 -0.652,-0.242Zm-12.976,-16.612c0.609,-0.474 1.418,-0.862 2.468,-1.137l-2.468,1.137Z" style="fill:#4c8a13;"/><path d="M778.818,1004.04c0,0 -13.372,3.144 19.995,34.494c3.839,3.607 11.569,-11.554 2.825,-24.027c-6.478,-9.24 -22.82,-10.467 -22.82,-10.467Z" style="fill:#4c8a13;"/><path d="M774.306,997.445c-5.01,3.905 3.649,13.648 4.453,14.533l0.062,-0.005l0.596,-15.908c0,-0 7.001,0.508 14.263,3.301c5.5,2.117 11.007,5.556 14.509,10.551c8.646,12.334 5.246,26.554 0.953,32.212l-1.56,1.76l-2.091,1.622l-1.841,0.906l-2.281,0.576l-2.173,0.043l-2.219,-0.471l-2.008,-0.945l-1.634,-1.254c-18.952,-17.806 -23.971,-28.103 -24.911,-33.447c-0.162,-0.923 -0.237,-1.769 -0.251,-2.544l0.181,-2.526l0.646,-2.411l1.065,-2.139l1.62,-2.028l1.694,-1.398l0.927,-0.428Zm12.976,16.612c0.25,0.383 0.514,0.766 0.788,1.142c2.118,2.898 5.046,6.338 9.016,10.438c-0.119,-2.212 -0.638,-4.594 -1.999,-6.536c-1.681,-2.398 -4.511,-3.785 -7.153,-4.802c-0.218,-0.084 -0.435,-0.164 -0.652,-0.242Zm-12.976,-16.612c0.609,-0.474 1.418,-0.862 2.468,-1.137l-2.468,1.137Z" style="fill:#4c8a13;"/></svg>