<?xml version="1.0" encoding="UTF-8" standalone="no"?><!DOCTYPE svg PUBLIC "-//W3C//DTD SVG 1.1//EN" "http://www.w3.org/Graphics/SVG/1.1/DTD/svg11.dtd"><svg width="100%" height="100%" viewBox="0 0 1182 1182" version="1.1" xmlns="http://www.w3.org/2000/svg" xmlns:xlink="http://www.w3.org/1999/xlink" xml:space="preserve" xmlns:serif="http://www.serif.com/" style="fill-rule:evenodd;clip-rule:evenodd;stroke-linejoin:round;stroke-miterlimit:2;"><path d="M555.566,1058.94c0.014,-0.01 0.026,-0.02 0.036,-0.029l-0.036,0.029c-0.633,0.472 -5.228,2.428 -16.44,9.426c-57.43,35.84 -133.863,13.45 -149.945,-39.2c-20.317,-66.515 -11.099,-117.562 0,-163.19c33.554,-137.937 -22.924,-311.295 -51.647,-453.771c-31.246,-154.999 -32.277,-203.653 0,-235.931c70.649,-70.648 155.561,-26.736 201.592,-26.736c0,0 50.778,7.412 63.614,8.108c212.705,11.534 260.617,179.766 260.617,290.682c0,70.899 -17.183,104.281 -43.221,132.236c-26.038,27.955 -58.683,53.698 -93.007,55.496c-14.901,0.78 -104.389,9.977 -133.464,63.312c-43.394,79.6 12.242,230.386 9.075,292.102c-1.425,27.775 -24.916,52.906 -48.074,68.193l0.9,-0.727Zm-78.264,-768.382c0.222,7.67 -7.4,27.652 1.028,50.381c4.062,10.954 2.374,76.692 7.563,101.09c17.728,83.353 -25.019,111.118 35.393,111.272c39.87,0.102 52.599,-13.76 79.82,-16.092c22.933,-1.964 99.485,6.374 128.374,-75.682c50.472,-143.364 -17.144,-113.913 -43.163,-171.117c-32.846,-72.213 -100.932,-34.036 -131.596,-31.003c-16.131,1.595 -78.08,8.311 -77.419,31.151Z" style="fill:#77b83b;"/><path d="M539.126,157.537l1.156,-15.916c-0,0 50.2,7.347 62.892,8.035c87.58,4.75 147.936,35.512 188.934,77.778c61.312,63.207 79.249,152.596 79.249,220.893c0,73.88 -18.234,108.558 -45.367,137.688c-27.473,29.496 -62.227,56.136 -98.443,58.033c-8.63,0.452 -43.18,3.833 -75.502,17.583c-20.679,8.797 -40.581,21.805 -51.355,41.569c-20.984,38.491 -17.479,94.231 -9.656,147.772c8.178,55.975 21.297,109.71 19.696,140.911c-1.548,30.168 -26.503,57.856 -51.657,74.459c-0.905,0.598 -1.89,0.988 -2.896,1.182c-2.796,1.563 -6.951,3.968 -12.815,7.627c-36.91,23.035 -81.154,23.54 -114.359,8.137c-22.782,-10.568 -40.382,-28.571 -47.473,-51.786c-20.843,-68.238 -11.509,-120.608 -0.122,-167.418c33.301,-136.898 -23.21,-308.897 -51.716,-450.299c-15.77,-78.229 -23.849,-129.63 -23.979,-165.538c-0.139,-38.453 8.719,-60.185 26.165,-77.631c44.61,-44.61 94.54,-46.106 137.877,-39.935c27.019,3.848 51.249,10.856 69.371,10.856l0,16Zm12.14,894.65c0.328,-0.213 0.667,-0.398 1.014,-0.557c20.523,-14.05 41.21,-35.99 42.471,-60.567c1.887,-36.783 -17.386,-105.399 -23.689,-171.5c-4.395,-46.084 -2.452,-90.946 15.579,-124.022c12.486,-22.904 35.176,-38.439 59.141,-48.633c34.644,-14.738 71.678,-18.354 80.929,-18.838c32.433,-1.699 62.968,-26.544 87.571,-52.96c24.944,-26.78 41.075,-58.865 41.075,-126.783c0,-64.802 -16.559,-149.78 -74.733,-209.753c-38.659,-39.854 -95.734,-68.463 -178.317,-72.941c-12.183,-0.661 -58.164,-7.286 -63.774,-8.098c-18.638,-0.146 -43.441,-7.084 -71.034,-11.013c-39.022,-5.558 -84.139,-4.76 -124.308,35.408c-14.833,14.833 -21.597,33.565 -21.478,66.259c0.127,35.239 8.187,85.663 23.664,162.434c28.938,143.55 85.384,318.266 51.577,457.243c-10.811,44.446 -19.912,94.17 -0.122,158.962c5.775,18.905 20.352,33.339 38.904,41.945c28.794,13.357 67.149,12.779 99.155,-7.195c9.681,-6.042 15.53,-8.975 16.375,-9.391Z" style="fill:#4c8a13;"/><path d="M469.305,290.788c-0.277,-9.569 6.307,-17.893 17.68,-23.824c19.88,-10.366 55.136,-14.351 66.949,-15.519c12.15,-1.202 30.222,-8.017 49.628,-11.132c19.454,-3.124 40.061,-2.643 58.165,8.324c12.08,7.317 23.166,19.32 31.872,38.459c7.164,15.753 17.896,24.233 27.976,32.098c11.26,8.787 21.763,17.011 28.086,30.536c9.104,19.477 9.723,50.947 -12.635,114.453c-30.559,86.799 -110.978,78.918 -135.237,80.996c-12.93,1.108 -22.396,5.042 -33.386,8.599c-12.212,3.953 -26.094,7.576 -47.138,7.522c-9.977,-0.025 -17.39,-0.813 -22.865,-2.311c-7.251,-1.983 -11.743,-5.293 -14.64,-9.502c-3.481,-5.057 -4.649,-11.909 -4.166,-21.046c0.897,-16.961 7.125,-44.075 -1.526,-84.749c-3.69,-17.353 -4.04,-55.284 -5.284,-80.302c-0.467,-9.4 -0.869,-16.743 -1.955,-19.671c-5.606,-15.118 -4.903,-29.131 -3.42,-39.766c0.811,-5.812 1.977,-10.376 1.896,-13.165Zm15.993,-0.463c0.097,3.348 -1.069,8.86 -2.042,15.838c-1.193,8.553 -1.933,19.836 2.575,31.993c1.352,3.646 2.352,12.735 2.933,24.44c1.205,24.225 1.381,60.964 4.954,77.767c9.077,42.68 2.795,71.126 1.854,88.923c-0.253,4.775 -0.452,8.486 1.367,11.129c1.078,1.566 2.986,2.403 5.683,3.141c4.47,1.223 10.538,1.724 18.684,1.744c22.734,0.058 36.173,-4.712 48.882,-8.975c9.497,-3.186 18.637,-6.094 30.235,-7.087c21.609,-1.852 94.291,6.948 121.511,-70.369c20.041,-56.925 21.393,-84.905 13.232,-102.364c-5.188,-11.098 -14.194,-17.486 -23.434,-24.696c-11.883,-9.273 -24.251,-19.517 -32.698,-38.088c-7.06,-15.523 -15.799,-25.465 -25.596,-31.399c-14.711,-8.912 -31.532,-8.749 -47.34,-6.211c-19.775,3.174 -38.209,10.032 -50.59,11.256c-9.333,0.923 -34.584,3.563 -53.144,10.333c-5.438,1.983 -10.271,4.274 -13.669,7.127c-1.933,1.623 -3.46,3.296 -3.397,5.498Z" style="fill:#4c8a13;"/><path d="M565.074,1011.64c18.917,-20.457 1.962,-71.321 -0.56,-78.217c-2.521,-6.897 -14.62,29.737 -14.569,36.836c0.094,13.036 -8.516,66.951 15.129,41.381Z" style="fill:#4c8a13;"/><path d="M570.948,1017.08c-7.402,8.004 -13.547,9.725 -17.423,9.284l-2.198,-0.464l-2.054,-0.864l-3.246,-2.528c-1.811,-1.958 -3.35,-4.935 -4.255,-8.8c-2.749,-11.733 0.232,-35.229 0.173,-43.383c-0.045,-6.417 8.639,-34.212 13.595,-41.076l1.867,-2.132l2.308,-1.602l2.567,-0.831l2.267,-0.068l2.615,0.695l2.109,1.328l1.595,1.775l1.16,2.27c1.593,4.358 8.642,25.385 9.737,46.16c0.813,15.452 -1.928,30.624 -10.817,40.236Zm-13.922,-8.779c0.717,-0.621 1.48,-1.333 2.175,-2.084c6.247,-6.755 7.158,-17.672 6.586,-28.531c-0.42,-7.965 -1.818,-15.971 -3.395,-22.838c-2.344,6.579 -4.463,13.149 -4.447,15.363c0.038,5.243 -1.317,17.063 -1.444,27.714c-0.043,3.553 0.053,6.959 0.443,9.856c0.023,0.168 0.05,0.342 0.082,0.52Z" style="fill:#4c8a13;"/><path d="M817.017,499.365c-25.688,10.792 -31.308,64.112 -31.867,71.434c-0.559,7.322 25.618,-21.018 28.51,-27.502c5.311,-11.906 35.466,-57.42 3.357,-43.932Z" style="fill:#4c8a13;"/><path d="M813.918,491.99c10.051,-4.223 16.357,-3.246 19.703,-1.24l1.809,1.332l1.513,1.637l1.907,3.645c0.839,2.533 1.007,5.88 0.232,9.772c-2.355,11.819 -14.794,31.974 -18.116,39.42c-2.614,5.861 -22.025,27.569 -29.378,31.765l-2.581,1.168l-2.764,0.503l-2.682,-0.306l-2.091,-0.876l-2.093,-1.716l-1.37,-2.081l-0.718,-2.277l-0.116,-2.546c0.354,-4.626 2.641,-26.686 10.244,-46.051c5.655,-14.402 14.431,-27.078 26.501,-32.149Zm-17.971,60.192c4.857,-5.019 9.505,-10.123 10.407,-12.144c2.136,-4.789 8.263,-14.988 12.787,-24.631c1.509,-3.216 2.832,-6.357 3.676,-9.155c0.049,-0.163 0.096,-0.333 0.14,-0.508c-0.909,0.269 -1.899,0.601 -2.842,0.997c-8.483,3.564 -13.831,13.124 -17.805,23.246c-2.915,7.425 -4.956,15.291 -6.363,22.195Z" style="fill:#4c8a13;"/><path d="M540.428,685.261c8.667,-9.855 2.914,-31.84 2.039,-34.812c-0.875,-2.972 -7.104,13.819 -7.289,16.978c-0.34,5.802 -5.584,30.151 5.25,17.834Z" style="fill:#4c8a13;"/><path d="M546.435,690.544c-2.043,2.323 -3.798,3.731 -5.17,4.544l-3.034,1.284l-2.756,0.318l-1.949,-0.256l-1.907,-0.682l-2.934,-2.224l-1.794,-2.817l-0.986,-3.453c-0.871,-5.368 1.064,-16.492 1.287,-20.298c0.161,-2.755 3.906,-14.14 6.504,-18.915l2.286,-3.256l1.508,-1.262l1.903,-0.954l2.882,-0.474l3.489,0.832l1.706,1.113l1.184,1.231l1.488,2.915c0.59,2.005 3.147,11.705 2.999,21.536c-0.117,7.799 -2.068,15.545 -6.706,20.818Z" style="fill:#4c8a13;"/><path d="M362.29,189.493c-14.071,5.58 -19.948,28.415 -20.644,31.543c-0.696,3.127 14.596,-9.916 16.47,-12.779c3.44,-5.257 21.762,-25.74 4.174,-18.764Z" style="fill:#4c8a13;"/><path d="M359.341,182.056c6.687,-2.652 10.809,-1.998 12.807,-1.124l1.735,0.985l1.589,1.441l1.211,1.757l0.736,1.819l0.356,3.675l-0.86,3.732c-1.969,5.332 -9.858,14.863 -12.106,18.297c-1.589,2.429 -11.23,11.235 -16.278,14.511c-1.445,0.938 -2.691,1.535 -3.548,1.833l-3.663,0.513l-3.289,-0.932l-2.376,-1.878l-1.238,-1.896l-0.616,-1.841l0.036,-3.649c0.469,-2.11 3.035,-12.193 8.429,-21.277c4.105,-6.914 9.853,-13.102 17.075,-15.966Z" style="fill:#4c8a13;"/><path d="M444.407,388.432c-2.083,17.062 12.664,34.779 14.733,37.095c2.068,2.316 -0.983,-19.83 -2.32,-23.197c-2.455,-6.182 -9.809,-35.225 -12.413,-13.898Z" style="fill:#4c8a13;"/><path d="M436.466,387.462c0.647,-5.293 1.797,-8.407 2.772,-10.012l2.391,-2.747l2.93,-1.563l3.022,-0.409l2.705,0.52l3.196,1.891l2.358,2.735c3.146,4.693 6.826,17.499 8.415,21.5c1.092,2.748 3.35,16.506 3.564,23.029c0.054,1.649 -0.024,2.976 -0.159,3.842l-0.947,2.97l-1.24,1.786l-1.626,1.381l-1.997,0.938l-2.327,0.373l-1.753,-0.166l-2.047,-0.71l-2.55,-1.964c-2.41,-2.698 -19.133,-23.517 -16.707,-43.394Z" style="fill:#4c8a13;"/></svg>