<?xml version="1.0" encoding="UTF-8" standalone="no"?><!DOCTYPE svg PUBLIC "-//W3C//DTD SVG 1.1//EN" "http://www.w3.org/Graphics/SVG/1.1/DTD/svg11.dtd"><svg width="100%" height="100%" viewBox="0 0 1182 1182" version="1.1" xmlns="http://www.w3.org/2000/svg" xmlns:xlink="http://www.w3.org/1999/xlink" xml:space="preserve" xmlns:serif="http://www.serif.com/" style="fill-rule:evenodd;clip-rule:evenodd;stroke-linejoin:round;stroke-miterlimit:2;"><path d="M376.291,1056.32c0.014,-0.011 0.026,-0.02 0.036,-0.03l-0.036,0.03c-0.632,0.472 -5.227,2.428 -16.44,9.425c-57.43,35.841 -173.56,13.451 -189.642,-39.199c-20.317,-66.516 15.447,-116.721 26.547,-162.349c33.554,-137.937 28.815,-309.375 0.778,-451.988c-38.752,-197.123 -21.758,-248.269 -8.618,-272.011c48.383,-87.416 135.72,-28.89 210.21,-25.578l-6.496,-0.444c17.295,0.018 57.274,2.778 70.11,3.474c212.705,11.534 321.983,140.929 340.617,290.682c6.207,49.885 -29.705,137.062 -61.221,161.236c-35.542,27.263 -21.685,94.163 -18.385,102.531c59.882,151.84 152.077,204.229 177.505,216.703c81.28,39.873 132.984,193.676 -23.195,193.676c-82.671,0 -122.695,-66.452 -135.925,-87.454c-17.091,-27.132 0,0 -91.158,-112.748c-57.534,-71.159 -116.455,-250.596 -220.18,-186.798c-120.133,73.89 -34.76,253.908 -32.81,295.346c0.274,5.822 0.561,50.935 -22.597,66.222l0.9,-0.726Zm-50.565,-780.86c0.276,9.35 -9.033,33.705 1.289,61.419c4.974,13.357 2.951,93.496 9.312,123.242c21.734,101.627 -30.531,135.448 43.355,135.673c48.764,0.149 64.324,-16.742 97.614,-19.568c28.047,-2.381 121.679,7.831 156.961,-92.185c61.641,-174.741 -21.038,-138.88 -52.896,-208.633c-40.217,-88.054 -123.466,-41.554 -160.967,-37.877c-19.728,1.935 -95.49,10.085 -94.668,37.929Z" style="fill:#77b83b;"/><path d="M392.639,106.171c17.399,0.018 57.62,2.785 70.535,3.485c217.575,11.799 329.061,144.501 348.122,297.683c3.873,31.129 -7.754,76.281 -24.971,112.804c-11.681,24.778 -25.978,45.534 -39.32,55.768c-12.504,9.591 -17.736,24.919 -19.712,40.14c-3.134,24.15 2.058,48.437 3.9,53.108c58.649,148.713 148.682,200.238 173.587,212.456c36.043,17.681 66.647,56.525 77.725,95.701c7.687,27.184 5.982,54.451 -8.633,75.432c-15.346,22.03 -45.35,37.725 -95.811,37.725c-86.617,0 -128.833,-69.185 -142.694,-91.19c-16.98,-26.957 -0.043,0.035 -90.61,-111.982c-34.377,-42.518 -69.152,-123.92 -113.863,-168.462c-16.432,-16.371 -34.142,-27.654 -54.016,-28.76c-13.05,-0.727 -26.931,3.009 -41.889,12.209c-57.078,35.107 -64.669,95.684 -58.426,152.148c6.594,59.635 28.437,115.213 29.416,136.007c0.175,3.733 0.361,22.581 -4.868,40.591c-3.798,13.084 -10.525,25.563 -21.312,32.684c-0.906,0.598 -1.891,0.988 -2.897,1.181c-2.795,1.563 -6.951,3.968 -12.815,7.628c-36.234,22.612 -94.665,23.577 -139.284,8.456c-31.066,-10.528 -55.18,-28.978 -62.245,-52.105c-10.682,-34.972 -6.724,-65.657 1.466,-93.595c7.752,-26.442 19.435,-50.277 24.958,-72.982c33.299,-136.889 28.526,-307.025 0.703,-448.554c-39.52,-201.027 -21.169,-253.216 -7.768,-277.428c26.212,-47.359 62.894,-55.352 103.195,-50.889c34.76,3.849 72.375,17.696 107.527,20.741Zm-20.648,943.391c0.192,-0.125 0.389,-0.24 0.588,-0.346c6.747,-5.279 10.634,-13.92 13.167,-22.643c4.557,-15.697 4.404,-32.125 4.25,-35.378c-0.971,-20.644 -22.789,-75.794 -29.336,-135c-6.897,-62.377 2.891,-128.753 65.947,-167.536c18.234,-11.215 35.251,-15.441 51.16,-14.556c23.566,1.312 44.934,13.989 64.42,33.401c45.084,44.915 80.348,126.864 115.012,169.738c91.749,113.478 74.505,86.205 91.706,113.513c12.598,20 50.43,83.718 129.156,83.718c43.25,0 69.529,-11.988 82.683,-30.871c11.984,-17.204 12.668,-39.641 6.365,-61.932c-9.907,-35.035 -37.144,-69.879 -69.376,-85.691c-25.952,-12.731 -120.309,-65.982 -181.424,-220.95c-2.119,-5.371 -8.487,-33.268 -4.883,-61.037c2.517,-19.393 9.911,-38.557 25.841,-50.777c11.871,-9.105 24.193,-27.849 34.585,-49.895c15.892,-33.712 27.142,-75.272 23.566,-104.005c-18.207,-146.324 -125.277,-272.412 -333.111,-283.682c-10.933,-0.593 -41.679,-2.699 -61.069,-3.301c-0.784,0.215 -1.613,0.313 -2.467,0.275c-37.412,-1.663 -78.06,-17.138 -115.42,-21.275c-34.087,-3.774 -65.265,2.678 -87.435,42.735c-12.881,23.272 -28.518,73.371 9.468,266.594c28.25,143.696 32.954,316.437 -0.855,455.422c-4.497,18.486 -12.957,37.724 -20.213,58.454c-10.237,29.243 -18.067,61.652 -6.456,99.667c5.802,18.995 26.564,32.978 52.078,41.625c40.247,13.639 92.995,13.521 125.678,-6.876c9.681,-6.042 15.53,-8.975 16.375,-9.391Z" style="fill:#4c8a13;"/><path d="M317.73,275.691c-0.327,-11.072 7.468,-20.587 20.666,-27.442c24.11,-12.523 66.887,-17.279 81.217,-18.684c14.886,-1.46 37.025,-9.762 60.799,-13.554c23.38,-3.73 48.156,-3.204 69.921,9.944c14.525,8.775 27.828,23.187 38.305,46.124c8.915,19.52 22.227,30.059 34.76,39.809c13.552,10.544 26.237,20.375 33.852,36.598c11.045,23.532 11.605,61.519 -15.449,138.212c-36.951,104.748 -134.454,95.001 -163.828,97.494c-15.967,1.356 -27.659,6.172 -41.228,10.543c-14.788,4.764 -31.6,9.132 -57.087,9.054c-11.995,-0.036 -20.91,-0.969 -27.493,-2.767c-8.358,-2.283 -13.564,-6.046 -16.906,-10.883c-4.079,-5.904 -5.361,-13.918 -4.801,-24.581c1.092,-20.767 8.698,-53.961 -1.954,-103.769c-4.512,-21.098 -4.944,-67.21 -6.476,-97.624c-0.59,-11.709 -1.152,-20.852 -2.51,-24.499c-6.746,-18.113 -5.891,-34.9 -4.115,-47.639c1.006,-7.211 2.429,-12.877 2.327,-16.336Zm15.993,-0.473c0.119,4.022 -1.305,10.638 -2.473,19.019c-1.485,10.65 -2.378,24.701 3.262,39.845c1.626,4.367 2.789,15.258 3.496,29.278c1.492,29.619 1.749,74.537 6.143,95.083c11.081,51.819 3.421,86.349 2.285,107.955c-0.33,6.293 -0.42,11.162 1.987,14.647c1.523,2.204 4.149,3.502 7.958,4.542c5.581,1.525 13.155,2.171 23.326,2.202c28.073,0.086 44.667,-5.765 60.358,-11.004c11.482,-3.835 22.53,-7.345 36.555,-8.535c26.72,-2.269 116.479,8.411 150.092,-86.875c24.727,-70.095 26.149,-104.584 16.054,-126.091c-6.478,-13.802 -17.663,-21.797 -29.192,-30.767c-14.34,-11.156 -29.29,-23.458 -39.49,-45.791c-8.828,-19.328 -19.785,-31.682 -32.025,-39.076c-18.381,-11.104 -39.381,-10.989 -59.126,-7.839c-24.142,3.851 -46.643,12.195 -61.758,13.677c-11.492,1.127 -42.581,4.366 -65.432,12.664c-6.867,2.494 -12.957,5.398 -17.247,8.987c-2.814,2.355 -4.868,4.882 -4.773,8.079Z" style="fill:#4c8a13;"/><path d="M924.276,949.838c-18.453,-26.561 -78.662,-51.25 -78.662,-51.25l101.727,111.878c-0,-0 -0,-27.427 -23.065,-60.628Z" style="fill:#4c8a13;"/><path d="M930.846,945.274c24.763,35.645 24.495,65.192 24.495,65.192c-0,3.305 -2.032,6.269 -5.115,7.461c-3.082,1.192 -6.581,0.366 -8.804,-2.079l-101.727,-111.878c-2.516,-2.767 -2.779,-6.908 -0.633,-9.972c2.145,-3.063 6.127,-4.231 9.587,-2.812c0,0 22.227,9.111 44.095,22.285c15.243,9.183 30.189,20.412 38.102,31.803Zm-13.14,9.129c-6.849,-9.859 -20.027,-19.28 -33.219,-27.227c-1.484,-0.894 -2.971,-1.769 -4.45,-2.622l52.767,58.034c-3.205,-8.301 -7.981,-17.941 -15.098,-28.185Z" style="fill:#4c8a13;"/><path d="M337.39,1035.62c26.272,-18.863 13.857,-74.669 11.903,-82.267c-1.954,-7.598 -22.545,29.213 -23.625,36.68c-1.984,13.711 -21.116,69.165 11.722,45.587Z" style="fill:#4c8a13;"/><path d="M342.056,1042.12c-6.083,4.367 -10.893,6.4 -14.469,7.015c-0.87,0.15 -1.694,0.228 -2.475,0.248l-2.567,-0.155l-2.58,-0.651l-2.425,-1.178c-3.624,-2.259 -6.273,-6.579 -6.982,-12.782c-1.456,-12.754 5.947,-37.124 7.192,-45.729c0.407,-2.812 2.952,-9.25 6.592,-16.293c5.116,-9.9 12.271,-21.14 16.446,-24.962l2.364,-1.799l2.49,-1.115l2.43,-0.389l2.025,0.179l2.346,0.843l1.981,1.432l1.553,1.971l1.064,2.607c1.239,4.82 6.439,27.995 4.418,50.07c-1.494,16.315 -7.084,31.842 -19.403,40.688Zm-15.434,-9.334c1.733,-0.751 3.742,-1.969 6.102,-3.663c8.701,-6.247 11.746,-17.627 12.801,-29.15c0.968,-10.566 0.067,-21.413 -1.145,-29.858c-2.129,3.313 -4.295,6.867 -5.824,9.826c-2.545,4.924 -4.686,9.272 -4.97,11.239c-0.978,6.752 -6.224,23.775 -7.137,36.216c-0.128,1.755 0.023,3.897 0.173,5.39Z" style="fill:#4c8a13;"/><path d="M359.955,689.238c12.114,-9.149 8.662,-33.051 8.077,-36.295c-0.584,-3.245 -10.853,13.531 -11.586,16.826c-1.346,6.049 -11.634,30.905 3.509,19.469Z" style="fill:#4c8a13;"/><path d="M364.776,695.622c-5.664,4.277 -9.852,4.816 -12.225,4.488l-3.55,-1.203l-2.825,-2.44l-1.713,-3.204l-0.668,-3.925c-0.197,-5.799 3.953,-17.312 4.842,-21.307c0.639,-2.87 7.01,-14.343 10.931,-18.996l3.061,-2.894l1.665,-0.917l1.858,-0.558l3.18,0.029l2.477,0.934l1.591,1.188l1.146,1.35l1.36,3.357c0.398,2.209 1.957,12.858 0.18,23.267c-1.39,8.134 -4.863,15.962 -11.31,20.831Z" style="fill:#4c8a13;"/><path d="M641.957,777.384c5.602,-4.416 4.936,-14.718 4.795,-16.113c-0.14,-1.394 -5.206,6.283 -5.641,7.745c-0.799,2.686 -6.157,13.887 0.846,8.368Z" style="fill:#4c8a13;"/><path d="M646.909,783.667c-1.026,0.808 -1.903,1.384 -2.628,1.789l-2.313,1.004l-2.201,0.412l-1.951,-0.081l-1.993,-0.553l-1.933,-1.106l-1.53,-1.497l-0.996,-1.57l-0.903,-3.141l0.066,-2.918c0.383,-2.754 2.406,-7.556 2.916,-9.272c0.438,-1.471 4.028,-7.566 6.19,-10.067l2.045,-1.928l2.888,-1.374l2.145,-0.262l1.916,0.251l1.726,0.656l1.567,1.06l1.976,2.55l0.816,2.847c0.11,1.092 0.47,6.371 -0.842,11.664c-1.088,4.393 -3.319,8.665 -6.961,11.536Z" style="fill:#4c8a13;"/><path d="M631.785,295.92c2.597,-2.123 2.669,-6.592 2.656,-7.195c-0.012,-0.604 -2.49,2.922 -2.731,3.575c-0.443,1.2 -3.171,6.273 0.075,3.62Z" style="fill:#4c8a13;"/><path d="M636.847,302.114l-3.298,1.993l-1.843,0.481l-1.836,0.067l-2.073,-0.422l-2.159,-1.119l-1.711,-1.668l-1.02,-1.744l-0.648,-2.523l0.189,-2.953c0.297,-1.369 1.438,-3.833 1.757,-4.696c0.302,-0.819 2.468,-4.335 3.752,-5.789l1.971,-1.743l1.914,-0.928l1.992,-0.395l1.97,0.105l1.93,0.601l1.835,1.16l1.378,1.493l0.832,1.478l0.66,3.048c0.024,1.153 -0.627,9.497 -5.592,13.554Zm-10.326,-12.192c0.332,2.466 1.628,3.921 2.752,4.866c1.798,1.511 4.287,2.573 7.621,1.463c0.113,-0.037 0.312,-0.144 0.558,-0.288c-0.673,-2.165 -1.839,-5.459 -2.866,-6.102c-1.141,-0.714 -2.531,-1.221 -4.277,-1.182c-0.59,0.013 -1.971,-0.274 -3.587,1.046c-0.061,0.051 -0.132,0.121 -0.201,0.197Z" style="fill:#4c8a13;"/><path d="M250.137,123.357c-17.991,3.906 -28.805,27.083 -30.153,30.273c-1.349,3.189 19.327,-8.388 22.063,-11.136c5.026,-5.045 30.579,-24.019 8.09,-19.137Z" style="fill:#4c8a13;"/><path d="M248.44,115.54c5.576,-1.211 9.173,-1.077 11.226,-0.564l3.38,1.472l2.271,2.117l1.613,3.263l0.308,3.129l-0.565,2.818l-1.39,2.921c-3.228,5.294 -14.306,14.17 -17.568,17.444c-2.255,2.264 -15.047,9.95 -21.518,12.612c-1.665,0.685 -3.061,1.093 -4.013,1.263l-3.383,0.029l-2.096,-0.659l-1.708,-1.06l-1.378,-1.411l-1.038,-1.781l-0.657,-3.472l0.691,-3.146c0.907,-2.144 5.623,-12.355 13.611,-21.121c5.838,-6.407 13.376,-11.936 22.214,-13.854Z" style="fill:#4c8a13;"/><path d="M291.057,363.976c-5.275,17.638 9.789,38.306 11.93,41.028c2.141,2.722 1.997,-20.974 0.914,-24.697c-1.988,-6.839 -6.249,-38.379 -12.844,-16.331Z" style="fill:#4c8a13;"/><path d="M283.393,361.683c1.635,-5.466 3.491,-8.55 4.932,-10.1l2.922,-2.248l2.951,-0.965l3.636,0.165l2.889,1.242l2.193,1.857l1.886,2.629c3.074,5.384 5.491,19.372 6.781,23.81c0.892,3.069 1.439,17.983 0.642,24.933c-0.205,1.79 -0.522,3.209 -0.834,4.124l-1.61,2.976l-1.589,1.517l-1.754,0.982l-1.901,0.525l-2.061,0.048l-3.357,-1.102l-2.42,-2.126c-1.439,-1.83 -8.099,-10.894 -11.913,-22.124c-2.787,-8.206 -3.985,-17.478 -1.393,-26.143Z" style="fill:#4c8a13;"/><path d="M770.132,448.304c10.061,-15.418 1.477,-39.51 0.196,-42.727c-1.281,-3.218 -7.863,19.546 -7.881,23.424c-0.032,7.121 -4.891,38.575 7.685,19.303Z" style="fill:#4c8a13;"/><path d="M776.832,452.676c-3.118,4.778 -5.773,7.209 -7.594,8.287l-3.44,1.327l-3.103,0.088l-3.44,-1.19l-2.418,-2.01l-1.577,-2.403l-1.062,-3.055c-1.421,-6.035 0.228,-20.135 0.249,-24.756c0.015,-3.196 3.72,-17.652 6.456,-24.092c0.704,-1.658 1.41,-2.928 1.969,-3.717l2.388,-2.398l1.954,-1.004l1.96,-0.444l1.972,0.036l1.99,0.538l2.907,2.009l1.718,2.726c0.861,2.162 4.676,12.742 5.149,24.593c0.346,8.66 -1.136,17.891 -6.078,25.465Z" style="fill:#4c8a13;"/></svg>