<?xml version="1.0" encoding="UTF-8" standalone="no"?><!DOCTYPE svg PUBLIC "-//W3C//DTD SVG 1.1//EN" "http://www.w3.org/Graphics/SVG/1.1/DTD/svg11.dtd"><svg width="100%" height="100%" viewBox="0 0 1182 1182" version="1.1" xmlns="http://www.w3.org/2000/svg" xmlns:xlink="http://www.w3.org/1999/xlink" xml:space="preserve" xmlns:serif="http://www.serif.com/" style="fill-rule:evenodd;clip-rule:evenodd;stroke-linejoin:round;stroke-miterlimit:2;"><path d="M767.256,191.616c13.463,50.639 -40.898,10.718 13.463,86.88c36.182,50.691 158.148,60.167 182.025,20.518c42.747,-70.985 30.073,-66.535 13.861,-118.911c-13.44,-43.42 -42.205,-85.782 -55.83,-102.807c-52.409,-65.487 -387.87,-98.948 -558.72,22.018c-122.351,86.629 -163.922,268.385 -95.624,445.569c65.621,170.241 274.789,95.803 420.18,104.962c49.376,3.11 131.68,38.295 131.68,147.904c0,69.515 -34.972,97.251 -66.488,121.46c-70.396,54.076 -182.75,45.154 -285.1,24.528c-104.762,-21.112 0.586,-64.685 -45.956,-126.047c-55.399,-73.041 -118.066,-91.297 -206.518,-14.304c-28.566,24.865 -60.983,59.116 -10.006,148.53c41.439,72.684 204.472,166.233 301.525,166.985c147.757,1.144 288.388,-25.369 371.508,-79.469c112.605,-73.291 148.51,-325.646 55.895,-474.549c-20.82,-33.473 -19.109,-60.738 -55.895,-78.144c-37.958,-17.96 -107.407,27.417 -162.599,29.786c-301.714,12.951 -347.527,-147.919 -331.65,-204.27c58.874,-208.955 363.436,-198.926 384.249,-120.639Z" style="fill:#77b83b;"/><path d="M759.525,193.671c-2.074,-7.8 -7.742,-14.631 -15.842,-20.583c-13.812,-10.149 -34.417,-17.5 -58.784,-21.539c-97.306,-16.126 -254.245,21.098 -294.192,162.876c-4.417,15.678 -3.433,40.054 7.311,66.211c26.333,64.11 110.547,136.728 316.295,127.896c32.555,-1.397 70.109,-18.194 103.041,-27.451c24.485,-6.883 46.677,-9.45 63.324,-1.573c20.388,9.647 30.12,22.015 37.628,36.62c6.685,13.005 11.363,28.01 21.638,44.53c56.65,91.078 66.339,220.098 40.065,324.901c-17.73,70.726 -51.908,130.325 -98.389,160.578c-84.126,54.755 -226.389,81.921 -375.934,80.763c-49.595,-0.384 -116.121,-24.256 -175.469,-57.539c-59.523,-33.382 -111.706,-76.231 -132.943,-113.482c-26.946,-47.262 -31.275,-80.089 -25.67,-104.242c5.731,-24.691 21.937,-40.849 37.372,-54.285c46.502,-40.478 86.488,-55.298 121.868,-51.019c35.536,4.298 67.023,27.952 96.277,66.522c20.81,27.437 14.869,51.652 7.246,72.392c-2.473,6.728 -5.121,13.021 -6.721,18.878c-1.201,4.396 -1.904,8.447 -0.676,12.166c1.179,3.574 4.224,6.553 9.44,9.455c6.969,3.876 17.235,7.199 31.873,10.149c100.005,20.153 209.864,29.807 278.647,-23.03c29.908,-22.974 63.361,-49.149 63.361,-115.116c0,-103.549 -77.537,-136.982 -124.183,-139.92c-72.661,-4.577 -161.258,11.745 -239.888,7.931c-81.893,-3.971 -153.099,-29.391 -187.254,-118c-69.765,-180.992 -26.515,-366.485 98.466,-454.975c121.253,-85.851 324.228,-95.351 453.36,-70.329c57.05,11.054 99.796,29.308 116.229,49.842c13.973,17.458 43.444,60.914 57.226,105.44c8.47,27.363 15.692,39.975 15.537,54.925c-0.157,15.13 -7.585,32.946 -30.187,70.478c-4.559,7.57 -11.996,13.777 -21.648,18.384c-13.008,6.208 -30.232,9.577 -48.995,9.992c-46.336,1.026 -101.758,-16.167 -124.746,-48.374c-14.26,-19.978 -21.276,-32.411 -24.171,-40.552c-4.292,-12.072 -1.396,-17.794 2.581,-22.36c1.407,-1.615 3.126,-3.046 4.858,-4.649c1.333,-1.234 2.751,-2.632 3.45,-5.034c1.055,-3.621 0.748,-8.791 -1.401,-16.877Zm15.462,-4.111c5.093,19.157 1.496,27.968 -2.794,33.605c-1.602,2.103 -3.409,3.784 -5.168,5.35c-1.103,0.983 -2.365,1.678 -2.881,3.016c-0.744,1.929 0.262,4.47 2.368,9.136c3.329,7.374 9.741,17.802 20.719,33.181c20.43,28.624 70.188,42.584 111.369,41.673c16.242,-0.36 31.196,-3.061 42.457,-8.436c6.527,-3.115 11.751,-7.079 14.833,-12.198c20.147,-33.455 27.755,-48.903 27.894,-62.39c0.142,-13.666 -7.079,-25.015 -14.822,-50.029c-13.097,-42.313 -41.155,-83.582 -54.433,-100.173c-5.705,-7.129 -15.208,-13.7 -27.607,-19.801c-19.99,-9.835 -47.24,-18.143 -79.174,-24.331c-125.6,-24.336 -323.134,-15.822 -441.07,67.68c-119.723,84.767 -159.612,262.786 -92.782,436.163c31.466,81.633 97.653,104.114 173.099,107.773c78.706,3.817 167.389,-12.5 240.119,-7.919c52.106,3.283 139.177,40.22 139.177,155.889c0,73.062 -36.49,102.36 -69.614,127.805c-72.011,55.315 -186.859,47.124 -291.555,26.026c-16.79,-3.384 -28.497,-7.406 -36.49,-11.852c-9.75,-5.424 -14.652,-11.744 -16.856,-18.423c-2.756,-8.349 -1.062,-17.779 2.566,-28.141c6.712,-19.171 21.072,-42.899 0.031,-70.64c-26.145,-34.471 -53.69,-56.465 -85.451,-60.307c-31.917,-3.86 -67.49,10.687 -109.441,47.203c-13.131,11.43 -27.416,24.829 -32.291,45.834c-5,21.543 -0.05,50.546 23.983,92.7c20.201,35.433 70.254,75.699 126.87,107.451c56.792,31.85 120.309,55.128 167.767,55.496c145.968,1.13 284.968,-24.729 367.082,-78.174c43.603,-28.379 74.965,-84.713 91.598,-151.059c25.271,-100.805 16.357,-224.955 -38.132,-312.56c-8.545,-13.737 -13.424,-26.439 -18.578,-37.898c-6.791,-15.096 -14.057,-27.829 -33.946,-37.239c-13.721,-6.493 -31.968,-3.16 -52.15,2.513c-34.066,9.576 -73.008,26.588 -106.684,28.033c-216.656,9.301 -304.053,-70.293 -331.782,-137.802c-12.426,-30.25 -13.02,-58.498 -7.911,-76.629c42.478,-150.761 208.736,-191.469 312.208,-174.321c27.261,4.517 50.19,13.075 65.642,24.43c11.411,8.385 18.909,18.376 21.83,29.365Z" style="fill:#4c8a13;"/><path d="M866.882,944.694c0,0 40.008,-59.07 0.933,-73.158c-4.496,-1.621 -48.306,87.502 -44.666,108.735c2.697,15.731 43.733,-35.577 43.733,-35.577Z" style="fill:#4c8a13;"/><path d="M873.13,949.691c-0,-0 -13.231,16.531 -25.357,28.244c-5.914,5.712 -11.725,10.25 -15.895,12.033c-1.001,0.427 -1.951,0.738 -2.835,0.945l-2.24,0.333l-2.157,-0.065l-2.369,-0.572l-2.338,-1.211l-1.96,-1.762l-1.593,-2.434l-1.122,-3.579c-1.003,-5.855 0.738,-16.27 4.637,-28.592c8.092,-25.574 24.719,-60.704 34.306,-76.919c3.529,-5.968 6.64,-9.71 8.22,-10.844l2.046,-1.13l2.379,-0.583l1.739,0.008l1.937,0.447c20.053,7.23 24.382,23.425 21.746,40.579c-3.323,21.625 -18.768,44.591 -18.768,44.591c-0.119,0.175 -0.244,0.346 -0.376,0.511Zm-41.626,21.31c0.964,-0.756 1.928,-1.556 2.796,-2.352c11.176,-10.255 24.33,-26.461 26.128,-28.694l0.009,-0.012c1.591,-2.392 13.375,-20.557 16.023,-37.784c1.216,-7.915 0.324,-15.744 -6.326,-20.51c-6.022,11.06 -23.775,44.388 -32.258,68.154c-2.886,8.086 -5.279,15.464 -6.372,21.198Z" style="fill:#4c8a13;"/><path d="M335.36,597.699c0,0 57.468,54.63 61.168,8.174c0.425,-5.345 -82.873,-67.516 -99.821,-65.103c-12.556,1.788 38.653,56.929 38.653,56.929Z" style="fill:#4c8a13;"/><path d="M329.498,603.143c0,0 -33.948,-36.869 -40.903,-52.516c-0.965,-2.173 -1.524,-4.103 -1.741,-5.683l-0.08,-2.903l0.467,-2.317l1.26,-2.586l2.117,-2.243l2.531,-1.418l2.43,-0.627c2.012,-0.286 4.602,-0.158 7.656,0.585c4.797,1.167 11.367,4.007 18.855,8.034c22.942,12.338 55.594,36.011 71.056,49.278c5.236,4.492 8.667,8.118 9.833,9.994l1.319,3.097l0.204,2.67c-1.03,12.937 -5.91,19.832 -11.691,23.244c-5.931,3.5 -13.646,3.627 -21.909,0.913c-18.681,-6.136 -41.053,-27.167 -41.053,-27.167c-0.121,-0.115 -0.238,-0.233 -0.351,-0.355Zm-21.418,-50.85c10.663,15.586 30.933,37.577 32.975,39.782l0.009,0.009c2.026,1.918 19.752,18.427 34.831,23.38c3.315,1.089 6.404,1.913 8.785,0.508c2.1,-1.239 3.069,-3.898 3.596,-8.001c-9.456,-9.712 -44.768,-36.091 -70.216,-50.453c-3.569,-2.015 -6.931,-3.79 -9.98,-5.225Z" style="fill:#4c8a13;"/><path d="M260.968,797.269c-0,-0 -35.834,9.743 10.325,67.165c5.311,6.607 40.751,-26.852 33.354,-50.778c-5.481,-17.726 -43.679,-16.387 -43.679,-16.387Z" style="fill:#4c8a13;"/><path d="M260.688,789.274c-0,-0 15.052,-0.512 28.392,3.258c10.896,3.079 20.269,9.25 23.21,18.761c2.942,9.517 0.828,20.305 -4.163,30.229c-6.873,13.665 -19.043,25.505 -26.954,29.578c-3.31,1.704 -6.274,2.282 -8.489,2.164l-3.943,-0.952l-1.992,-1.205l-1.691,-1.661c-25.99,-32.331 -27.421,-51.821 -23.831,-62.646c4.599,-13.864 17.642,-17.251 17.642,-17.251c0.593,-0.161 1.204,-0.254 1.819,-0.275Zm14.171,66.765c1.922,-1.258 4.816,-3.292 6.979,-5.428c5.599,-5.526 11.361,-13.313 14.189,-21.406c1.561,-4.467 2.265,-9.019 0.977,-13.186c-0.567,-1.834 -1.938,-3.172 -3.565,-4.301c-2.463,-1.709 -5.531,-2.891 -8.71,-3.789c-9.021,-2.549 -18.991,-2.711 -22.325,-2.686l-0.002,0.001c-3.486,1.546 -18.354,10.964 12.457,50.795Z" style="fill:#4c8a13;"/><path d="M842.103,567.269c0,-0 -35.834,9.743 10.326,67.165c5.311,6.607 40.751,-26.852 33.353,-50.778c-5.48,-17.726 -43.679,-16.387 -43.679,-16.387Z" style="fill:#4c8a13;"/><path d="M841.823,559.274c0,-0 15.053,-0.512 28.392,3.258c10.896,3.079 20.27,9.25 23.21,18.761c2.943,9.517 0.828,20.305 -4.163,30.229c-6.872,13.665 -19.042,25.505 -26.953,29.578c-3.311,1.704 -6.275,2.282 -8.489,2.164l-3.944,-0.952l-1.992,-1.205l-1.691,-1.661c-25.989,-32.331 -27.421,-51.821 -23.83,-62.646c4.598,-13.864 17.642,-17.251 17.642,-17.251c0.593,-0.161 1.204,-0.254 1.818,-0.275Zm14.172,66.765c1.921,-1.258 4.816,-3.292 6.979,-5.428c5.599,-5.526 11.361,-13.313 14.189,-21.406c1.561,-4.467 2.265,-9.019 0.976,-13.186c-0.567,-1.834 -1.937,-3.172 -3.564,-4.301c-2.463,-1.709 -5.531,-2.891 -8.711,-3.789c-9.02,-2.549 -18.99,-2.711 -22.324,-2.686l-0.002,0.001c-3.486,1.546 -18.354,10.964 12.457,50.795Z" style="fill:#4c8a13;"/><path d="M923.426,273.032c-0,-0 63.309,-37.377 38.058,-49.497c-1.28,-0.615 -17.88,10.207 -36.716,23.755c-23.904,17.194 -51.408,38.78 -55.77,46.959c-5.779,10.834 54.428,-21.217 54.428,-21.217Z" style="fill:#4c8a13;"/><path d="M927.185,280.094c-0,-0 -40.129,21.169 -53.076,23.932c-1.341,0.286 -2.508,0.426 -3.467,0.453l-3.068,-0.298l-2.736,-1.127l-1.995,-1.664l-1.654,-2.723l-0.575,-2.838l0.279,-2.668l1.046,-2.677c1.556,-2.916 5.437,-7.4 11.085,-12.614c11.272,-10.404 30.064,-24.84 47.073,-37.074c17.779,-12.789 33.762,-23.102 37.739,-24.599l3.259,-0.683l1.961,0.17l1.89,0.639c5.423,2.603 8.27,6.152 9.597,9.863c1.832,5.119 0.754,11.368 -3.458,17.778c-10.631,16.179 -43.592,35.957 -43.592,35.957c-0.102,0.06 -0.204,0.117 -0.308,0.173Zm-27.253,-4.059c9.844,-4.825 18.32,-9.313 19.575,-9.98l0.012,-0.007c1.995,-1.186 22.151,-13.295 33.691,-25.379c1.99,-2.084 3.708,-4.145 4.917,-6.145c-6.519,4.136 -17.995,11.569 -28.687,19.261c-9.858,7.09 -20.342,14.935 -29.508,22.25Z" style="fill:#4c8a13;"/><path d="M429.637,162.65c0,-0 23.707,-3.115 7.602,-32.173c-1.853,-3.343 -30.213,10.996 -30.669,22.612c-0.338,8.605 23.067,9.561 23.067,9.561Z" style="fill:#4c8a13;"/><path d="M429.311,170.643c-0,0 -13.422,-0.685 -21.357,-4.476c-3.17,-1.515 -5.635,-3.54 -7.171,-5.792l-1.682,-3.494l-0.525,-4.106c0.172,-4.375 2.445,-9.205 6.481,-13.63c6.995,-7.667 19.434,-14.511 26.143,-16.412c1.501,-0.426 2.816,-0.649 3.877,-0.72l3.623,0.321l3.396,1.716l2.14,2.549c8.357,15.078 7.43,24.937 4.534,31.14c-5.127,10.982 -18.091,12.843 -18.091,12.843c-0.453,0.059 -0.911,0.08 -1.368,0.061Zm-13.941,-18.852c1.271,0.521 3.072,1.208 4.373,1.503c3.926,0.888 7.874,1.217 9.476,1.321l0.003,-0.001c1.212,-0.255 3.858,-1.091 5.05,-3.643c1.237,-2.65 0.844,-6.339 -1.586,-11.776c-0.07,0.029 -0.139,0.059 -0.206,0.088c-3.71,1.633 -8.27,4.291 -12.071,7.37c-1.859,1.506 -3.539,3.099 -4.743,4.744c-0.099,0.134 -0.199,0.266 -0.296,0.394Z" style="fill:#4c8a13;"/></svg>