<?xml version="1.0" encoding="UTF-8" standalone="no"?><!DOCTYPE svg PUBLIC "-//W3C//DTD SVG 1.1//EN" "http://www.w3.org/Graphics/SVG/1.1/DTD/svg11.dtd"><svg width="100%" height="100%" viewBox="0 0 1182 1182" version="1.1" xmlns="http://www.w3.org/2000/svg" xmlns:xlink="http://www.w3.org/1999/xlink" xml:space="preserve" xmlns:serif="http://www.serif.com/" style="fill-rule:evenodd;clip-rule:evenodd;stroke-linejoin:round;stroke-miterlimit:2;"><path d="M524.337,254.051c11.651,59.313 55.355,529.346 -7.77,668.107c-14.672,32.252 -33.045,134.99 -0,207.345c31.863,69.768 83.186,30.525 126.593,30.525c138.814,-0 80.93,-102.003 56.209,-413.5c-3.836,-48.345 -9.821,-192.022 -5.873,-292.94c4.405,-112.599 5.716,-86.858 11.36,-172.619c2.109,-32.053 61.797,-43.9 93.782,-42.026c19.339,1.134 82.17,16.784 142.652,8.36c60.017,-8.36 109.149,33.666 132.525,33.666c109.623,-0 105.147,-203.229 18.613,-218.107c-63.145,-10.856 -366.125,96.3 -398.932,40.635c0,-0 -90.323,-125.578 -135.426,-49.05c-32.807,55.665 -406.948,-45.175 -470.093,-34.318c-86.534,14.878 -91.01,218.106 18.613,218.106c23.376,-0 72.508,-42.025 132.525,-33.666c60.482,8.424 123.313,-7.226 142.652,-8.359c31.985,-1.875 140.461,25.788 142.57,57.841" style="fill:#77b83b;"/><path d="M516.49,255.608c-0.001,-0.005 -0.002,-0.01 -0.003,-0.015c-0.066,-0.336 -0.11,-0.676 -0.133,-1.017c0,-0.003 -0,-0.005 -0,-0.008c-0.209,-3.12 -2.299,-5.991 -5.21,-8.928c-4.025,-4.06 -9.678,-7.905 -16.336,-11.559c-33.364,-18.314 -91.003,-31.149 -112.573,-29.885c-19.551,1.146 -83.079,16.813 -144.223,8.297c-34.329,-4.782 -64.865,7.999 -88.66,18.772c-17.968,8.135 -32.666,14.97 -42.762,14.97c-59.376,-0 -88.947,-54.153 -90.861,-111.206c-1.121,-33.401 7.261,-67.465 23.887,-91.106c11.758,-16.721 27.597,-28.342 47.005,-31.679c13.704,-2.356 41.596,0.165 77.403,5.423c80.701,11.851 203.101,36.992 290.601,43.888c31.275,2.465 57.969,2.642 76.383,-1.198c9.84,-2.052 17.106,-4.772 20.17,-9.972c8.389,-14.235 18.309,-22.252 28.744,-26.017c15.516,-5.599 32.673,-1.779 49.153,7.272c37.096,20.372 70.916,67.185 70.916,67.185c0.141,0.197 0.274,0.401 0.397,0.61c2.996,5.082 9.246,7.87 17.491,9.753c15.596,3.564 37.69,2.972 63.426,0.078c72.845,-8.189 173.753,-35.227 242.871,-48.096c30.934,-5.759 55.792,-8.567 69.608,-6.192c19.408,3.337 35.246,14.958 47.005,31.679c16.626,23.641 25.008,57.705 23.887,91.106c-1.914,57.053 -31.485,111.206 -90.861,111.206c-10.096,-0 -24.794,-6.835 -42.762,-14.97c-23.795,-10.773 -54.331,-23.554 -88.66,-18.772c-61.144,8.516 -124.672,-7.152 -144.223,-8.297c-18.079,-1.06 -45.565,2.475 -65.082,12.043c-10.939,5.362 -19.581,12.366 -20.249,22.521c-5.637,85.656 -6.949,59.946 -11.349,172.407c-3.935,100.592 2.03,243.806 5.854,291.994c12.384,156.039 33.037,259.61 33.246,324.168c0.114,34.883 -5.967,59.046 -20.808,74.669c-14.873,15.656 -38.97,23.296 -76.622,23.296c-16.941,-0 -35.098,6.241 -52.801,9.236c-15.174,2.567 -30.026,2.869 -43.767,-3.053c-13.738,-5.922 -26.646,-18.051 -37.302,-41.385c-34.102,-74.67 -15.147,-180.696 -0.005,-213.981c18.644,-40.984 27.603,-111.356 31.008,-191.322c8.035,-188.745 -15.677,-430.517 -23.803,-471.915Zm15.786,-2.642c8.271,42.978 32.074,285.646 24.002,475.237c-3.511,82.482 -13.198,154.995 -32.429,197.267c-14.203,31.221 -31.992,130.67 -0.005,200.71c8.462,18.528 18.173,28.636 29.081,33.337c10.905,4.701 22.722,4.009 34.765,1.971c18.584,-3.144 37.686,-9.46 55.47,-9.46c31.76,-0 52.477,-5.11 65.021,-18.315c12.576,-13.238 16.506,-34.04 16.41,-63.598c-0.209,-64.317 -20.859,-167.496 -33.196,-322.954c-3.85,-48.501 -9.854,-192.642 -5.893,-293.886c4.411,-112.737 5.72,-86.964 11.371,-172.832c1.02,-15.494 12.482,-27.655 29.172,-35.837c21.916,-10.743 52.759,-14.839 73.061,-13.649c19.127,1.121 81.261,16.754 141.08,8.423c37.692,-5.251 71.339,8.214 97.466,20.043c15.315,6.934 27.558,13.546 36.163,13.546c50.253,-0 73.25,-47.456 74.87,-95.742c1,-29.8 -6.151,-60.275 -20.984,-81.366c-9.212,-13.101 -21.422,-22.5 -36.628,-25.114c-12.705,-2.185 -35.522,0.856 -63.969,6.153c-69.439,12.928 -170.827,40.038 -244.011,48.266c-27.908,3.138 -51.865,3.485 -68.778,-0.379c-13.249,-3.028 -22.572,-8.787 -27.506,-16.885c-2.662,-3.661 -32.59,-44.199 -65.436,-62.238c-12.125,-6.659 -24.605,-10.365 -36.021,-6.246c-7.518,2.713 -14.346,8.835 -20.39,19.091c-4.812,8.165 -15.236,14.289 -30.687,17.511c-19.506,4.068 -47.778,4.097 -80.907,1.486c-87.82,-6.922 -210.673,-32.115 -291.669,-44.008c-33.491,-4.918 -59.549,-7.689 -72.367,-5.485c-15.206,2.614 -27.416,12.013 -36.628,25.114c-14.833,21.091 -21.984,51.567 -20.984,81.366c1.62,48.287 24.617,95.742 74.87,95.742c8.605,-0 20.848,-6.612 36.163,-13.546c26.127,-11.828 59.774,-25.293 97.466,-20.043c59.819,8.332 121.953,-7.302 141.08,-8.423c23.209,-1.36 85.31,12.127 121.208,31.832c9.953,5.463 17.959,11.467 22.99,17.632c4.035,4.944 6.309,10.107 6.779,15.279Z" style="fill:#4c8a13;"/><path d="M1122.32,170.084c0,0 -1.814,82.188 -26.89,74.944c-2.885,-0.834 8.241,-115.696 18.029,-135.288c7.25,-14.514 8.861,60.344 8.861,60.344Z" style="fill:#4c8a13;"/><path d="M1130.32,170.261c0,-0 -1.079,42.168 -10.649,64.88c-5.84,13.861 -15.237,20.815 -26.46,17.573l-2.855,-1.489l-1.442,-1.503l-0.964,-1.664c-0.367,-0.837 -0.941,-3.01 -0.978,-6.404c-0.151,-13.767 4.68,-65.015 10.681,-100.657c2.714,-16.119 5.823,-29.171 8.651,-34.832l2.182,-3.24l1.641,-1.429l1.595,-0.888l2.828,-0.707l3.069,0.295l2.036,0.851l2.058,1.592l1.703,2.261c0.441,0.763 0.889,1.727 1.298,2.889c4.297,12.225 5.606,62.123 5.606,62.123c0.003,0.117 0.003,0.233 0,0.349Zm-27.056,62.188c1.929,-3.458 3.44,-7.909 4.74,-12.747c5.476,-20.383 6.259,-47.373 6.316,-49.641l0,-0.004c-0.029,-1.657 -0.258,-13.365 -0.964,-25.956c-4.865,29.049 -8.98,68.523 -10.092,88.348Z" style="fill:#4c8a13;"/><path d="M320.167,176.606c-0,0 -80.151,18.275 -79.238,-7.811c0.105,-3.001 114.215,-20.209 135.602,-15.493c15.844,3.494 -56.364,23.304 -56.364,23.304Z" style="fill:#4c8a13;"/><path d="M321.945,184.406c0,0 -41.159,9.233 -65.519,5.488c-14.866,-2.286 -23.901,-9.704 -23.492,-21.378l0.748,-3.133l1.106,-1.765l1.379,-1.34c0.722,-0.56 2.69,-1.647 5.972,-2.51c13.315,-3.502 64.195,-11.309 100.224,-14.177c16.295,-1.297 29.711,-1.464 35.891,-0.101l3.674,1.326l1.785,1.244l1.251,1.331l1.375,2.569l0.461,3.049l-0.329,2.182l-1.041,2.384l-1.778,2.203c-0.633,0.614 -1.458,1.283 -2.486,1.962c-10.808,7.148 -58.883,20.581 -58.883,20.581c-0.112,0.031 -0.224,0.059 -0.338,0.085Zm-66.907,-11.081c3.824,1.028 8.509,1.409 13.518,1.49c21.102,0.342 47.469,-5.477 49.683,-5.975l0.004,-0.001c1.6,-0.433 12.898,-3.508 24.937,-7.262c-29.357,2.363 -68.644,7.994 -88.142,11.748Z" style="fill:#4c8a13;"/><path d="M638.831,83.843c0,-0 51.014,33.87 32.013,52.007c-2.187,2.087 -68.543,-52.441 -75.327,-68.344c-5.026,-11.782 43.314,16.337 43.314,16.337Z" style="fill:#4c8a13;"/><path d="M643.256,77.178c0,-0 26.94,18.178 36.138,35.726c5.444,10.386 5.512,20.582 -3.027,28.733l-2.81,1.754l-3.158,0.513l-2.896,-0.565c-0.756,-0.27 -1.865,-0.784 -3.238,-1.609c-8.909,-5.355 -38.958,-29.828 -58.306,-49.102c-9.055,-9.021 -15.748,-17.172 -17.8,-21.983l-0.898,-3.103l-0.017,-2.848l0.857,-2.808l1.844,-2.534l1.833,-1.378l2.582,-1.027l2.112,-0.307l2.565,0.096c3.461,0.412 9.217,2.45 15.501,5.321c12.772,5.834 28.316,14.871 28.316,14.871c0.136,0.079 0.271,0.162 0.402,0.25Zm-26.242,3.878c0.079,0.079 0.158,0.157 0.237,0.236c15.299,15.241 37.582,33.984 49.487,42.757c-0.066,-0.25 -0.142,-0.502 -0.226,-0.754c-0.965,-2.885 -2.824,-5.809 -5.053,-8.689c-9.253,-11.948 -24.9,-22.652 -26.851,-23.964l-0.012,-0.007c-1.363,-0.789 -9.091,-5.232 -17.582,-9.579Z" style="fill:#4c8a13;"/><path d="M694.872,1117.38c-0,-0 -27.767,30.072 -42.918,8.825c-1.743,-2.444 43.054,-38.141 56.196,-38.416c9.736,-0.204 -13.278,29.591 -13.278,29.591Z" style="fill:#4c8a13;"/><path d="M700.749,1122.81c0,-0 -11.51,12.328 -24.424,16.994c-10.743,3.881 -22.218,3.201 -30.884,-8.951l-1.052,-2.015l-0.437,-1.916l0.131,-2.625l0.751,-2.188c0.573,-1.18 2.171,-3.369 4.87,-5.983c4.21,-4.077 11.73,-10.296 20.033,-16.389c9.327,-6.844 19.642,-13.506 27.355,-16.963c4.358,-1.952 8.147,-2.923 10.891,-2.98l3.05,0.332l2.271,0.87l1.827,1.251l1.505,1.648l1.616,3.572l0.198,4.281c-0.359,2.979 -2.135,7.42 -4.76,12.05c-4.89,8.626 -12.487,18.475 -12.487,18.475c-0.144,0.186 -0.295,0.365 -0.454,0.537Zm-36.953,2.657c3.732,0.949 7.862,-0.743 11.442,-2.713c6.83,-3.759 12.362,-9.34 13.529,-10.558l0.007,-0.008c0.931,-1.22 4.494,-5.944 7.868,-11.155c-0.157,0.092 -0.314,0.184 -0.472,0.277c-10.405,6.105 -24.929,17.912 -32.374,24.157Z" style="fill:#4c8a13;"/><path d="M588.935,388.128c-0,-0 15.971,-11.823 18.833,10.063c0.329,2.519 -23.446,11.945 -28.836,7.037c-3.993,-3.637 10.003,-17.1 10.003,-17.1Z" style="fill:#4c8a13;"/><path d="M584.175,381.698c-0,-0 9.329,-6.378 17.693,-4.259c5.514,1.398 12.018,5.837 13.832,19.715l-0.252,3.41l-1.432,2.897l-1.977,2.046c-0.659,0.539 -1.533,1.146 -2.602,1.768c-5.011,2.917 -15.781,6.794 -23.527,7.287c-5.481,0.349 -9.854,-1.133 -12.364,-3.42l-1.887,-2.311l-1.097,-2.634l-0.345,-2.922l0.538,-3.449c1.902,-6.562 12.633,-17.463 12.633,-17.463c0.248,-0.239 0.511,-0.461 0.787,-0.665Zm6.974,15.684c2.685,-0.807 5.534,-1.939 7.611,-2.82c-0.114,-0.289 -0.236,-0.56 -0.367,-0.813c-0.187,-0.364 -0.198,-0.734 -0.456,-0.8c-0.829,-0.21 -1.651,0.28 -2.315,0.565c-0.697,0.3 -1.265,0.626 -1.6,0.832l-0.004,0.003c-0.583,0.583 -1.658,1.68 -2.869,3.033Z" style="fill:#4c8a13;"/><path d="M88.935,48.128c-0,-0 15.971,-11.823 18.833,10.063c0.329,2.519 -23.446,11.945 -28.836,7.037c-3.993,-3.637 10.003,-17.1 10.003,-17.1Z" style="fill:#4c8a13;"/><path d="M84.175,41.698c-0,-0 9.329,-6.378 17.693,-4.259c5.514,1.398 12.018,5.837 13.832,19.715l-0.252,3.41l-1.432,2.897l-1.977,2.046c-0.659,0.539 -1.533,1.146 -2.602,1.768c-5.011,2.917 -15.781,6.794 -23.527,7.287c-5.481,0.349 -9.854,-1.133 -12.364,-3.42l-1.887,-2.311l-1.097,-2.634l-0.345,-2.922l0.538,-3.449c1.902,-6.562 12.633,-17.463 12.633,-17.463c0.248,-0.239 0.511,-0.461 0.787,-0.665Zm6.974,15.684c2.685,-0.807 5.534,-1.939 7.611,-2.82c-0.114,-0.289 -0.236,-0.56 -0.367,-0.813c-0.187,-0.364 -0.198,-0.734 -0.456,-0.8c-0.829,-0.21 -1.651,0.28 -2.315,0.565c-0.697,0.3 -1.265,0.626 -1.6,0.832l-0.004,0.003c-0.583,0.583 -1.658,1.68 -2.869,3.033Z" style="fill:#4c8a13;"/><path d="M519.979,1011.51c-0,-0 -1.425,-16.451 5.197,-5.752c0.762,1.231 0.541,21.073 -1.528,21.566c-1.532,0.366 -3.669,-15.814 -3.669,-15.814Z" style="fill:#4c8a13;"/><path d="M512.008,1012.2c0,0 -0.449,-7.078 0.609,-10.733l1.485,-3.251l1.378,-1.627l1.389,-1.076l1.804,-0.871l2.056,-0.456l2.023,0.028l1.756,0.401l2.016,0.939l2.05,1.591c0.936,0.898 2.098,2.292 3.404,4.403l0.945,2.135l0.521,3.393c0.306,4.468 0.051,14.701 -0.929,19.527l-1.166,3.661l-1.72,2.482l-2.034,1.554l-2.091,0.806l-2.561,0.199l-2.287,-0.518l-2.165,-1.222l-2.112,-2.372c-0.7,-1.126 -1.669,-3.72 -2.359,-6.905c-1.07,-4.933 -1.972,-11.73 -1.972,-11.73c-0.016,-0.119 -0.029,-0.239 -0.04,-0.358Z" style="fill:#4c8a13;"/></svg>