<?xml version="1.0" encoding="UTF-8" standalone="no"?><!DOCTYPE svg PUBLIC "-//W3C//DTD SVG 1.1//EN" "http://www.w3.org/Graphics/SVG/1.1/DTD/svg11.dtd"><svg width="100%" height="100%" viewBox="0 0 1182 1182" version="1.1" xmlns="http://www.w3.org/2000/svg" xmlns:xlink="http://www.w3.org/1999/xlink" xml:space="preserve" xmlns:serif="http://www.serif.com/" style="fill-rule:evenodd;clip-rule:evenodd;stroke-linejoin:round;stroke-miterlimit:2;"><path d="M186.328,96.687c-66.505,72.309 58.718,294.931 16.06,612.451c-17.643,131.32 34.751,251.913 74.249,322.972c32.048,57.655 89.291,68.594 124.784,57.902c121.31,-36.546 379.626,-39.047 477.131,-29.898c131.018,12.294 158.156,-188.926 66.891,-403.912c-62.917,-148.209 46.82,-454.123 -15.127,-578.403c-27.001,-54.171 -97.853,-45.064 -154.19,-17.046c-118.418,58.892 -20.31,147.843 -15.365,212.035c26.108,338.864 187.387,424.303 -155.827,566.792c-60.083,24.944 -230.242,0.452 -203.513,-282.023c5.801,-61.309 62.519,-261.245 35.199,-371.995c-16.645,-67.474 -14.473,-77.359 -66.064,-124.809c-61.302,-56.382 -139.483,-12.716 -184.228,35.934Z" style="fill:#77b83b;"/><path d="M180.439,91.272c47.414,-51.551 130.576,-96.151 195.533,-36.407c53.275,48.999 51.227,59.104 68.415,128.781c11.126,45.101 8.713,104.73 1.253,164.044c-10.978,87.289 -32.778,173.878 -36.255,210.621c-10.428,110.206 9.372,180.244 41.234,222.947c46.161,61.869 117.286,65.033 151.247,50.933c120.676,-50.099 178.016,-92.245 200.124,-142.05c14.489,-32.64 13.51,-68.323 6.16,-111.136c-12.79,-74.499 -44.897,-169.732 -55.365,-305.603c-1.926,-25.002 -18.634,-53.763 -30.29,-83.064c-11.618,-29.206 -18.311,-58.854 -5.762,-86.094c8.345,-18.114 25.258,-35.45 55.83,-50.654c29.388,-14.615 62.594,-24.165 91.941,-23.13c31.12,1.098 58.036,13.806 72.972,43.77c12.825,25.73 18.696,58.949 20.155,96.911c2.127,55.349 -5.021,121.002 -12.161,187.737c-11.668,109.061 -23.701,221.085 7.337,294.198c55.72,131.256 67.535,257.532 39.701,334.799c-19.608,54.431 -58.355,85.492 -114.704,80.204c-96.879,-9.09 -353.544,-6.718 -474.076,29.593c-38.079,11.471 -99.7,0.182 -134.084,-61.676c-40.097,-72.138 -93.095,-194.608 -75.185,-327.923c29.751,-221.446 -22.611,-396.552 -33.887,-506.403c-5.148,-50.157 -1.31,-87.372 19.867,-110.398Zm11.777,10.831c-12.148,13.208 -16.898,32.035 -17.665,55.822c-0.826,25.625 3.111,56.726 8.885,92.875c17.694,110.775 52.606,267.924 26.881,459.403c-17.375,129.324 34.415,248.041 73.312,318.02c29.713,53.455 82.577,64.042 115.484,54.129c122.089,-36.78 382.056,-39.411 480.186,-30.203c48.466,4.548 81.291,-22.88 98.156,-69.696c26.874,-74.602 14.422,-196.397 -39.376,-323.125c-31.879,-75.096 -20.502,-190.133 -8.518,-302.152c7.052,-65.913 14.183,-130.753 12.082,-185.42c-1.36,-35.383 -6.533,-66.406 -18.487,-90.388c-12.066,-24.207 -34.075,-34.031 -59.216,-34.918c-26.914,-0.949 -57.302,8.063 -84.252,21.466c-26.269,13.064 -41.252,27.459 -48.423,43.023c-10.724,23.279 -3.831,48.526 6.097,73.485c12.285,30.883 29.346,61.397 31.376,87.749c10.418,135.22 42.452,229.983 55.181,304.124c7.961,46.371 8.388,84.984 -7.305,120.336c-23.165,52.184 -82.172,97.842 -208.613,150.336c-38.139,15.833 -118.366,13.337 -170.206,-56.143c-33.472,-44.861 -55.294,-118.247 -44.339,-234.022c3.485,-36.828 25.306,-123.621 36.309,-211.111c7.195,-57.205 9.818,-114.717 -0.912,-158.215c-16.101,-65.271 -13.806,-74.936 -63.712,-120.837c-57.652,-53.024 -130.844,-10.291 -172.925,35.462Z" style="fill:#4c8a13;"/><path d="M953.866,958.316c0,0 29.746,-80.224 -19.226,-74.216c-5.634,0.691 -31.426,113.171 -21.335,132.689c7.475,14.46 40.561,-58.473 40.561,-58.473Z" style="fill:#4c8a13;"/><path d="M961.152,961.622c-0,-0 -22.471,48.733 -35.354,60.537c-1.948,1.785 -3.832,2.97 -5.488,3.64l-2.621,0.742l-3.193,0.052l-2.805,-0.788l-2.44,-1.501l-1.811,-1.875l-1.242,-1.966c-2.805,-5.425 -3.796,-17.006 -2.711,-31.555c2.228,-29.867 11.62,-73.736 18.156,-94.971c2.249,-7.306 4.481,-12.281 5.887,-14.108l1.395,-1.503l1.663,-1.171l3.078,-0.996c10.2,-1.251 17.719,0.689 23.251,4.297c8.316,5.426 12.563,15.057 13.613,26.438c2.15,23.31 -9.163,54.204 -9.163,54.204c-0.065,0.177 -0.137,0.352 -0.215,0.524Zm-42.069,43.513c1.679,-2.138 3.497,-4.599 4.939,-6.913c10.265,-16.471 21.187,-40.207 22.44,-42.949l0.006,-0.015c1.055,-2.89 9.891,-27.796 8.13,-46.895c-0.56,-6.071 -1.986,-11.611 -6.423,-14.506c-2.267,-1.479 -5.204,-2.15 -8.903,-2.086c-5.723,14.385 -16.325,60.932 -19.432,93.664c-0.714,7.525 -1.036,14.292 -0.757,19.7Z" style="fill:#4c8a13;"/><path d="M869.12,65.568c-0,0 -43.561,-8.5 -28.68,37.517c1.712,5.295 58.831,1.763 65.122,-12.991c4.661,-10.93 -36.442,-24.526 -36.442,-24.526Z" style="fill:#4c8a13;"/><path d="M871.632,57.973c-0,0 21.6,7.245 32.868,15.569c8.246,6.092 10.987,13.673 8.421,19.69c-2.144,5.029 -7.941,9.8 -16.316,13.04c-14.816,5.732 -38.182,7.889 -50.017,6.883c-4.191,-0.356 -7.306,-1.24 -9.01,-2.143l-2.911,-2.258l-1.839,-3.207c-5.482,-16.952 -3.73,-27.88 0.324,-34.872c4.31,-7.434 11.515,-11.202 18.8,-12.759c9.427,-2.016 18.7,-0.199 18.7,-0.199c0.332,0.064 0.659,0.15 0.98,0.256Zm-24.727,38.805c6.019,0.067 23.61,-0.003 35.191,-2.78c4.569,-1.096 8.794,-2.447 12.112,-4.139c1.106,-0.565 2.146,-1.048 2.913,-1.626c-0.276,-0.289 -0.574,-0.583 -0.843,-0.811c-1.534,-1.296 -3.454,-2.551 -5.541,-3.761c-9.007,-5.219 -20.933,-9.41 -23.59,-10.315l-0.007,-0.002c-1.514,-0.239 -6.643,-0.894 -11.843,0.218c-3.131,0.67 -6.451,1.944 -8.304,5.139c-2.23,3.847 -2.389,9.569 -0.088,18.077Z" style="fill:#4c8a13;"/><path d="M347.467,1065.99c-0,-0 33.966,1.388 20.634,-26.379c-1.534,-3.195 -45.484,4.277 -49.749,14.194c-3.159,7.346 29.115,12.185 29.115,12.185Z" style="fill:#4c8a13;"/><path d="M346.281,1073.9c-0,0 -10.785,-1.624 -19.686,-4.422c-4.582,-1.441 -8.687,-3.274 -11.238,-5.194l-3.11,-3.111l-1.671,-3.359l-0.423,-3.625l0.85,-3.546c1.562,-3.633 6.082,-7.723 12.89,-10.752c11.245,-5.004 29.257,-8.525 38.464,-8.974c4.378,-0.214 7.507,0.501 8.887,1.179l2.393,1.697l1.675,2.354c5.67,11.808 4.378,19.952 1.09,25.49c-3.195,5.381 -8.835,8.747 -14.701,10.491c-7.262,2.16 -14.561,1.854 -14.561,1.854c-0.288,-0.012 -0.574,-0.039 -0.859,-0.082Zm-14.907,-19.806c1.161,0.422 2.324,0.808 3.337,1.079c5.869,1.567 11.773,2.559 13.463,2.829l0.008,0.001c1.214,0.009 5.094,-0.062 8.959,-1.211c2.088,-0.621 4.366,-1.408 5.504,-3.324c0.927,-1.561 0.862,-3.559 -0.016,-6.221c-6.393,0.824 -22.051,3.104 -30.752,6.634c-0.165,0.067 -0.333,0.138 -0.503,0.213Z" style="fill:#4c8a13;"/><path d="M409.089,811.536c0,-0 19.003,38.355 33.165,19.051c1.629,-2.221 -30.32,-50.403 -40.72,-53.644c-7.705,-2.401 7.555,34.593 7.555,34.593Z" style="fill:#4c8a13;"/><path d="M401.694,814.586c-0,0 -10.375,-25.99 -10.333,-35.004l0.22,-2.564l0.568,-2.07l1.351,-2.455l1.615,-1.661l1.79,-1.117l1.988,-0.674l2.275,-0.206l2.746,0.47c3.265,1.018 8.508,4.991 14.024,11.137c10.196,11.362 23.099,30.238 28.669,40.087c2.215,3.917 3.35,6.921 3.574,8.249l-0.124,3.658l-1.353,2.884c-3.72,5.07 -7.842,7.443 -11.809,8.313c-5.835,1.279 -11.958,-0.755 -17.453,-5.184c-9.668,-7.792 -17.521,-23.362 -17.521,-23.362c-0.081,-0.164 -0.157,-0.331 -0.227,-0.501Zm12.401,-13.653l2.351,7.429l0.002,0.003c1.057,2.094 6.419,12.294 13.034,17.627c1.027,0.827 1.972,1.743 2.996,1.994c-3.698,-6.531 -11.039,-17.513 -18.383,-27.053Z" style="fill:#4c8a13;"/><path d="M653.402,1025.84c0,0 -77.033,0.439 -65.096,8.396c1.373,0.916 107.28,-2.42 123.735,-5.489c12.191,-2.273 -58.639,-2.907 -58.639,-2.907Z" style="fill:#4c8a13;"/><path d="M653.474,1017.84c0,-0 37.027,0.336 53.173,1.377c3.872,0.25 6.736,0.598 8.05,0.92l3.164,1.361l2.118,2.082l1.325,3.116l-0.052,3.329l-1.096,2.605l-1.189,1.447l-1.415,1.102l-1.723,0.828l-2.321,0.604c-14.996,2.796 -103.355,5.876 -121.891,5.776c-2.858,-0.016 -4.631,-0.232 -5.115,-0.349l-2.633,-1.146l-2.255,-1.9l-1.525,-2.155l-0.905,-2.66l0.009,-3.141l0.851,-2.507l1.856,-2.499l2.693,-1.939c0.925,-0.495 2.112,-0.989 3.547,-1.431c14.111,-4.341 65.217,-4.821 65.217,-4.821l0.117,0.001Z" style="fill:#4c8a13;"/><path d="M421.364,286.963c0,-0 6.093,-72.924 -28.411,-78.958c-3.97,-0.694 -0.92,105.464 10.218,127.467c8.252,16.3 18.193,-48.509 18.193,-48.509Z" style="fill:#4c8a13;"/><path d="M429.272,288.176c-0,-0 -3.208,20.862 -7.512,36.284c-2.178,7.803 -4.884,14.305 -7.345,17.303l-2.294,2.224l-2.332,1.344l-2.599,0.695l-2.932,-0.08l-2.68,-0.9l-2.062,-1.368l-1.741,-1.815c-0.578,-0.737 -1.171,-1.651 -1.741,-2.778c-3.253,-6.425 -6.073,-19.437 -8.072,-35.065c-4.413,-34.484 -5.562,-82.197 -3.915,-94.288c0.263,-1.932 0.655,-3.338 0.999,-4.197l0.866,-1.677l1.302,-1.569l1.842,-1.326l1.79,-0.697l3.485,-0.141c16.828,2.942 26.648,18.169 31.28,36.3c6.009,23.522 3.726,51.204 3.726,51.204c-0.016,0.183 -0.037,0.365 -0.065,0.547Zm-29.894,-68.7c-0.585,17.706 0.887,54.631 4.454,82.513c0.823,6.426 1.719,12.351 2.738,17.373c3.684,-13.458 6.461,-30.883 6.842,-33.324l0.001,-0.01c0.207,-2.734 1.756,-25.836 -3.304,-45.643c-2.131,-8.338 -5.19,-16.349 -10.731,-20.909Z" style="fill:#4c8a13;"/><path d="M213.309,105.078c-0,0 -45.078,55.224 3.993,109.264c5.646,6.218 53.291,-91.016 47.32,-126.017c-4.424,-25.929 -51.313,16.753 -51.313,16.753Z" style="fill:#4c8a13;"/><path d="M207.924,99.162c-0,0 25.164,-22.46 41.805,-26.434c6.787,-1.621 12.592,-0.557 16.73,2.879c2.809,2.332 5.116,5.907 6.049,11.373c1.574,9.228 -0.024,22.417 -3.783,37.005c-8.209,31.856 -26.34,70.942 -37.061,87.371c-3.661,5.611 -7.07,8.958 -9.103,10.059l-3.088,1.082l-3.089,-0.006l-2.802,-1.007l-2.203,-1.764c-53.756,-59.2 -4.268,-119.7 -4.268,-119.7c0.25,-0.306 0.521,-0.592 0.813,-0.858Zm9.701,103.053c6.441,-11.419 21.46,-39.064 29.503,-62.245c6.763,-19.494 11.603,-38.604 9.608,-50.299c-0.097,-0.567 -0.369,-1.309 -0.498,-1.644c-0.396,-0.011 -1.335,-0.022 -1.959,0.088c-1.942,0.346 -4.062,1.144 -6.271,2.166c-12.148,5.622 -26.089,17.825 -28.832,20.278l-0.005,0.006c-3.617,4.713 -34.69,47.663 -1.546,91.65Z" style="fill:#4c8a13;"/></svg>