<?xml version="1.0" encoding="UTF-8" standalone="no"?><!DOCTYPE svg PUBLIC "-//W3C//DTD SVG 1.1//EN" "http://www.w3.org/Graphics/SVG/1.1/DTD/svg11.dtd"><svg width="100%" height="100%" viewBox="0 0 1182 1182" version="1.1" xmlns="http://www.w3.org/2000/svg" xmlns:xlink="http://www.w3.org/1999/xlink" xml:space="preserve" xmlns:serif="http://www.serif.com/" style="fill-rule:evenodd;clip-rule:evenodd;stroke-linejoin:round;stroke-miterlimit:2;"><path d="M159.735,310.573c28.612,27.895 51.113,3.489 121.682,60.01c13.452,10.774 55.79,9.55 119.528,179.226c69.466,184.926 25.273,162.875 122.572,421.897c23.769,63.275 144.807,150.556 151.301,152.978c106.688,39.793 73.36,-252.886 136.46,-422.061c44.601,-119.579 56.251,-116.742 76.273,-242.697c19.16,-120.524 299.366,-269.227 129.862,-375.79c-106.178,-66.752 -206.135,-0 -206.135,69.789c-0,49.294 -56.678,128.334 -79.774,232.428c-41.468,186.895 -9.807,277.917 -56.686,348.382c-22.446,33.74 -93.803,-88.551 -100.303,-113.083c-96.17,-362.943 -180.061,-555.284 -414.78,-493.09c-6.321,1.674 -54.438,27.496 -49.993,74.657c1.04,11.036 21.727,79.799 49.993,107.354Z" style="fill:#77b83b;"/><path d="M154.15,316.302c-29.582,-28.84 -51.284,-100.782 -52.373,-112.332c-2.961,-31.422 14.799,-54.447 31.229,-68.134c11.201,-9.331 21.809,-14.247 24.68,-15.007c72.738,-19.274 131.436,-14.588 180.679,11.125c48.928,25.549 88.653,72.097 123.276,137.693c45.198,85.631 81.95,204.067 120.607,349.956c4.388,16.559 39.509,79.25 67.558,104.25c4.157,3.705 8.074,6.543 11.712,7.964c1.517,0.593 2.898,0.99 4.163,0.668c0.997,-0.253 1.739,-1.072 2.477,-2.181c18.029,-27.1 23.753,-57.425 26.951,-95.484c5.009,-59.632 3.597,-137.582 28.585,-250.2c13.979,-63.001 40.096,-116.925 58.798,-160.707c11.842,-27.723 20.786,-51.097 20.786,-69.988c-0,-22.852 9.684,-45.463 26.56,-63.873c38.103,-41.568 113.335,-62.039 191.833,-12.689c36.5,22.947 53.19,48.051 57.077,74.021c3.858,25.779 -5.062,52.858 -21.422,80.436c-27.722,46.728 -76.946,95.334 -114.438,142.415c-23.867,29.972 -43.019,59.16 -47.436,86.947c-20.147,126.742 -31.799,123.911 -76.679,244.237c-21.886,58.677 -31.99,132.362 -40.51,201.652c-8.686,70.64 -15.8,136.793 -31.344,178.75c-8.842,23.865 -20.745,40.219 -36.129,46.944c-10.858,4.746 -23.623,5.063 -38.767,-0.586c-3.355,-1.251 -36.503,-24.141 -71.67,-55.165c-35.061,-30.931 -72.085,-69.911 -84.325,-102.495c-97.299,-259.022 -53.106,-236.97 -122.572,-421.897c-62.485,-166.341 -103.853,-165.233 -117.04,-175.795c-40.777,-32.66 -64.87,-37.299 -83.587,-41.558c-14.406,-3.277 -25.954,-6.562 -38.679,-18.967Zm11.169,-11.457c10.166,9.91 19.551,12.205 31.06,14.823c20.153,4.586 46.133,9.505 90.04,44.671c13.715,10.985 57.024,9.645 122.015,182.657c69.466,184.926 25.273,162.875 122.572,421.896c11.529,30.692 46.908,66.989 79.932,96.123c32.919,29.042 63.536,51.002 66.676,52.173c10.462,3.902 19.267,4.195 26.768,0.916c12.154,-5.312 20.548,-18.988 27.533,-37.842c15.227,-41.1 21.959,-105.945 30.467,-175.144c8.676,-70.55 19.116,-145.546 41.4,-205.291c44.322,-118.831 55.971,-115.99 75.869,-241.157c4.004,-25.192 18.71,-51.666 38.598,-78.626c28.585,-38.751 67.88,-78.782 98.679,-118.176c29.2,-37.348 51.138,-73.763 45.996,-108.116c-3.333,-22.273 -18.465,-43.164 -49.769,-62.843c-70.152,-44.104 -137.471,-27.194 -171.522,9.954c-14.047,15.324 -22.355,34.041 -22.355,53.062c-0,20.545 -9.193,46.123 -22.072,76.273c-18.379,43.025 -44.155,95.976 -57.892,157.888c-24.774,111.656 -23.295,188.951 -28.262,248.073c-3.453,41.11 -10.099,73.735 -29.573,103.008c-9.302,13.983 -25.098,11.98 -42.319,-3.37c-30.127,-26.853 -67.666,-94.31 -72.378,-112.095c-38.279,-144.465 -74.534,-261.792 -119.291,-346.587c-32.843,-62.223 -70.118,-106.743 -116.532,-130.978c-46.098,-24.071 -101.082,-27.885 -169.175,-9.842c-2.186,0.579 -10.008,4.729 -18.537,11.834c-13.162,10.965 -27.913,29.167 -25.54,54.339c0.992,10.522 20.664,76.105 47.612,102.377Z" style="fill:#4c8a13;"/><path d="M1014.67,210.029c0,-0 30.58,-76.309 4.672,-79.485c-2.981,-0.365 -37.815,109.652 -36.499,131.513c0.974,16.196 31.827,-52.028 31.827,-52.028Z" style="fill:#4c8a13;"/><path d="M1021.96,213.325c-0,0 -20.783,45.384 -29.532,54.942c-0.832,0.909 -1.622,1.62 -2.328,2.148l-2.453,1.412l-2.518,0.657l-2.206,-0.017l-2.939,-0.932l-2.323,-1.76l-1.119,-1.443l-0.95,-1.958l-0.735,-3.836c-0.38,-6.317 1.882,-19.542 5.71,-35.434c8.465,-35.137 24.129,-84.172 29.669,-96.776c1.366,-3.107 2.747,-4.881 3.412,-5.506l1.54,-1.153l1.916,-0.817l3.211,-0.248c11.595,1.421 17.509,11.504 17.443,26.545c-0.109,24.645 -15.662,63.856 -15.662,63.856c-0.043,0.108 -0.088,0.214 -0.136,0.32Zm-25.731,17.085c5.601,-11.328 10.414,-22.029 11.075,-23.505l0.002,-0.004c1.016,-2.54 14.357,-36.274 14.452,-57.823c0.006,-1.355 -0.038,-2.651 -0.156,-3.869c-6.757,18.68 -18.453,56.585 -25.373,85.201Z" style="fill:#4c8a13;"/><path d="M771.305,391.485c-0,0 14.008,-28.072 -10.807,-34.428c-2.855,-0.731 -14.405,41.508 -9.003,51.473c4.001,7.383 19.81,-17.045 19.81,-17.045Z" style="fill:#4c8a13;"/><path d="M778.021,395.832c-0,-0 -5.388,8.302 -10.882,14.208c-3.113,3.346 -6.417,5.901 -9.04,6.965l-3.807,0.894l-3.284,-0.31l-2.123,-0.817l-1.883,-1.268l-2.541,-3.162c-1.777,-3.279 -2.681,-9.048 -2.267,-15.999c0.753,-12.646 5.134,-30.057 8.311,-38.107c1.669,-4.228 3.761,-6.693 4.865,-7.506l1.718,-0.989l1.7,-0.532l1.77,-0.16l1.925,0.258c6.886,1.764 11.53,4.887 14.693,8.509c4.868,5.573 6.362,12.576 6.021,19.248c-0.486,9.479 -4.734,17.994 -4.734,17.994c-0.133,0.266 -0.281,0.524 -0.442,0.774Zm-19.753,0.005c2.839,-3.516 5.244,-7.071 6.04,-8.272l0.004,-0.007c0.46,-1.015 1.761,-4.092 2.476,-7.854c0.633,-3.333 1.052,-7.386 -1.069,-10.586c-0.344,-0.518 -0.758,-0.998 -1.246,-1.44c-1.784,5.757 -4.429,14.979 -5.505,22.226c-0.303,2.043 -0.545,4.041 -0.7,5.933Z" style="fill:#4c8a13;"/><path d="M715.373,1074.61c-0,0 9.939,-32.392 -40.266,-33.034c-5.777,-0.074 -2.873,46.387 13.044,55.405c11.791,6.681 27.222,-22.371 27.222,-22.371Z" style="fill:#4c8a13;"/><path d="M722.438,1078.37c-0,-0 -8.735,16.089 -18.498,23.199c-6.504,4.736 -13.477,5.924 -19.733,2.379c-6.497,-3.681 -11.8,-11.912 -15.079,-21.865c-4.274,-12.976 -5.467,-28.665 -4.333,-36.744c0.28,-1.997 0.709,-3.655 1.196,-4.916l1.051,-2.146l1.191,-1.595l1.469,-1.325l2.071,-1.143l3.436,-0.63c23.595,0.301 35.624,7.332 41.876,14.748c10.814,12.827 5.936,28.632 5.936,28.632c-0.149,0.486 -0.345,0.957 -0.583,1.406Zm-41.952,-28.577c-0.073,0.951 -0.125,1.987 -0.118,2.956c0.042,6.182 1.05,14.275 3.147,21.679c1.913,6.752 4.297,13.173 8.579,15.599c0.392,0.222 0.688,-0.318 1.101,-0.542c1.379,-0.747 2.711,-1.891 4.002,-3.17c5.12,-5.07 9.354,-12.29 10.679,-14.662l0.001,-0.004c0.411,-1.922 1.24,-7.946 -3.024,-13.004c-3.882,-4.604 -11.264,-7.982 -24.367,-8.852Z" style="fill:#4c8a13;"/><path d="M213.423,297.939c0,-0 -0.818,-16.878 -40.948,-11.948c-4.617,0.567 10.213,22.982 25.311,25.729c11.184,2.036 15.637,-13.781 15.637,-13.781Z" style="fill:#4c8a13;"/><path d="M221.124,300.106c-0,0 -2.15,7.534 -7.052,12.989c-4.202,4.677 -10.094,7.884 -17.719,6.496c-7.512,-1.367 -15.112,-6.409 -20.991,-12.3c-5.856,-5.867 -9.924,-12.489 -11.111,-16.279l-0.633,-3.747l0.211,-2.151l0.549,-1.741l1.146,-1.949l1.784,-1.733l2.135,-1.142l2.057,-0.498c28.544,-3.507 40.073,3.607 44.92,8.809c5.098,5.47 4.994,10.691 4.994,10.691c0.042,0.862 -0.056,1.725 -0.29,2.555Zm-36.959,-7.014c0.807,1.032 1.664,2.037 2.522,2.897c3.574,3.582 7.964,7.03 12.531,7.861c2,0.363 3.063,-1.427 3.961,-2.75c0.697,-1.026 1.241,-2.079 1.645,-2.975c-0.719,-0.781 -2.001,-1.959 -3.736,-2.699c-3.683,-1.57 -9.07,-2.533 -16.923,-2.334Z" style="fill:#4c8a13;"/><path d="M508.525,515.288c0,-0 6.661,-7.026 -7.176,-35.118c-1.592,-3.232 -6.389,16.362 -3.066,28.68c2.463,9.125 10.242,6.438 10.242,6.438Z" style="fill:#4c8a13;"/><path d="M511.137,522.849l-2.772,0.641c-0.984,0.138 -2.208,0.221 -3.554,0.126l-2.394,-0.354l-2.636,-0.859c-3.502,-1.512 -7.355,-4.554 -9.221,-11.469c-3.205,-11.875 0.096,-29.346 2.43,-33.871l1.177,-1.854l1.677,-1.659l2.097,-1.173l2.081,-0.51l2.717,0.145l2.438,0.965l1.944,1.586l1.405,2.073c17.192,34.904 5.805,44.156 5.805,44.156c-0.884,0.932 -1.979,1.638 -3.194,2.057Z" style="fill:#4c8a13;"/></svg>