<?xml version="1.0" encoding="UTF-8" standalone="no"?><!DOCTYPE svg PUBLIC "-//W3C//DTD SVG 1.1//EN" "http://www.w3.org/Graphics/SVG/1.1/DTD/svg11.dtd"><svg width="100%" height="100%" viewBox="0 0 1182 1182" version="1.1" xmlns="http://www.w3.org/2000/svg" xmlns:xlink="http://www.w3.org/1999/xlink" xml:space="preserve" xmlns:serif="http://www.serif.com/" style="fill-rule:evenodd;clip-rule:evenodd;stroke-linejoin:round;stroke-miterlimit:2;"><path d="M106.549,141.397c8.659,23.508 29.218,12.571 81.822,39.201c10.026,5.076 14.212,-7.233 95.687,37.598c79.817,43.918 93.37,100.07 134.197,170.188c8.925,15.329 80.257,129.235 98.432,169.056c6.127,13.423 78.186,118.851 60.3,179.866c-23.223,79.22 -124.567,231.229 -81.438,326.822c53.641,118.894 243.109,64.196 184.802,-14.553c-65.467,-88.417 20.652,-173.703 65.769,-334.12c24.863,-88.399 -59.945,-199.679 -57.444,-231.134c4.357,-54.791 16.974,-123.316 47.829,-157.054c44.148,-48.273 49.665,-70.22 102.832,-100.513c50.874,-28.987 182.232,7.142 194.797,-52.648c17.516,-83.344 -106.332,-110.919 -130.068,-88.165c-16.766,16.072 -81.863,30.572 -125.017,59.545c-77.481,52.018 -179.076,169.984 -214.02,203.183c-16.731,15.896 -67.526,-95.566 -75.634,-105.122c-121.389,-143.066 -257.403,-209.048 -329.888,-169.598c-4.195,2.283 -61.512,44.225 -52.958,67.448Z" style="fill:#77b83b;"/><path d="M560.691,341.748c36.155,-34.804 136.914,-151.219 213.899,-202.904c26.363,-17.699 60.733,-30.17 87.727,-40.789c16.423,-6.46 29.981,-11.915 36.212,-17.889c4.771,-4.573 12.621,-7.883 22.588,-9.191c12.789,-1.679 29.391,-0.272 46.202,4.467c42.838,12.078 86.154,45.541 74.644,100.31c-5.691,27.082 -31.952,38.318 -66.248,42.313c-27.323,3.183 -59.723,2.283 -87.88,4.812c-17.436,1.566 -33.17,4.35 -44.538,10.828c-52.252,29.771 -57.5,51.519 -100.889,98.961c-29.885,32.677 -41.537,99.22 -45.757,152.289c-0.335,4.215 1.48,10.078 4.213,17.364c4.846,12.917 12.884,29.442 21.396,48.182c22.21,48.898 46.974,112.322 31.562,167.12c-22.623,80.434 -55.494,142.044 -74.533,194.618c-17.967,49.61 -23.484,90.741 7.492,132.576c10.907,14.731 14.08,28.835 11.992,41.41c-3.068,18.48 -17.944,34.239 -39.533,44.021c-50.245,22.763 -136.666,13.236 -170.983,-62.828c-17.979,-39.848 -12.364,-89.115 2.99,-139.159c22.09,-71.997 64.136,-145.694 78.063,-193.204c6.73,-22.958 -0.55,-52.535 -11.511,-80.649c-17.403,-44.64 -44.729,-85.625 -48.389,-93.644c-18.102,-39.66 -89.18,-153.086 -98.069,-168.352c-40.028,-68.749 -52.883,-124.145 -131.14,-167.205c-63.027,-34.68 -78.126,-34.238 -86.647,-35.092c-3.249,-0.325 -5.84,-0.881 -8.797,-2.378c-31.073,-15.731 -50.811,-18.086 -63.454,-22.501c-11.014,-3.846 -17.805,-8.975 -22.261,-21.072c-3.308,-8.981 -0.027,-20.412 7.808,-31.704c15.011,-21.637 45.724,-43.844 48.833,-45.536c30.684,-16.7 72.131,-16.122 119.036,0.963c67.472,24.576 146.858,83.368 220.776,170.486c5.698,6.717 32.454,63.539 53.724,91.573c3.222,4.246 6.27,7.773 9.092,10.171c0.704,0.597 1.683,1.218 2.38,1.633Zm-446.635,-203.116c3.302,8.965 9.292,10.788 19.053,13.483c13.132,3.625 31.888,7.683 58.875,21.345c2.111,1.069 3.899,0.777 6.847,1.061c10.141,0.98 30.08,4.2 89.084,36.666c81.376,44.776 95.629,101.683 137.253,173.172c8.962,15.391 80.548,129.777 98.797,169.759c3.692,8.088 31.189,49.455 48.741,94.476c12.344,31.662 19.537,65.107 11.958,90.962c-13.94,47.555 -56.009,121.33 -78.121,193.396c-14.113,45.999 -20.227,91.259 -3.702,127.886c30.052,66.609 105.797,74.768 149.796,54.834c16.111,-7.3 28.062,-18.277 30.352,-32.067c1.484,-8.938 -1.315,-18.799 -9.067,-29.269c-34.492,-46.584 -29.683,-92.303 -9.677,-147.545c18.932,-52.278 51.679,-113.52 74.174,-193.502c14.424,-51.283 -9.941,-110.41 -30.726,-156.171c-8.687,-19.124 -16.865,-35.998 -21.809,-49.179c-3.794,-10.114 -5.648,-18.402 -5.183,-24.253c4.494,-56.513 18.075,-127.019 49.9,-161.818c44.908,-49.103 50.694,-71.251 104.775,-102.065c13.052,-7.437 31.01,-11.064 51.028,-12.862c28.022,-2.516 60.268,-1.601 87.46,-4.768c14.028,-1.634 26.643,-4.307 36.298,-9.47c8.265,-4.419 14.151,-10.76 16.143,-20.242c9.51,-45.25 -27.934,-71.64 -63.328,-81.619c-14.479,-4.082 -28.763,-5.449 -39.777,-4.003c-5.905,0.775 -10.772,2.168 -13.598,4.877c-7.182,6.885 -22.5,13.783 -41.428,21.229c-26.03,10.239 -59.244,22.115 -84.666,39.183c-77.128,51.782 -178.183,169.292 -212.968,202.341c-5.909,5.613 -14.893,5.231 -24.528,-3.906c-11.316,-10.731 -25.884,-34.886 -38.316,-57.445c-11.627,-21.098 -21.257,-40.689 -24.402,-44.395c-71.748,-84.562 -148.558,-141.949 -214.051,-165.804c-41.739,-15.204 -78.607,-16.804 -105.912,-1.943c-2.38,1.295 -22.765,16.182 -37.009,32.555c-4.479,5.149 -8.358,10.429 -10.683,15.492c-1.605,3.494 -2.637,6.749 -1.583,9.609Z" style="fill:#4c8a13;"/><path d="M985.736,174.454c0,0 35.49,-23.507 18.473,-32.761c-1.957,-1.064 -46.829,35.645 -50.14,45.447c-2.454,7.261 31.667,-12.686 31.667,-12.686Z" style="fill:#4c8a13;"/><path d="M989.774,181.361c-0,-0 -23.786,13.608 -31.894,15.114l-2.898,0.252l-2.782,-0.447l-2.342,-1.113l-1.606,-1.373l-1.413,-2.073l-0.741,-2.24l-0.132,-2.345l0.523,-2.557c1.095,-3.241 5.55,-9.159 12.029,-15.644c12.825,-12.839 33.426,-29.52 39.772,-33.344c1.068,-0.645 1.943,-1.06 2.557,-1.295l2.276,-0.569l2.418,0.069l2.49,0.869c4.999,2.718 7.386,6.319 8.339,10.044c0.903,3.527 0.46,7.452 -1.367,11.46c-5.253,11.522 -24.849,24.955 -24.849,24.955c-0.125,0.082 -0.252,0.161 -0.38,0.237Z" style="fill:#4c8a13;"/><path d="M633.852,1102.07c-0,-0 40.227,-13.925 26.052,-27.126c-1.631,-1.519 -54.232,22.854 -59.882,31.522c-4.185,6.421 33.83,-4.396 33.83,-4.396Z" style="fill:#4c8a13;"/><path d="M636.041,1109.76c0,0 -26.426,7.254 -34.653,6.692l-2.869,-0.477l-2.583,-1.127l-1.991,-1.66l-1.214,-1.731l-0.852,-2.36l-0.159,-2.353l0.456,-2.304l1.144,-2.346c1.868,-2.866 7.656,-7.487 15.546,-12.154c15.62,-9.239 39.727,-20.262 46.826,-22.385c1.195,-0.357 2.145,-0.542 2.799,-0.616l2.346,0.016l2.324,0.669l2.196,1.462c4.163,3.878 5.578,7.96 5.573,11.804c-0.004,3.641 -1.411,7.332 -4.179,10.758c-7.957,9.85 -30.283,17.978 -30.283,17.978c-0.141,0.049 -0.283,0.094 -0.427,0.134Z" style="fill:#4c8a13;"/><path d="M765.518,197.183c0,-0 14.291,-8.931 -2.114,-17.987c-1.887,-1.042 -16.703,14.791 -14.495,20.568c1.635,4.281 16.609,-2.581 16.609,-2.581Z" style="fill:#4c8a13;"/><path d="M768.851,204.456c0,-0 -12.358,5.205 -18.328,4.649l-3.203,-0.718l-2.486,-1.333l-1.982,-1.918l-1.416,-2.516l-0.694,-2.989l0.019,-2.622c0.193,-1.828 0.802,-3.944 1.841,-6.162c2.865,-6.12 9.436,-13.613 13.398,-16.744l3.42,-2.138l2.963,-0.781l2.654,0.165l2.233,0.843c11.088,6.121 12.547,13.149 11.902,18.251c-0.98,7.752 -9.414,13.524 -9.414,13.524c-0.291,0.182 -0.594,0.345 -0.907,0.489Z" style="fill:#4c8a13;"/><path d="M595.259,508.802c-0,-0 7.408,-15.262 -30.015,-15.564c-4.305,-0.035 -2.141,21.855 9.723,26.104c8.79,3.147 20.292,-10.54 20.292,-10.54Z" style="fill:#4c8a13;"/><path d="M601.383,513.949c0,-0 -6.966,8.16 -14.811,11.771c-4.735,2.18 -9.748,2.784 -14.302,1.153c-6.888,-2.467 -11.876,-8.712 -14.559,-15.697c-2.509,-6.533 -2.92,-13.495 -2.058,-17.379l1.184,-3.306l1.869,-2.544l2.845,-1.939l1.842,-0.584l1.916,-0.186c23.095,0.187 31.94,6.408 35.427,11.164c1.695,2.311 2.524,4.624 2.888,6.717l0.23,2.826l-0.198,2.375l-1.2,3.975c-0.288,0.594 -0.648,1.149 -1.073,1.654Zm-29.695,-12.473c0.206,1.351 0.512,2.798 0.959,3.963c1.017,2.646 2.408,5.437 5.018,6.371c0.427,0.153 0.861,-0.104 1.311,-0.258c0.922,-0.315 1.823,-0.801 2.686,-1.342c2.334,-1.461 4.398,-3.342 5.762,-4.714c-0.277,-0.242 -0.65,-0.54 -1.033,-0.76c-1.447,-0.832 -3.417,-1.525 -6.03,-2.1c-1.744,-0.383 -3.735,-0.697 -6.004,-0.931c-0.852,-0.088 -1.741,-0.165 -2.669,-0.229Z" style="fill:#4c8a13;"/><path d="M721.151,682.935c0,0 16.626,3.377 7.603,-32.944c-1.038,-4.179 -21.7,3.367 -22.862,15.915c-0.861,9.296 15.259,17.029 15.259,17.029Z" style="fill:#4c8a13;"/><path d="M717.691,690.148c0,0 -9.637,-4.715 -15.088,-11.415c-3.29,-4.043 -5.123,-8.747 -4.677,-13.564c0.675,-7.286 5.481,-13.671 11.579,-18.008c5.703,-4.057 12.343,-6.188 16.32,-6.32l3.496,0.324l2.929,1.177l2.587,2.272l1.024,1.639l0.657,1.809c5.568,22.415 1.744,32.53 -1.994,37.092c-1.816,2.216 -3.85,3.595 -5.787,4.468l-2.679,0.927l-2.349,0.399l-4.15,-0.173c-0.646,-0.131 -1.273,-0.342 -1.868,-0.627Zm4.711,-15.624c0.166,-0.328 0.362,-0.764 0.48,-1.19c0.445,-1.609 0.626,-3.689 0.532,-6.362c-0.063,-1.785 -0.254,-3.791 -0.592,-6.047c-0.127,-0.848 -0.275,-1.728 -0.443,-2.643c-1.257,0.537 -2.582,1.193 -3.6,1.917c-2.309,1.642 -4.666,3.685 -4.921,6.445c-0.042,0.451 0.315,0.808 0.576,1.206c0.535,0.814 1.23,1.566 1.968,2.267c1.996,1.897 4.332,3.427 6,4.407Z" style="fill:#4c8a13;"/><path d="M221.102,142.874c0,-0 -0.609,-7.952 -30.522,-5.629c-3.442,0.267 7.612,10.828 18.866,12.122c8.337,0.959 11.656,-6.493 11.656,-6.493Z" style="fill:#4c8a13;"/><path d="M221.102,150.874l7.308,-4.745c0,-0 -5.626,12.825 -19.878,11.185c-7.938,-0.913 -15.842,-5.39 -20.461,-9.297c-2.674,-2.262 -4.371,-4.51 -5.1,-5.981l-0.758,-2.043l-0.272,-2.072l0.285,-2.327l1.178,-2.589l1.289,-1.49l1.47,-1.08l1.701,-0.756l2.096,-0.41c17.13,-1.33 25.84,0.642 30.297,2.586c2.903,1.267 4.63,2.711 5.73,3.879l2.028,2.862l1.037,3.384l-7.95,8.894Z" style="fill:#4c8a13;"/><path d="M441.073,245.277c0,0 4.965,-3.31 -5.349,-16.545c-1.186,-1.523 -4.762,7.709 -2.285,13.512c1.835,4.299 7.634,3.033 7.634,3.033Z" style="fill:#4c8a13;"/><path d="M441.073,253.277l1.707,-0.184c-0,0 -5.649,1.132 -10.299,-1.064l-3.617,-2.524l-1.571,-1.895l-1.211,-2.225c-1.84,-4.309 -1.773,-9.828 -0.742,-14.154c0.803,-3.37 2.211,-6.014 3.255,-7.294l1.451,-1.448l1.719,-1.087l3.069,-0.817l2.194,0.136l2.133,0.73l1.702,1.133l1.172,1.23c8.746,11.224 8.595,17.859 7.974,21.003l-1.552,4.001l-2.71,2.952l-4.674,1.507Zm0,0l1.707,-0.184c-0,0 -5.649,1.132 -10.299,-1.064l-3.617,-2.524l-1.571,-1.895l-1.211,-2.225c-1.84,-4.309 -1.773,-9.828 -0.742,-14.154c0.803,-3.37 2.211,-6.014 3.255,-7.294l1.451,-1.448l1.719,-1.087l3.069,-0.817l2.194,0.136l2.133,0.73l1.702,1.133l1.172,1.23c8.746,11.224 8.595,17.859 7.974,21.003l-1.552,4.001l-2.71,2.952l-4.674,1.507c0,0 0.29,-9.286 -1.432,-13.272l1.432,13.272Z" style="fill:#4c8a13;"/></svg>