<svg xmlns="http://www.w3.org/2000/svg" xmlns:xlink="http://www.w3.org/1999/xlink" xmlns:lucid="lucid" width="1465" height="1784.33"><g transform="translate(-77.5 -237.5)" lucid:page-tab-id="0_0"><path d="M1160.14 596.1c0 66.3-53.76 120.06-120.07 120.06-66.3 0-120.07-53.76-120.07-120.07C920 529.77 973.76 476 1040.07 476c66.3 0 120.07 53.76 120.07 120.07z" stroke="#e08fff" stroke-width="5" fill="#3a414a"/><use xlink:href="#a" transform="matrix(1,0,0,1,940,476.02214234079435) translate(40.22619140624999 125.608642578125)"/><use xlink:href="#b" transform="matrix(1,0,0,1,940,476.02214234079435) translate(90.45436523437499 125.608642578125)"/><path d="M80 571.76a8 8 0 0 1 8-8h164a8 8 0 0 1 8 8v64a8 8 0 0 1-8 8H88a8 8 0 0 1-8-8z" stroke="#e08fff" stroke-width="5" fill="#3a414a"/><use xlink:href="#c" transform="matrix(1,0,0,1,100,563.7614910957684) translate(39.863095703125 45.108642578125)"/><path d="M280 271.76a8 8 0 0 1 8-8h184a8 8 0 0 1 8 8v44a8 8 0 0 1-8 8H288a8 8 0 0 1-8-8z" fill="#3a414a"/><path d="M480 263.76H288a8 8 0 0 0-8 8v44a8 8 0 0 0 8 8h192" stroke="#e08fff" stroke-width="5" fill="none"/><use xlink:href="#d" transform="matrix(1,0,0,1,320,275.7614910957684) translate(0 14.280908203124998)"/><use xlink:href="#e" transform="matrix(1,0,0,1,320,275.7614910957684) translate(0 31.936376953125002)"/><path d="M587.4 603.76c0 42.9-34.78 77.67-77.67 77.67-42.9 0-77.68-34.77-77.68-77.67s34.78-77.67 77.68-77.67c42.9 0 77.67 34.76 77.67 77.66z" stroke="#e08fff" stroke-width="5" fill="#3a414a"/><use xlink:href="#f" transform="matrix(1,0,0,1,452.05518926744935,526.0899091015665) translate(17.817460937499995 74.280908203125)"/><use xlink:href="#g" transform="matrix(1,0,0,1,452.05518926744935,526.0899091015665) translate(12.794643554687497 91.936376953125)"/><path d="M587.4 857.67c0 42.9-34.78 77.67-77.67 77.67-42.9 0-77.68-34.77-77.68-77.67S466.84 780 509.74 780c42.9 0 77.67 34.77 77.67 77.67z" stroke="#e08fff" stroke-width="5" fill="#3a414a"/><use xlink:href="#h" transform="matrix(1,0,0,1,452.05518926744935,780) translate(27.863095703124994 74.280908203125)"/><use xlink:href="#i" transform="matrix(1,0,0,1,452.05518926744935,780) translate(27.863095703124994 91.936376953125)"/><path d="M540 248a8 8 0 0 1 8-8h184a8 8 0 0 1 8 8v67.76a8 8 0 0 1-8 8H548a8 8 0 0 1-8-8z" fill="#3a414a"/><path d="M740 240H548a8 8 0 0 0-8 8v67.76a8 8 0 0 0 8 8h192" stroke="#e08fff" stroke-width="5" fill="none"/><use xlink:href="#j" transform="matrix(1,0,0,1,580,256.75229821915366) translate(0 13.936376953125002)"/><use xlink:href="#k" transform="matrix(1,0,0,1,580,256.75229821915366) translate(60.27380859375001 13.936376953125002)"/><use xlink:href="#l" transform="matrix(1,0,0,1,580,256.75229821915366) translate(0 31.591845703125006)"/><use xlink:href="#m" transform="matrix(1,0,0,1,580,256.75229821915366) translate(0 49.247314453125014)"/><path d="M1517.67 596.1c0 42.9-34.77 77.66-77.67 77.66s-77.67-34.77-77.67-77.67 34.77-77.68 77.67-77.68 77.67 34.77 77.67 77.67z" stroke="#e08fff" stroke-width="5" fill="#3a414a"/><use xlink:href="#n" transform="matrix(1,0,0,1,1382.328418005798,518.4183248426903) translate(17.817460937499995 65.453173828125)"/><use xlink:href="#o" transform="matrix(1,0,0,1,1382.328418005798,518.4183248426903) translate(42.9315478515625 83.108642578125)"/><use xlink:href="#p" transform="matrix(1,0,0,1,1382.328418005798,518.4183248426903) translate(-17.342260742187506 100.76411132812501)"/><path d="M80 821.4a8 8 0 0 1 8-8h164a8 8 0 0 1 8 8v72.56a8 8 0 0 1-8 8H88a8 8 0 0 1-8-8z" fill="#3a414a"/><path d="M260 813.4H88a8 8 0 0 0-8 8v72.56a8 8 0 0 0 8 8h172" stroke="#e08fff" stroke-width="5" fill="none"/><use xlink:href="#q" transform="matrix(1,0,0,1,116,831.1015039211931) translate(0 14.453173828124996)"/><use xlink:href="#r" transform="matrix(1,0,0,1,116,831.1015039211931) translate(0 32.108642578125)"/><use xlink:href="#m" transform="matrix(1,0,0,1,116,831.1015039211931) translate(0 49.76411132812501)"/><path d="M1340 271.76a8 8 0 0 1 8-8h184a8 8 0 0 1 8 8v44a8 8 0 0 1-8 8h-184a8 8 0 0 1-8-8z" fill="#3a414a"/><path d="M1540 263.76h-192a8 8 0 0 0-8 8v44a8 8 0 0 0 8 8h192" stroke="#e08fff" stroke-width="5" fill="none"/><use xlink:href="#s" transform="matrix(1,0,0,1,1380,275.7614910957684) translate(34.885913085937496 23.108642578125)"/><path d="M534.27 524.83l1.52-4.66 2.55-6.9 2.87-6.8 3.2-6.82 3.64-6.94 4.16-7.18 4.88-7.7 6-8.6 8.23-10.82 40.12-49.08 5.07-7.28 3.98-6.26 3.3-5.7 2.78-5.33 2.4-5.12 2.1-5 1.85-4.93 1.6-4.93 1.4-4.98 1.18-5.08.73-3.73" stroke="#e08fff" stroke-width="5" stroke-linejoin="round" fill="none"/><path d="M536.65 525.53l-.8 2.44-.74-.28-3.97-1.2.8-2.5z" stroke="#e08fff" stroke-width=".05" fill="#e08fff"/><path d="M639.3 334.32l3.36 14.62-9.24-.8z" stroke="#e08fff" stroke-width="5" fill="#e08fff"/><path d="M483.68 502.15l-.2-.43-2.73-5.82-3.1-5.9-3.5-6.04-4.02-6.34-4.76-6.83-5.9-7.74-8.08-9.74-41.3-46.24-5.14-6.76-4.06-5.82-3.36-5.27-2.85-4.94-2.5-4.73-2.15-4.57-1.9-4.5-1.66-4.48-1.48-4.5-1.27-4.54-1.1-4.63-.9-4.77-.74-4.93-.53-5.14-.35-5.4-.07-3.34" stroke="#e08fff" stroke-width="5" stroke-linejoin="round" fill="none"/><path d="M489.17 517.96L480.1 506l8.77-3.03z" stroke="#e08fff" stroke-width="5" fill="#e08fff"/><path d="M382.48 326.26v2.56h-4.95v-2.56zM429 588.78h-6.4v-4.95h6.4z" stroke="#e08fff" stroke-width=".05" fill="#e08fff"/><path d="M431.05 588.3l-.08.48h-2.03v-4.95h3.13z" fill="#e08fff"/><path stroke="#e08fff" stroke-width=".05" fill="#e08fff"/><path d="M271.4 586.6l-.8-.25.8-.26z" fill="#e08fff"/><path d="M271.4 589.2l-8.82-2.85 8.8-2.86z" stroke="#e08fff" stroke-width=".05" fill="#e08fff"/><use xlink:href="#t" transform="matrix(1,0,0,1,271.3882350997883,576.833490132481) translate(0.0049999999999954525 14.9853515625)"/><use xlink:href="#u" transform="matrix(1,0,0,1,271.3882350997883,576.833490132481) translate(75.6173046875 14.9853515625)"/><path d="M407.7 623.03v4.95l-19.25-.02V623zm-142.7 4.9v-4.95h15.43v4.94z" stroke="#e08fff" stroke-width=".05" fill="#e08fff"/><path d="M265.06 627.92h-2.56v-4.94h2.56z" fill="#e08fff"/><path stroke="#e08fff" stroke-width=".05" fill="#e08fff"/><path d="M424.47 625.5l-14.27 4.64v-9.27z" fill="#e08fff"/><path d="M432.48 625.5l-24.75 8.05v-16.1zm-19.8 1.23l3.78-1.23-3.78-1.22z" stroke="#e08fff" stroke-width=".05" fill="#e08fff"/><use xlink:href="#v" transform="matrix(1,0,0,1,280.42744724913166,615.958082172718) translate(0.005000000000002558 14.9853515625)"/><path d="M1180.22 598.57h-15.08v-4.96h15.08z" stroke="#e08fff" stroke-width=".05" fill="#e08fff"/><path d="M1165.2 598.57h-2.62l.06-2.47-.03-2.5h2.6z" fill="#e08fff"/><path stroke="#e08fff" stroke-width=".05" fill="#e08fff"/><path d="M1351.74 596.1l-9.5 3.07V593z" fill="#e08fff"/><path d="M1359.75 596.1l-17.5 5.68v-5.2l1.48-.5-1.5-.47v-5.2z" stroke="#e08fff" stroke-width=".05" fill="#e08fff"/><use xlink:href="#w" transform="matrix(1,0,0,1,1180.2187543171763,541.0352193368922) translate(48.612910156249995 14.9853515625)"/><use xlink:href="#x" transform="matrix(1,0,0,1,1180.2187543171763,541.0352193368922) translate(54.013789062499995 37.7666015625)"/><use xlink:href="#y" transform="matrix(1,0,0,1,1180.2187543171763,541.0352193368922) translate(0.0049999999999954525 60.5478515625)"/><use xlink:href="#z" transform="matrix(1,0,0,1,1180.2187543171763,541.0352193368922) translate(48.612910156249995 83.3291015625)"/><use xlink:href="#A" transform="matrix(1,0,0,1,1180.2187543171763,541.0352193368922) translate(43.212031249999995 106.1103515625)"/><path d="M304.12 860.15H262.5v-4.95h41.62zm100.58 0h-57.37v-4.95h57.37z" stroke="#e08fff" stroke-width=".05" fill="#e08fff"/><path d="M262.56 860.15H260v-4.95h2.56z" fill="#e08fff"/><path stroke="#e08fff" stroke-width=".05" fill="#e08fff"/><path d="M421.46 857.67l-14.26 4.64v-9.26z" fill="#e08fff"/><path d="M429.47 857.67l-24.75 8.04v-16.07zm-19.8 1.23l3.8-1.23-3.8-1.23z" stroke="#e08fff" stroke-width=".05" fill="#e08fff"/><use xlink:href="#B" transform="matrix(1,0,0,1,304.12060807175754,848.1793944942019) translate(0.004999999999999005 14.9853515625)"/><path d="M432.2 1048.88h-4.95v-7.03h4.95zm80-40.6h-80v14.6h-4.95v-19.56h80v-62.98h4.95z" stroke="#e08fff" stroke-width=".05" fill="#e08fff"/><path d="M509.7 937.84l2.16-.02.34-.02v2.6h-4.95v-2.63z" fill="#e08fff"/><path stroke="#e08fff" stroke-width=".05" fill="#e08fff"/><path d="M429.73 1065.65l-4.64-14.27h9.26z" fill="#e08fff"/><path d="M429.73 1073.66l-8.05-24.75h16.1zm-1.23-19.8l1.23 3.78 1.22-3.78z" stroke="#e08fff" stroke-width=".05" fill="#e08fff"/><use xlink:href="#C" transform="matrix(1,0,0,1,391.92061891790127,1022.867397495522) translate(0.005000000000002558 14.9853515625)"/><path d="M507.4 1153.9c0 42.9-34.78 77.68-77.67 77.68-42.9 0-77.68-34.77-77.68-77.67s34.78-77.66 77.68-77.66c42.9 0 77.67 34.77 77.67 77.67z" stroke="#e08fff" stroke-width="5" fill="#3a414a"/><use xlink:href="#D" transform="matrix(1,0,0,1,372.05518926744935,1076.2385089042316) translate(37.908730468749994 74.280908203125)"/><use xlink:href="#E" transform="matrix(1,0,0,1,372.05518926744935,1076.2385089042316) translate(22.840278320312493 91.936376953125)"/><path d="M260.15 1048.88h-4.95v-6.82h4.95zm252.05-40.6H260.15v14.8h-4.95v-19.76h252.05v-62.98h4.95z" stroke="#e08fff" stroke-width=".05" fill="#e08fff"/><path d="M509.7 937.84l2.16-.02.34-.02v2.6h-4.95v-2.63z" fill="#e08fff"/><path stroke="#e08fff" stroke-width=".05" fill="#e08fff"/><path d="M257.67 1065.65l-4.63-14.27h9.27z" fill="#e08fff"/><path d="M257.67 1073.66l-8.04-24.75h16.08zm-1.23-19.8l1.23 3.78 1.23-3.78z" stroke="#e08fff" stroke-width=".05" fill="#e08fff"/><use xlink:href="#F" transform="matrix(1,0,0,1,209.06367183795192,1023.0711305818334) translate(0.005000000000002558 14.9853515625)"/><path d="M335.34 1153.9c0 42.9-34.77 77.68-77.67 77.68S180 1196.8 180 1153.9s34.78-77.66 77.67-77.66c42.9 0 77.67 34.77 77.67 77.67z" stroke="#e08fff" stroke-width="5" fill="#3a414a"/><use xlink:href="#D" transform="matrix(1,0,0,1,200,1076.2385089042316) translate(37.908730468749994 74.280908203125)"/><use xlink:href="#G" transform="matrix(1,0,0,1,200,1076.2385089042316) translate(12.794643554687497 91.936376953125)"/><path d="M834.8 1153.9c0 42.9-34.78 77.68-77.67 77.68-42.9 0-77.68-34.77-77.68-77.67s34.78-77.66 77.67-77.66c42.9 0 77.68 34.77 77.68 77.67z" stroke="#e08fff" stroke-width="5" fill="#3a414a"/><use xlink:href="#H" transform="matrix(1,0,0,1,699.4535425233025,1076.2385089042316) translate(7.7718261718749915 83.108642578125)"/><use xlink:href="#I" transform="matrix(1,0,0,1,699.4535425233025,1076.2385089042316) translate(58 83.108642578125)"/><path d="M662.74 1153.9c0 42.9-34.77 77.68-77.67 77.68s-77.67-34.77-77.67-77.67 34.77-77.66 77.67-77.66 77.67 34.77 77.67 77.67z" stroke="#e08fff" stroke-width="5" fill="#3a414a"/><use xlink:href="#H" transform="matrix(1,0,0,1,527.3983532558532,1076.2385089042316) translate(12.794643554687497 83.108642578125)"/><use xlink:href="#J" transform="matrix(1,0,0,1,527.3983532558532,1076.2385089042316) translate(63.022817382812505 83.108642578125)"/><path d="M587.54 1048.88h-4.94v-6.6h4.94zm-75.34-45.56h75.34v19.98h-4.94v-15.03h-75.35v-67.93h4.95z" stroke="#e08fff" stroke-width=".05" fill="#e08fff"/><path d="M509.7 937.84l2.16-.02.34-.02v2.6h-4.95v-2.63z" fill="#e08fff"/><path stroke="#e08fff" stroke-width=".05" fill="#e08fff"/><path d="M585.07 1065.65l-4.64-14.27h9.28z" fill="#e08fff"/><path d="M585.07 1073.66l-8.04-24.75h16.08zm-1.23-19.8l1.23 3.78 1.23-3.78z" stroke="#e08fff" stroke-width=".05" fill="#e08fff"/><use xlink:href="#K" transform="matrix(1,0,0,1,563.4664196250551,1023.2980747570357) translate(0.004999999999999005 14.9853515625)"/><path d="M759.6 1048.88h-4.95v-12.33h4.95zm-247.4-45.56h247.4v14.25h-4.95v-9.3h-247.4v-67.93h4.95z" stroke="#e08fff" stroke-width=".05" fill="#e08fff"/><path d="M509.7 937.84l2.16-.02.34-.02v2.6h-4.95v-2.63z" fill="#e08fff"/><path stroke="#e08fff" stroke-width=".05" fill="#e08fff"/><path d="M757.13 1065.65l-4.64-14.27h9.26z" fill="#e08fff"/><path d="M757.13 1073.66l-8.05-24.75h16.1zm-1.23-19.8l1.23 3.78 1.22-3.78z" stroke="#e08fff" stroke-width=".05" fill="#e08fff"/><use xlink:href="#L" transform="matrix(1,0,0,1,730.1207299862544,1017.5683295986746) translate(0.004999999999999005 14.9853515625)"/><path d="M1440 513.42v-162.3" stroke="#e08fff" stroke-width="5" fill="none"/><path d="M1442.47 516l-2.45-.08-2.15.03-.34.02v-2.62h4.94z" stroke="#e08fff" stroke-width=".05" fill="#e08fff"/><path d="M1440 334.35l4.63 14.27h-9.27z" stroke="#e08fff" stroke-width="5" fill="#e08fff"/><path d="M587.4 1661.66c0 42.9-34.78 77.67-77.67 77.67-42.9 0-77.68-34.77-77.68-77.67s34.78-77.67 77.68-77.67c42.9 0 77.67 34.77 77.67 77.66z" stroke="#e08fff" stroke-width="5" fill="#3a414a"/><use xlink:href="#h" transform="matrix(1,0,0,1,452.05518926744935,1583.9909262050007) translate(27.863095703124994 74.280908203125)"/><use xlink:href="#i" transform="matrix(1,0,0,1,452.05518926744935,1583.9909262050007) translate(27.863095703124994 91.936376953125)"/><path d="M80 1625.38a8 8 0 0 1 8-8h164a8 8 0 0 1 8 8v72.57a8 8 0 0 1-8 8H88a8 8 0 0 1-8-8z" fill="#3a414a"/><path d="M260 1617.38H88a8 8 0 0 0-8 8v72.57a8 8 0 0 0 8 8h172" stroke="#e08fff" stroke-width="5" fill="none"/><use xlink:href="#q" transform="matrix(1,0,0,1,116,1635.092430126194) translate(0 14.453173828124996)"/><use xlink:href="#M" transform="matrix(1,0,0,1,116,1635.092430126194) translate(0 32.108642578125)"/><use xlink:href="#m" transform="matrix(1,0,0,1,116,1635.092430126194) translate(0 49.76411132812501)"/><path d="M271.7 1664.14h-9.2v-4.95h9.2zm133 0h-24.97v-4.95h24.97z" stroke="#e08fff" stroke-width=".05" fill="#e08fff"/><path d="M262.56 1664.14H260v-4.95h2.56z" fill="#e08fff"/><path stroke="#e08fff" stroke-width=".05" fill="#e08fff"/><path d="M421.46 1661.66l-14.26 4.64v-9.27z" fill="#e08fff"/><path d="M429.47 1661.66l-24.75 8.04v-16.08zm-19.8 1.23l3.78-1.24-3.78-1.23z" stroke="#e08fff" stroke-width=".05" fill="#e08fff"/><use xlink:href="#N" transform="matrix(1,0,0,1,271.7153346342576,1629.3890706992029) translate(0.005000000000002558 14.9853515625)"/><use xlink:href="#O" transform="matrix(1,0,0,1,271.7153346342576,1629.3890706992029) translate(43.21203125 37.7666015625)"/><use xlink:href="#P" transform="matrix(1,0,0,1,271.7153346342576,1629.3890706992029) translate(21.608515625000003 60.5478515625)"/><path d="M512.2 1939.2h100.44v4.94h-105.4v-42.42h4.96zm0-124.8h-4.95v-70.07h4.95z" stroke="#e08fff" stroke-width=".05" fill="#e08fff"/><path d="M509.7 1741.84l2.16-.03h.34v2.6h-4.95v-2.64z" fill="#e08fff"/><path stroke="#e08fff" stroke-width=".05" fill="#e08fff"/><path d="M629.4 1941.66l-14.26 4.64v-9.27z" fill="#e08fff"/><path d="M637.42 1941.66l-24.75 8.04v-16.08zm-19.8 1.23l3.78-1.24-3.78-1.23z" stroke="#e08fff" stroke-width=".05" fill="#e08fff"/><use xlink:href="#Q" transform="matrix(1,0,0,1,455.7179821991513,1814.3895641974937) translate(5.405878906250003 14.9853515625)"/><use xlink:href="#O" transform="matrix(1,0,0,1,455.7179821991513,1814.3895641974937) translate(43.21203125 37.7666015625)"/><use xlink:href="#R" transform="matrix(1,0,0,1,455.7179821991513,1814.3895641974937) translate(0.005000000000002558 60.5478515625)"/><use xlink:href="#S" transform="matrix(1,0,0,1,455.7179821991513,1814.3895641974937) translate(21.608515625000003 83.3291015625)"/><path d="M795.34 1941.66c0 42.9-34.77 77.67-77.67 77.67S640 1984.56 640 1941.66s34.77-77.67 77.67-77.67 77.67 34.77 77.67 77.66z" stroke="#e08fff" stroke-width="5" fill="#3a414a"/><use xlink:href="#T" transform="matrix(1,0,0,1,660,1863.9909262050007) translate(32.885913085937496 83.108642578125)"/><path d="M720.15 1836.63h-4.95v-33.48h4.95zm0-120.8h-4.95v-51.7H592.4v-4.94h127.75z" stroke="#e08fff" stroke-width=".05" fill="#e08fff"/><path d="M592.46 1664.14h-2.64l.08-2.45-.03-2.17-.02-.34h2.6z" fill="#e08fff"/><path stroke="#e08fff" stroke-width=".05" fill="#e08fff"/><path d="M717.67 1853.4l-4.63-14.27h9.27z" fill="#e08fff"/><path d="M717.67 1861.4l-8.04-24.74h16.08zm-1.23-19.8l1.23 3.8 1.23-3.8z" stroke="#e08fff" stroke-width=".05" fill="#e08fff"/><use xlink:href="#U" transform="matrix(1,0,0,1,663.6627929317019,1715.8245034835004) translate(5.405878906250003 14.9853515625)"/><use xlink:href="#O" transform="matrix(1,0,0,1,663.6627929317019,1715.8245034835004) translate(43.21203125 37.7666015625)"/><use xlink:href="#R" transform="matrix(1,0,0,1,663.6627929317019,1715.8245034835004) translate(0.005000000000002558 60.5478515625)"/><use xlink:href="#V" transform="matrix(1,0,0,1,663.6627929317019,1715.8245034835004) translate(10.806757812500003 83.3291015625)"/><path d="M667.54 1543.97H512.2V1579h-4.95V1539H662.6v-20.47h4.94zM664.8 1454h-4.95v-11.3h4.95z" stroke="#e08fff" stroke-width=".05" fill="#e08fff"/><path d="M512.2 1581.57l-2.45-.08-2.15.02-.35.02v-2.6h4.95z" fill="#e08fff"/><path stroke="#e08fff" stroke-width=".05" fill="#e08fff"/><path d="M666.96 1440.2h-9.27l4.63-14.27z" fill="#e08fff"/><path d="M670.37 1442.67H654.3l8.03-24.75zm-9.27-4.95h2.46l-1.23-3.78z" stroke="#e08fff" stroke-width=".05" fill="#e08fff"/><g><use xlink:href="#W" transform="matrix(1,0,0,1,621.8629040000551,1454.0060081383378) translate(21.608515625000003 14.9853515625)"/><use xlink:href="#X" transform="matrix(1,0,0,1,621.8629040000551,1454.0060081383378) translate(0.005000000000002558 37.7666015625)"/><use xlink:href="#V" transform="matrix(1,0,0,1,621.8629040000551,1454.0060081383378) translate(0.005000000000002558 60.5478515625)"/></g><path d="M435.34 1337.67c0 42.9-34.77 77.67-77.67 77.67S280 1380.57 280 1337.67s34.77-77.67 77.67-77.67 77.67 34.78 77.67 77.67z" stroke="#e08fff" stroke-width="5" fill="#3a414a"/><g><use xlink:href="#Y" transform="matrix(1,0,0,1,300,1260) translate(42.9315478515625 47.79770507812499)"/><use xlink:href="#Z" transform="matrix(1,0,0,1,300,1260) translate(17.817460937499995 65.45317382812499)"/><use xlink:href="#aa" transform="matrix(1,0,0,1,300,1260) translate(2.7490087890624935 83.108642578125)"/><use xlink:href="#ab" transform="matrix(1,0,0,1,300,1260) translate(93.1597216796875 83.108642578125)"/><use xlink:href="#ac" transform="matrix(1,0,0,1,300,1260) translate(27.863095703124994 100.76411132812501)"/><use xlink:href="#ad" transform="matrix(1,0,0,1,300,1260) translate(17.817460937499995 118.41958007812501)"/></g><path d="M360.15 1540.52H512.2V1579h-4.95v-33.53H355.2v-25.44h4.95zm0-85.03h-4.95v-12.8h4.95z" stroke="#e08fff" stroke-width=".05" fill="#e08fff"/><path d="M512.2 1581.57l-2.45-.08-2.15.02-.35.02v-2.6h4.95z" fill="#e08fff"/><path stroke="#e08fff" stroke-width=".05" fill="#e08fff"/><path d="M362.3 1440.2h-9.26l4.63-14.27z" fill="#e08fff"/><path d="M365.7 1442.67h-16.07l8.04-24.75zm-9.26-4.95h2.46l-1.23-3.78z" stroke="#e08fff" stroke-width=".05" fill="#e08fff"/><g><use xlink:href="#ae" transform="matrix(1,0,0,1,314.4645507442019,1455.4875767920007) translate(16.207636718750003 14.9853515625)"/><use xlink:href="#X" transform="matrix(1,0,0,1,314.4645507442019,1455.4875767920007) translate(0.005000000000002558 37.7666015625)"/><use xlink:href="#V" transform="matrix(1,0,0,1,314.4645507442019,1455.4875767920007) translate(0.005000000000002558 60.5478515625)"/></g><path d="M740 1337.67c0 42.9-34.77 77.67-77.67 77.67s-77.67-34.77-77.67-77.67 34.77-77.67 77.67-77.67 77.67 34.78 77.67 77.67z" stroke="#e08fff" stroke-width="5" fill="#3a414a"/><g><use xlink:href="#af" transform="matrix(1,0,0,1,604.6568360115962,1260) translate(27.863095703124994 47.79770507812499)"/><use xlink:href="#Z" transform="matrix(1,0,0,1,604.6568360115962,1260) translate(17.817460937499995 65.45317382812499)"/><use xlink:href="#ag" transform="matrix(1,0,0,1,604.6568360115962,1260) translate(17.817460937499995 83.108642578125)"/><use xlink:href="#ah" transform="matrix(1,0,0,1,604.6568360115962,1260) translate(2.7490087890624864 100.76411132812501)"/><use xlink:href="#ac" transform="matrix(1,0,0,1,604.6568360115962,1260) translate(52.977182617187495 100.76411132812501)"/><use xlink:href="#ad" transform="matrix(1,0,0,1,604.6568360115962,1260) translate(17.817460937499995 118.41958007812501)"/></g><path d="M1042.54 892.64h-4.95v-30.9h4.94zm0-118.23h-4.95v-53.24h4.94z" stroke="#e08fff" stroke-width=".05" fill="#e08fff"/><path d="M1040.06 718.66l2.48-.03v2.6h-4.95v-2.62z" fill="#e08fff"/><path stroke="#e08fff" stroke-width=".05" fill="#e08fff"/><path d="M1040.07 909.4l-4.64-14.26h9.27z" fill="#e08fff"/><path d="M1040.07 917.42l-8.04-24.75h16.08zm-1.23-19.8l1.23 3.78 1.23-3.78z" stroke="#e08fff" stroke-width=".05" fill="#e08fff"/><g><use xlink:href="#ai" transform="matrix(1,0,0,1,1002.2616121523479,774.4148053213221) translate(5.405878906250003 14.9853515625)"/><use xlink:href="#aj" transform="matrix(1,0,0,1,1002.2616121523479,774.4148053213221) translate(10.806757812500003 37.7666015625)"/><use xlink:href="#ak" transform="matrix(1,0,0,1,1002.2616121523479,774.4148053213221) translate(5.405878906250003 60.5478515625)"/><use xlink:href="#A" transform="matrix(1,0,0,1,1002.2616121523479,774.4148053213221) translate(0.005000000000002558 83.3291015625)"/></g><path d="M1130.07 1010c0 49.7-40.3 90-90 90s-90-40.3-90-90 40.3-90 90-90 90 40.3 90 90z" stroke="#e08fff" stroke-width="5" fill="#3a414a"/><g><use xlink:href="#al" transform="matrix(1,0,0,1,970.0677644960979,920) translate(21.39208984375 84.1025390625)"/><use xlink:href="#am" transform="matrix(1,0,0,1,970.0677644960979,920) translate(75.40087890625 84.1025390625)"/><use xlink:href="#an" transform="matrix(1,0,0,1,970.0677644960979,920) translate(10.59033203125 106.8837890625)"/><use xlink:href="#ao" transform="matrix(1,0,0,1,970.0677644960979,920) translate(75.40087890625 106.8837890625)"/></g><path d="M1135.07 1010h97.57" stroke="#e08fff" stroke-width="5" fill="none"/><path d="M1135.13 1012.48h-2.63l.07-2.46v-1.48l-.06-1h2.63z" stroke="#e08fff" stroke-width=".05" fill="#e08fff"/><path d="M1249.4 1010l-14.26 4.63v-9.26z" stroke="#e08fff" stroke-width="5" fill="#e08fff"/><path d="M1260 988a8 8 0 0 1 8-8h224a8 8 0 0 1 8 8v44a8 8 0 0 1-8 8h-224a8 8 0 0 1-8-8z" fill="#3a414a"/><path d="M1500 980h-232a8 8 0 0 0-8 8v44a8 8 0 0 0 8 8h232" stroke="#e08fff" stroke-width="5" fill="none"/><g><use xlink:href="#ap" transform="matrix(1,0,0,1,1308,992) translate(39.5947265625 23.4931640625)"/></g><defs><path fill="#fff" d="M650-216c90 0 157-35 208-74v-235H584v-218h544v558C1004-84 858 20 635 20 235 20 80-276 80-681c0-416 146-689 558-689 277 0 398 160 462 375l-274 54c-31-108-73-197-185-197-231 0-262 217-262 457 0 149 22 263 67 344s113 121 204 121" id="aq"/><path fill="#fff" d="M775-193C708-75 621 20 439 20 226 20 106-93 106-306c0-251 170-341 417-346l223-4c4-143-12-264-148-264-103 0-141 58-150 153l-293-14c37-219 194-321 455-321 263 0 418 130 417 390v392c1 84 5 161 89 160 21 0 42-2 62-6v152c-57 15-108 27-180 26-145 0-202-73-217-205h-6zm-256 17c168 0 234-139 227-325-166 4-347-25-347 173 0 94 33 152 120 152" id="ar"/><path fill="#fff" d="M934-1102c199 0 220 177 220 381V0H926c-2-260 10-533-4-785-4-72-14-138-83-138-34 0-61 27-81 81s-29 134-29 241V0H501c-2-260 9-533-5-785-4-72-13-138-82-138-46 0-65 47-80 93-21 67-30 155-30 248V0H75c-3-360 6-732-6-1082h209c6 50 3 123 8 175 36-100 83-195 216-195 135 0 166 79 196 196 42-105 93-196 236-196" id="as"/><path fill="#fff" d="M1113-274C1038-96 884 20 626 20c-352 0-526-209-526-566 0-358 185-556 530-556 358 0 496 251 499 615H395c5 180 68 319 245 319 102 0 186-45 208-129zM857-663c-6-177-128-307-315-247-94 30-141 121-145 247h460" id="at"/><g id="a"><use transform="matrix(0.008173828125000001,0,0,0.008173828125000001,0,0)" xlink:href="#aq"/><use transform="matrix(0.008173828125000001,0,0,0.008173828125000001,10.045634765625001,0)" xlink:href="#ar"/><use transform="matrix(0.008173828125000001,0,0,0.008173828125000001,20.091269531250003,0)" xlink:href="#as"/><use transform="matrix(0.008173828125000001,0,0,0.008173828125000001,30.136904296875002,0)" xlink:href="#at"/></g><path fill="#fff" d="M796 0v-574H433V0H138v-1349h295v531h363v-531h295V0H796" id="au"/><path fill="#fff" d="M768-1103c247 0 336 167 336 416V0H824v-619c-3-164-24-273-171-273-164 0-229 142-229 312V0H143c-4-359 9-736-8-1082h268c7 63 12 146 13 215h4c67-145 160-236 348-236" id="av"/><path fill="#fff" d="M802-909c-3-189-2-383-2-575h281v1248c-1 83 4 168 8 236H817c-9-50-14-117-15-176h-4C735-49 651 20 482 20 191 20 97-238 97-539c0-243 66-432 221-519 50-28 108-42 175-42 162 2 253 78 309 191zm-70 658c91-113 93-462 2-584-46-61-145-100-224-53-96 56-119 190-120 349 0 123 17 214 52 275 46 82 130 115 222 74 25-12 46-33 68-61" id="aw"/><path fill="#fff" d="M794-190h353V0H118v-190h395v-1104H223v-190h571v1294" id="ax"/><path fill="#fff" d="M875-1102c70 0 148 7 206 17v237c-110-17-267-37-359 15-123 69-192 207-192 395V0H250c-10-367 32-789-52-1082h271c19 69 36 149 46 228h4c52-151 151-250 356-248" id="ay"/><g id="b"><use transform="matrix(0.008173828125000001,0,0,0.008173828125000001,0,0)" xlink:href="#au"/><use transform="matrix(0.008173828125000001,0,0,0.008173828125000001,10.045634765625001,0)" xlink:href="#ar"/><use transform="matrix(0.008173828125000001,0,0,0.008173828125000001,20.091269531250003,0)" xlink:href="#av"/><use transform="matrix(0.008173828125000001,0,0,0.008173828125000001,30.136904296875002,0)" xlink:href="#aw"/><use transform="matrix(0.008173828125000001,0,0,0.008173828125000001,40.182539062500005,0)" xlink:href="#ax"/><use transform="matrix(0.008173828125000001,0,0,0.008173828125000001,50.22817382812501,0)" xlink:href="#at"/><use transform="matrix(0.008173828125000001,0,0,0.008173828125000001,60.27380859375001,0)" xlink:href="#ay"/></g><path fill="#fff" d="M616-1349c316 3 526 118 526 426 0 301-201 442-514 447H431V0H136v-1349h480zm-25 646c164 1 254-62 254-215 0-157-99-200-262-202H431v417h160" id="az"/><path fill="#fff" d="M143 212c82 12 185 12 233-31 50-45 83-117 110-192L38-1082h297c100 284 211 557 291 861 72-305 176-578 270-861h294L742 57c-80 192-156 368-417 368-60 0-131-4-182-13V212" id="aA"/><g id="c"><use transform="matrix(0.008173828125000001,0,0,0.008173828125000001,0,0)" xlink:href="#az"/><use transform="matrix(0.008173828125000001,0,0,0.008173828125000001,10.045634765625001,0)" xlink:href="#ax"/><use transform="matrix(0.008173828125000001,0,0,0.008173828125000001,20.091269531250003,0)" xlink:href="#ar"/><use transform="matrix(0.008173828125000001,0,0,0.008173828125000001,30.136904296875002,0)" xlink:href="#aA"/><use transform="matrix(0.008173828125000001,0,0,0.008173828125000001,40.182539062500005,0)" xlink:href="#at"/><use transform="matrix(0.008173828125000001,0,0,0.008173828125000001,50.22817382812501,0)" xlink:href="#ay"/></g><path fill="#fff" d="M609-1161c-125 0-218 36-218 153 0 149 166 161 290 196 235 67 484 129 484 421 0 300-239 408-554 411C302 23 93-114 38-367l285-37c32 128 131 205 296 203 143-2 259-31 259-173 0-164-197-172-333-212-218-64-441-131-441-405 0-276 231-379 511-379 299 0 463 114 513 363l-286 29c-28-115-96-183-233-183" id="aB"/><path fill="#fff" d="M1109-360C1066-122 902 20 624 20c-347 0-514-209-514-555 0-353 168-567 518-567 270 0 425 136 473 361l-283 14c-16-106-75-183-196-182-75 0-130 31-165 93s-52 152-52 270c0 249 74 374 221 374 120 0 188-82 201-201" id="aC"/><g id="d"><use transform="matrix(0.008173828125000001,0,0,0.008173828125000001,0,0)" xlink:href="#aB"/><use transform="matrix(0.008173828125000001,0,0,0.008173828125000001,10.045634765625001,0)" xlink:href="#aC"/><use transform="matrix(0.008173828125000001,0,0,0.008173828125000001,20.091269531250003,0)" xlink:href="#ay"/><use transform="matrix(0.008173828125000001,0,0,0.008173828125000001,30.136904296875002,0)" xlink:href="#at"/><use transform="matrix(0.008173828125000001,0,0,0.008173828125000001,40.182539062500005,0)" xlink:href="#at"/><use transform="matrix(0.008173828125000001,0,0,0.008173828125000001,50.22817382812501,0)" xlink:href="#av"/></g><path fill="#fff" d="M836-709c204 20 350 118 350 324C1186-112 992 0 719 0H137v-1349h525c258 3 443 87 443 339 0 176-107 269-269 301zM643-811c107 0 165-53 165-159 0-113-61-160-167-160H432v319h211zm46 592c128-1 201-59 200-191-1-128-80-183-207-183H432v374h257" id="aD"/><path fill="#fff" d="M471 20c-247 0-336-169-336-415v-687h281v607c4 148 31 285 172 285 152 0 207-150 207-312v-580h281c4 359-9 736 8 1082H816c-7-63-11-146-12-215h-5C736-76 644 20 471 20" id="aE"/><path fill="#fff" d="M844-1321c-130 0-195 53-191 182v57h443v190H653V0H373v-892H117v-190h256v-83c5-247 162-348 422-349 120-1 232 13 327 28v184c-84-10-183-19-278-19" id="aF"/><g id="e"><use transform="matrix(0.008173828125000001,0,0,0.008173828125000001,0,0)" xlink:href="#aD"/><use transform="matrix(0.008173828125000001,0,0,0.008173828125000001,10.045634765625001,0)" xlink:href="#aE"/><use transform="matrix(0.008173828125000001,0,0,0.008173828125000001,20.091269531250003,0)" xlink:href="#aF"/><use transform="matrix(0.008173828125000001,0,0,0.008173828125000001,30.136904296875002,0)" xlink:href="#aF"/><use transform="matrix(0.008173828125000001,0,0,0.008173828125000001,40.182539062500005,0)" xlink:href="#at"/><use transform="matrix(0.008173828125000001,0,0,0.008173828125000001,50.22817382812501,0)" xlink:href="#ay"/></g><path fill="#fff" d="M424-1484c-2 206 5 424-8 618h4c67-145 160-234 348-236 251-3 335 167 336 416V0H824v-621c0-150-23-276-173-270-163 7-227 142-227 312V0H143v-1484h281" id="aG"/><path fill="#fff" d="M622-916c-112 2-200 14-200 111 0 90 89 101 168 121 234 58 514 77 514 368C1104-4 751 54 434 5 267-21 161-112 121-270l247-37c24 111 113 145 252 141 114-3 226-12 226-124 0-101-103-113-192-134-225-54-490-76-490-351 0-247 201-328 458-328 245 0 413 88 457 292l-249 26c-16-98-92-133-208-131" id="aH"/><path fill="#fff" d="M794-190h353V0H118v-190h395v-702H223v-190h571v892zM513-1277v-207h281v207H513" id="aI"/><g id="f"><use transform="matrix(0.008173828125000001,0,0,0.008173828125000001,0,0)" xlink:href="#az"/><use transform="matrix(0.008173828125000001,0,0,0.008173828125000001,10.045634765625001,0)" xlink:href="#aG"/><use transform="matrix(0.008173828125000001,0,0,0.008173828125000001,20.091269531250003,0)" xlink:href="#aA"/><use transform="matrix(0.008173828125000001,0,0,0.008173828125000001,30.136904296875002,0)" xlink:href="#aH"/><use transform="matrix(0.008173828125000001,0,0,0.008173828125000001,40.182539062500005,0)" xlink:href="#aI"/><use transform="matrix(0.008173828125000001,0,0,0.008173828125000001,50.22817382812501,0)" xlink:href="#aC"/><use transform="matrix(0.008173828125000001,0,0,0.008173828125000001,60.27380859375001,0)" xlink:href="#ar"/><use transform="matrix(0.008173828125000001,0,0,0.008173828125000001,70.31944335937501,0)" xlink:href="#ax"/></g><path fill="#fff" d="M711 13c-250 0-386-99-385-349l2-556H161v-190h181l88-282h176v282h385v190H606v530c-10 130 45 186 174 184 91-2 176-11 255-27v186C933-1 833 13 711 13" id="aJ"/><g id="g"><use transform="matrix(0.008173828125000001,0,0,0.008173828125000001,0,0)" xlink:href="#aI"/><use transform="matrix(0.008173828125000001,0,0,0.008173828125000001,10.045634765625001,0)" xlink:href="#av"/><use transform="matrix(0.008173828125000001,0,0,0.008173828125000001,20.091269531250003,0)" xlink:href="#aJ"/><use transform="matrix(0.008173828125000001,0,0,0.008173828125000001,30.136904296875002,0)" xlink:href="#at"/><use transform="matrix(0.008173828125000001,0,0,0.008173828125000001,40.182539062500005,0)" xlink:href="#ay"/><use transform="matrix(0.008173828125000001,0,0,0.008173828125000001,50.22817382812501,0)" xlink:href="#aF"/><use transform="matrix(0.008173828125000001,0,0,0.008173828125000001,60.27380859375001,0)" xlink:href="#ar"/><use transform="matrix(0.008173828125000001,0,0,0.008173828125000001,70.31944335937501,0)" xlink:href="#aC"/><use transform="matrix(0.008173828125000001,0,0,0.008173828125000001,80.36507812500001,0)" xlink:href="#at"/></g><g id="h"><use transform="matrix(0.008173828125000001,0,0,0.008173828125000001,0,0)" xlink:href="#az"/><use transform="matrix(0.008173828125000001,0,0,0.008173828125000001,10.045634765625001,0)" xlink:href="#ax"/><use transform="matrix(0.008173828125000001,0,0,0.008173828125000001,20.091269531250003,0)" xlink:href="#ar"/><use transform="matrix(0.008173828125000001,0,0,0.008173828125000001,30.136904296875002,0)" xlink:href="#aA"/><use transform="matrix(0.008173828125000001,0,0,0.008173828125000001,40.182539062500005,0)" xlink:href="#at"/><use transform="matrix(0.008173828125000001,0,0,0.008173828125000001,50.22817382812501,0)" xlink:href="#ay"/></g><path fill="#fff" d="M615-1370c385 0 542 273 542 691 0 230-47 404-140 522S790 20 615 20C231 20 72-262 72-679c0-419 158-691 543-691zM797-330c77-133 78-564 0-695-44-73-101-113-182-113s-139 40-183 114c-79 133-78 560 0 694 45 77 102 118 183 118s138-41 182-118" id="aK"/><path fill="#fff" d="M429-1484c1 190-1 388 0 572 54-116 155-191 317-191 300 0 386 257 386 563 0 241-73 429-226 518-49 28-106 42-169 42-162 0-251-81-306-196h-4c-1 59-5 127-15 176H140c4-67 9-153 8-236v-1248h281zm66 648c-93 114-92 466 1 585 35 45 77 79 142 79 64 0 112-31 148-92 69-115 68-440-2-561-39-68-131-111-221-70-25 11-46 32-68 59" id="aL"/><path fill="#fff" d="M380 206c143 0 202-71 202-216v-882H228v-190h636V13c-6 279-184 412-459 412-107 0-208-16-288-43V172c69 16 169 34 263 34zm203-1483v-207h281v207H583" id="aM"/><g id="i"><use transform="matrix(0.008173828125000001,0,0,0.008173828125000001,0,0)" xlink:href="#aK"/><use transform="matrix(0.008173828125000001,0,0,0.008173828125000001,10.045634765625001,0)" xlink:href="#aL"/><use transform="matrix(0.008173828125000001,0,0,0.008173828125000001,20.091269531250003,0)" xlink:href="#aM"/><use transform="matrix(0.008173828125000001,0,0,0.008173828125000001,30.136904296875002,0)" xlink:href="#at"/><use transform="matrix(0.008173828125000001,0,0,0.008173828125000001,40.182539062500005,0)" xlink:href="#aC"/><use transform="matrix(0.008173828125000001,0,0,0.008173828125000001,50.22817382812501,0)" xlink:href="#aJ"/></g><path fill="#fff" d="M616-1102c361 0 521 202 521 560 0 354-171 562-527 562C259 20 92-192 92-542c0-351 169-560 524-560zm-9 930c200-2 236-165 236-370 0-199-27-367-223-367-195 0-233 146-233 367 0 129 18 223 55 282s92 88 165 88" id="aN"/><g id="j"><use transform="matrix(0.008173828125000001,0,0,0.008173828125000001,0,0)" xlink:href="#aq"/><use transform="matrix(0.008173828125000001,0,0,0.008173828125000001,10.045634765625001,0)" xlink:href="#aN"/><use transform="matrix(0.008173828125000001,0,0,0.008173828125000001,20.091269531250003,0)" xlink:href="#aw"/><use transform="matrix(0.008173828125000001,0,0,0.008173828125000001,30.136904296875002,0)" xlink:href="#aN"/><use transform="matrix(0.008173828125000001,0,0,0.008173828125000001,40.182539062500005,0)" xlink:href="#aJ"/></g><path fill="#fff" d="M881 0L558-557 431-415V0H136v-1349h295v599l436-599h343L750-770 1229 0H881" id="aO"/><g id="k"><use transform="matrix(0.008173828125000001,0,0,0.008173828125000001,0,0)" xlink:href="#aO"/><use transform="matrix(0.008173828125000001,0,0,0.008173828125000001,10.045634765625001,0)" xlink:href="#at"/><use transform="matrix(0.008173828125000001,0,0,0.008173828125000001,20.091269531250003,0)" xlink:href="#aA"/></g><path fill="#fff" d="M157-1349h916v228H762v893h311V0H157v-228h311v-893H157v-228" id="aP"/><path fill="#fff" d="M427-171c3 195 2 397 2 596H148V-846c1-83-4-168-8-236h272c10 49 14 118 15 176h4c59-114 151-197 316-197 291 0 385 259 385 560 0 243-65 433-220 521-50 28-109 42-176 42-162-2-253-78-309-191zm69-661c-91 113-92 463-1 586 46 62 145 101 225 54 96-57 118-191 119-351 0-123-18-215-53-276-46-82-128-115-220-74-25 12-48 33-70 61" id="aQ"/><g id="l"><use transform="matrix(0.008173828125000001,0,0,0.008173828125000001,0,0)" xlink:href="#aP"/><use transform="matrix(0.008173828125000001,0,0,0.008173828125000001,10.045634765625001,0)" xlink:href="#av"/><use transform="matrix(0.008173828125000001,0,0,0.008173828125000001,20.091269531250003,0)" xlink:href="#aQ"/><use transform="matrix(0.008173828125000001,0,0,0.008173828125000001,30.136904296875002,0)" xlink:href="#aE"/><use transform="matrix(0.008173828125000001,0,0,0.008173828125000001,40.182539062500005,0)" xlink:href="#aJ"/></g><path fill="#fff" d="M1157-949c0 209-118 316-279 368L1227 0H895L605-515H432V0H137v-1349h494c317-2 526 111 526 400zM608-744c158 1 248-51 252-193 5-207-223-184-428-183v376h176" id="aR"/><path fill="#fff" d="M1108-33c-3 314-178 467-492 467-243 0-400-94-447-291l281-33c17 79 82 141 174 141 176 0 212-155 205-347-2-40 5-80 0-115C773-85 665-12 501-12c-288 0-377-242-377-538 0-242 65-426 223-510 50-26 108-39 175-39 160 0 253 78 307 191h5c1-58 5-125 14-174h266c-12 335-3 703-6 1049zM811-384c25-82 27-259 1-342-30-99-77-180-190-180-172 0-205 171-205 356 0 116 18 202 54 258 48 76 129 107 221 70 62-25 96-86 119-162" id="aS"/><g id="m"><use transform="matrix(0.008173828125000001,0,0,0.008173828125000001,0,0)" xlink:href="#aR"/><use transform="matrix(0.008173828125000001,0,0,0.008173828125000001,10.045634765625001,0)" xlink:href="#at"/><use transform="matrix(0.008173828125000001,0,0,0.008173828125000001,20.091269531250003,0)" xlink:href="#aS"/><use transform="matrix(0.008173828125000001,0,0,0.008173828125000001,30.136904296875002,0)" xlink:href="#aI"/><use transform="matrix(0.008173828125000001,0,0,0.008173828125000001,40.182539062500005,0)" xlink:href="#aH"/><use transform="matrix(0.008173828125000001,0,0,0.008173828125000001,50.22817382812501,0)" xlink:href="#aJ"/><use transform="matrix(0.008173828125000001,0,0,0.008173828125000001,60.27380859375001,0)" xlink:href="#ay"/><use transform="matrix(0.008173828125000001,0,0,0.008173828125000001,70.31944335937501,0)" xlink:href="#aA"/></g><g id="n"><use transform="matrix(0.008173828125000001,0,0,0.008173828125000001,0,0)" xlink:href="#aq"/><use transform="matrix(0.008173828125000001,0,0,0.008173828125000001,10.045634765625001,0)" xlink:href="#at"/><use transform="matrix(0.008173828125000001,0,0,0.008173828125000001,20.091269531250003,0)" xlink:href="#av"/><use transform="matrix(0.008173828125000001,0,0,0.008173828125000001,30.136904296875002,0)" xlink:href="#at"/><use transform="matrix(0.008173828125000001,0,0,0.008173828125000001,40.182539062500005,0)" xlink:href="#ay"/><use transform="matrix(0.008173828125000001,0,0,0.008173828125000001,50.22817382812501,0)" xlink:href="#ar"/><use transform="matrix(0.008173828125000001,0,0,0.008173828125000001,60.27380859375001,0)" xlink:href="#aJ"/><use transform="matrix(0.008173828125000001,0,0,0.008173828125000001,70.31944335937501,0)" xlink:href="#at"/></g><path fill="#fff" d="M1028 0H784c-56-191-119-378-170-573C562-377 495-191 437 0H194L11-1082h228c32 239 67 472 95 714 4 40 7 80 7 119 53-195 119-378 177-568h193c56 190 120 371 169 568-1-79 11-158 21-226l91-607h226" id="aT"/><g id="o"><use transform="matrix(0.008173828125000001,0,0,0.008173828125000001,0,0)" xlink:href="#av"/><use transform="matrix(0.008173828125000001,0,0,0.008173828125000001,10.045634765625001,0)" xlink:href="#at"/><use transform="matrix(0.008173828125000001,0,0,0.008173828125000001,20.091269531250003,0)" xlink:href="#aT"/></g><path fill="#fff" d="M138 0v-199l570-680H179v-203h849v201L461-205h616V0H138" id="aU"/><g id="p"><use transform="matrix(0.008173828125000001,0,0,0.008173828125000001,0,0)" xlink:href="#au"/><use transform="matrix(0.008173828125000001,0,0,0.008173828125000001,10.045634765625001,0)" xlink:href="#aN"/><use transform="matrix(0.008173828125000001,0,0,0.008173828125000001,20.091269531250003,0)" xlink:href="#ay"/><use transform="matrix(0.008173828125000001,0,0,0.008173828125000001,30.136904296875002,0)" xlink:href="#aI"/><use transform="matrix(0.008173828125000001,0,0,0.008173828125000001,40.182539062500005,0)" xlink:href="#aU"/><use transform="matrix(0.008173828125000001,0,0,0.008173828125000001,50.22817382812501,0)" xlink:href="#aN"/><use transform="matrix(0.008173828125000001,0,0,0.008173828125000001,60.27380859375001,0)" xlink:href="#av"/><use transform="matrix(0.008173828125000001,0,0,0.008173828125000001,70.31944335937501,0)" xlink:href="#aJ"/><use transform="matrix(0.008173828125000001,0,0,0.008173828125000001,80.36507812500001,0)" xlink:href="#ar"/><use transform="matrix(0.008173828125000001,0,0,0.008173828125000001,90.410712890625,0)" xlink:href="#ax"/><use transform="matrix(0.008173828125000001,0,0,0.008173828125000001,100.45634765625,0)" xlink:href="#aB"/><use transform="matrix(0.008173828125000001,0,0,0.008173828125000001,110.501982421875,0)" xlink:href="#ax"/><use transform="matrix(0.008173828125000001,0,0,0.008173828125000001,120.5476171875,0)" xlink:href="#aI"/><use transform="matrix(0.008173828125000001,0,0,0.008173828125000001,130.593251953125,0)" xlink:href="#aC"/><use transform="matrix(0.008173828125000001,0,0,0.008173828125000001,140.63888671875,0)" xlink:href="#at"/></g><g id="q"><use transform="matrix(0.008173828125000001,0,0,0.008173828125000001,0,0)" xlink:href="#aq"/><use transform="matrix(0.008173828125000001,0,0,0.008173828125000001,10.045634765625001,0)" xlink:href="#aN"/><use transform="matrix(0.008173828125000001,0,0,0.008173828125000001,20.091269531250003,0)" xlink:href="#aw"/><use transform="matrix(0.008173828125000001,0,0,0.008173828125000001,30.136904296875002,0)" xlink:href="#aN"/><use transform="matrix(0.008173828125000001,0,0,0.008173828125000001,40.182539062500005,0)" xlink:href="#aJ"/></g><g id="r"><use transform="matrix(0.008173828125000001,0,0,0.008173828125000001,0,0)" xlink:href="#aO"/><use transform="matrix(0.008173828125000001,0,0,0.008173828125000001,10.045634765625001,0)" xlink:href="#at"/><use transform="matrix(0.008173828125000001,0,0,0.008173828125000001,20.091269531250003,0)" xlink:href="#aA"/><use transform="matrix(0.008173828125000001,0,0,0.008173828125000001,30.136904296875002,0)" xlink:href="#aI"/><use transform="matrix(0.008173828125000001,0,0,0.008173828125000001,40.182539062500005,0)" xlink:href="#av"/><use transform="matrix(0.008173828125000001,0,0,0.008173828125000001,50.22817382812501,0)" xlink:href="#aQ"/><use transform="matrix(0.008173828125000001,0,0,0.008173828125000001,60.27380859375001,0)" xlink:href="#aE"/><use transform="matrix(0.008173828125000001,0,0,0.008173828125000001,70.31944335937501,0)" xlink:href="#aJ"/></g><g id="s"><use transform="matrix(0.008173828125000001,0,0,0.008173828125000001,0,0)" xlink:href="#aT"/><use transform="matrix(0.008173828125000001,0,0,0.008173828125000001,10.045634765625001,0)" xlink:href="#aN"/><use transform="matrix(0.008173828125000001,0,0,0.008173828125000001,20.091269531250003,0)" xlink:href="#ay"/><use transform="matrix(0.008173828125000001,0,0,0.008173828125000001,30.136904296875002,0)" xlink:href="#ax"/><use transform="matrix(0.008173828125000001,0,0,0.008173828125000001,40.182539062500005,0)" xlink:href="#aw"/></g><g id="t"><use transform="matrix(0.0087890625,0,0,0.0087890625,0,0)" xlink:href="#aB"/><use transform="matrix(0.0087890625,0,0,0.0087890625,10.8017578125,0)" xlink:href="#aC"/><use transform="matrix(0.0087890625,0,0,0.0087890625,21.603515625,0)" xlink:href="#ay"/><use transform="matrix(0.0087890625,0,0,0.0087890625,32.4052734375,0)" xlink:href="#at"/><use transform="matrix(0.0087890625,0,0,0.0087890625,43.20703125,0)" xlink:href="#at"/><use transform="matrix(0.0087890625,0,0,0.0087890625,54.0087890625,0)" xlink:href="#av"/></g><g id="u"><use transform="matrix(0.0087890625,0,0,0.0087890625,0,0)" xlink:href="#aw"/><use transform="matrix(0.0087890625,0,0,0.0087890625,10.8017578125,0)" xlink:href="#aI"/><use transform="matrix(0.0087890625,0,0,0.0087890625,21.603515625,0)" xlink:href="#aH"/><use transform="matrix(0.0087890625,0,0,0.0087890625,32.4052734375,0)" xlink:href="#aQ"/><use transform="matrix(0.0087890625,0,0,0.0087890625,43.20703125,0)" xlink:href="#ax"/><use transform="matrix(0.0087890625,0,0,0.0087890625,54.0087890625,0)" xlink:href="#ar"/><use transform="matrix(0.0087890625,0,0,0.0087890625,64.810546875,0)" xlink:href="#aA"/></g><g id="v"><use transform="matrix(0.0087890625,0,0,0.0087890625,0,0)" xlink:href="#aO"/><use transform="matrix(0.0087890625,0,0,0.0087890625,10.8017578125,0)" xlink:href="#at"/><use transform="matrix(0.0087890625,0,0,0.0087890625,21.603515625,0)" xlink:href="#aA"/><use transform="matrix(0.0087890625,0,0,0.0087890625,32.4052734375,0)" xlink:href="#aQ"/><use transform="matrix(0.0087890625,0,0,0.0087890625,43.20703125,0)" xlink:href="#ay"/><use transform="matrix(0.0087890625,0,0,0.0087890625,54.0087890625,0)" xlink:href="#at"/><use transform="matrix(0.0087890625,0,0,0.0087890625,64.810546875,0)" xlink:href="#aH"/><use transform="matrix(0.0087890625,0,0,0.0087890625,75.6123046875,0)" xlink:href="#aH"/><use transform="matrix(0.0087890625,0,0,0.0087890625,86.4140625,0)" xlink:href="#at"/><use transform="matrix(0.0087890625,0,0,0.0087890625,97.2158203125,0)" xlink:href="#aH"/></g><g id="w"><use transform="matrix(0.0087890625,0,0,0.0087890625,0,0)" xlink:href="#az"/><use transform="matrix(0.0087890625,0,0,0.0087890625,10.8017578125,0)" xlink:href="#ax"/><use transform="matrix(0.0087890625,0,0,0.0087890625,21.603515625,0)" xlink:href="#ar"/><use transform="matrix(0.0087890625,0,0,0.0087890625,32.4052734375,0)" xlink:href="#aA"/><use transform="matrix(0.0087890625,0,0,0.0087890625,43.20703125,0)" xlink:href="#at"/><use transform="matrix(0.0087890625,0,0,0.0087890625,54.0087890625,0)" xlink:href="#ay"/></g><g id="x"><use transform="matrix(0.0087890625,0,0,0.0087890625,0,0)" xlink:href="#at"/><use transform="matrix(0.0087890625,0,0,0.0087890625,10.8017578125,0)" xlink:href="#av"/><use transform="matrix(0.0087890625,0,0,0.0087890625,21.603515625,0)" xlink:href="#aJ"/><use transform="matrix(0.0087890625,0,0,0.0087890625,32.4052734375,0)" xlink:href="#at"/><use transform="matrix(0.0087890625,0,0,0.0087890625,43.20703125,0)" xlink:href="#ay"/></g><g id="y"><use transform="matrix(0.0087890625,0,0,0.0087890625,0,0)" xlink:href="#au"/><use transform="matrix(0.0087890625,0,0,0.0087890625,10.8017578125,0)" xlink:href="#aN"/><use transform="matrix(0.0087890625,0,0,0.0087890625,21.603515625,0)" xlink:href="#ay"/><use transform="matrix(0.0087890625,0,0,0.0087890625,32.4052734375,0)" xlink:href="#aI"/><use transform="matrix(0.0087890625,0,0,0.0087890625,43.20703125,0)" xlink:href="#aU"/><use transform="matrix(0.0087890625,0,0,0.0087890625,54.0087890625,0)" xlink:href="#aN"/><use transform="matrix(0.0087890625,0,0,0.0087890625,64.810546875,0)" xlink:href="#av"/><use transform="matrix(0.0087890625,0,0,0.0087890625,75.6123046875,0)" xlink:href="#aJ"/><use transform="matrix(0.0087890625,0,0,0.0087890625,86.4140625,0)" xlink:href="#ar"/><use transform="matrix(0.0087890625,0,0,0.0087890625,97.2158203125,0)" xlink:href="#ax"/><use transform="matrix(0.0087890625,0,0,0.0087890625,108.017578125,0)" xlink:href="#aB"/><use transform="matrix(0.0087890625,0,0,0.0087890625,118.8193359375,0)" xlink:href="#ax"/><use transform="matrix(0.0087890625,0,0,0.0087890625,129.62109375,0)" xlink:href="#aI"/><use transform="matrix(0.0087890625,0,0,0.0087890625,140.4228515625,0)" xlink:href="#aC"/><use transform="matrix(0.0087890625,0,0,0.0087890625,151.224609375,0)" xlink:href="#at"/></g><g id="z"><use transform="matrix(0.0087890625,0,0,0.0087890625,0,0)" xlink:href="#aH"/><use transform="matrix(0.0087890625,0,0,0.0087890625,10.8017578125,0)" xlink:href="#aI"/><use transform="matrix(0.0087890625,0,0,0.0087890625,21.603515625,0)" xlink:href="#aS"/><use transform="matrix(0.0087890625,0,0,0.0087890625,32.4052734375,0)" xlink:href="#av"/><use transform="matrix(0.0087890625,0,0,0.0087890625,43.20703125,0)" xlink:href="#ar"/><use transform="matrix(0.0087890625,0,0,0.0087890625,54.0087890625,0)" xlink:href="#ax"/></g><g id="A"><use transform="matrix(0.0087890625,0,0,0.0087890625,0,0)" xlink:href="#at"/><use transform="matrix(0.0087890625,0,0,0.0087890625,10.8017578125,0)" xlink:href="#as"/><use transform="matrix(0.0087890625,0,0,0.0087890625,21.603515625,0)" xlink:href="#aI"/><use transform="matrix(0.0087890625,0,0,0.0087890625,32.4052734375,0)" xlink:href="#aJ"/><use transform="matrix(0.0087890625,0,0,0.0087890625,43.20703125,0)" xlink:href="#aJ"/><use transform="matrix(0.0087890625,0,0,0.0087890625,54.0087890625,0)" xlink:href="#at"/><use transform="matrix(0.0087890625,0,0,0.0087890625,64.810546875,0)" xlink:href="#aw"/></g><path fill="#fff" d="M864 0L575-490l-121 84V0H173v-1484h281v850l386-448h302L762-660 1171 0H864" id="aV"/><g id="B"><use transform="matrix(0.0087890625,0,0,0.0087890625,0,0)" xlink:href="#aV"/><use transform="matrix(0.0087890625,0,0,0.0087890625,10.8017578125,0)" xlink:href="#at"/><use transform="matrix(0.0087890625,0,0,0.0087890625,21.603515625,0)" xlink:href="#aA"/><use transform="matrix(0.0087890625,0,0,0.0087890625,32.4052734375,0)" xlink:href="#aH"/></g><path fill="#fff" d="M462-1121v384h621v228H462V0H167v-1349h939v228H462" id="aW"/><g id="C"><use transform="matrix(0.0087890625,0,0,0.0087890625,0,0)" xlink:href="#aW"/><use transform="matrix(0.0087890625,0,0,0.0087890625,10.8017578125,0)" xlink:href="#aN"/><use transform="matrix(0.0087890625,0,0,0.0087890625,21.603515625,0)" xlink:href="#ay"/><use transform="matrix(0.0087890625,0,0,0.0087890625,32.4052734375,0)" xlink:href="#aT"/><use transform="matrix(0.0087890625,0,0,0.0087890625,43.20703125,0)" xlink:href="#ar"/><use transform="matrix(0.0087890625,0,0,0.0087890625,54.0087890625,0)" xlink:href="#ay"/><use transform="matrix(0.0087890625,0,0,0.0087890625,64.810546875,0)" xlink:href="#aw"/></g><path fill="#fff" d="M305-1169c27 366 9 780 14 1169H99v-1349h347c49 189 108 371 150 564 12 56 15 107 23 166 33-270 117-487 176-730h335V0H908c5-390-13-801 16-1169-52 285-130 541-199 809H507c-70-267-148-525-202-809" id="aX"/><path fill="#fff" d="M774 0H438L31-1082h297c94 290 200 568 280 872 83-304 194-581 291-872h294" id="aY"/><g id="D"><use transform="matrix(0.008173828125000001,0,0,0.008173828125000001,0,0)" xlink:href="#aX"/><use transform="matrix(0.008173828125000001,0,0,0.008173828125000001,10.045634765625001,0)" xlink:href="#aN"/><use transform="matrix(0.008173828125000001,0,0,0.008173828125000001,20.091269531250003,0)" xlink:href="#aY"/><use transform="matrix(0.008173828125000001,0,0,0.008173828125000001,30.136904296875002,0)" xlink:href="#at"/></g><g id="E"><use transform="matrix(0.008173828125000001,0,0,0.008173828125000001,0,0)" xlink:href="#aW"/><use transform="matrix(0.008173828125000001,0,0,0.008173828125000001,10.045634765625001,0)" xlink:href="#aN"/><use transform="matrix(0.008173828125000001,0,0,0.008173828125000001,20.091269531250003,0)" xlink:href="#ay"/><use transform="matrix(0.008173828125000001,0,0,0.008173828125000001,30.136904296875002,0)" xlink:href="#aT"/><use transform="matrix(0.008173828125000001,0,0,0.008173828125000001,40.182539062500005,0)" xlink:href="#ar"/><use transform="matrix(0.008173828125000001,0,0,0.008173828125000001,50.22817382812501,0)" xlink:href="#ay"/><use transform="matrix(0.008173828125000001,0,0,0.008173828125000001,60.27380859375001,0)" xlink:href="#aw"/></g><g id="F"><use transform="matrix(0.0087890625,0,0,0.0087890625,0,0)" xlink:href="#aD"/><use transform="matrix(0.0087890625,0,0,0.0087890625,10.8017578125,0)" xlink:href="#ar"/><use transform="matrix(0.0087890625,0,0,0.0087890625,21.603515625,0)" xlink:href="#aC"/><use transform="matrix(0.0087890625,0,0,0.0087890625,32.4052734375,0)" xlink:href="#aV"/><use transform="matrix(0.0087890625,0,0,0.0087890625,43.20703125,0)" xlink:href="#aT"/><use transform="matrix(0.0087890625,0,0,0.0087890625,54.0087890625,0)" xlink:href="#ar"/><use transform="matrix(0.0087890625,0,0,0.0087890625,64.810546875,0)" xlink:href="#ay"/><use transform="matrix(0.0087890625,0,0,0.0087890625,75.6123046875,0)" xlink:href="#aw"/><use transform="matrix(0.0087890625,0,0,0.0087890625,86.4140625,0)" xlink:href="#aH"/></g><g id="G"><use transform="matrix(0.008173828125000001,0,0,0.008173828125000001,0,0)" xlink:href="#aD"/><use transform="matrix(0.008173828125000001,0,0,0.008173828125000001,10.045634765625001,0)" xlink:href="#ar"/><use transform="matrix(0.008173828125000001,0,0,0.008173828125000001,20.091269531250003,0)" xlink:href="#aC"/><use transform="matrix(0.008173828125000001,0,0,0.008173828125000001,30.136904296875002,0)" xlink:href="#aV"/><use transform="matrix(0.008173828125000001,0,0,0.008173828125000001,40.182539062500005,0)" xlink:href="#aT"/><use transform="matrix(0.008173828125000001,0,0,0.008173828125000001,50.22817382812501,0)" xlink:href="#ar"/><use transform="matrix(0.008173828125000001,0,0,0.008173828125000001,60.27380859375001,0)" xlink:href="#ay"/><use transform="matrix(0.008173828125000001,0,0,0.008173828125000001,70.31944335937501,0)" xlink:href="#aw"/><use transform="matrix(0.008173828125000001,0,0,0.008173828125000001,80.36507812500001,0)" xlink:href="#aH"/></g><g id="H"><use transform="matrix(0.008173828125000001,0,0,0.008173828125000001,0,0)" xlink:href="#aX"/><use transform="matrix(0.008173828125000001,0,0,0.008173828125000001,10.045634765625001,0)" xlink:href="#aN"/><use transform="matrix(0.008173828125000001,0,0,0.008173828125000001,20.091269531250003,0)" xlink:href="#aY"/><use transform="matrix(0.008173828125000001,0,0,0.008173828125000001,30.136904296875002,0)" xlink:href="#at"/></g><g id="I"><use transform="matrix(0.008173828125000001,0,0,0.008173828125000001,0,0)" xlink:href="#aR"/><use transform="matrix(0.008173828125000001,0,0,0.008173828125000001,10.045634765625001,0)" xlink:href="#aI"/><use transform="matrix(0.008173828125000001,0,0,0.008173828125000001,20.091269531250003,0)" xlink:href="#aS"/><use transform="matrix(0.008173828125000001,0,0,0.008173828125000001,30.136904296875002,0)" xlink:href="#aG"/><use transform="matrix(0.008173828125000001,0,0,0.008173828125000001,40.182539062500005,0)" xlink:href="#aJ"/></g><path fill="#fff" d="M211 0v-1349h295v1121h616V0H211" id="aZ"/><g id="J"><use transform="matrix(0.008173828125000001,0,0,0.008173828125000001,0,0)" xlink:href="#aZ"/><use transform="matrix(0.008173828125000001,0,0,0.008173828125000001,10.045634765625001,0)" xlink:href="#at"/><use transform="matrix(0.008173828125000001,0,0,0.008173828125000001,20.091269531250003,0)" xlink:href="#aF"/><use transform="matrix(0.008173828125000001,0,0,0.008173828125000001,30.136904296875002,0)" xlink:href="#aJ"/></g><g id="K"><use transform="matrix(0.0087890625,0,0,0.0087890625,0,0)" xlink:href="#aZ"/><use transform="matrix(0.0087890625,0,0,0.0087890625,10.8017578125,0)" xlink:href="#at"/><use transform="matrix(0.0087890625,0,0,0.0087890625,21.603515625,0)" xlink:href="#aF"/><use transform="matrix(0.0087890625,0,0,0.0087890625,32.4052734375,0)" xlink:href="#aJ"/></g><g id="L"><use transform="matrix(0.0087890625,0,0,0.0087890625,0,0)" xlink:href="#aR"/><use transform="matrix(0.0087890625,0,0,0.0087890625,10.8017578125,0)" xlink:href="#aI"/><use transform="matrix(0.0087890625,0,0,0.0087890625,21.603515625,0)" xlink:href="#aS"/><use transform="matrix(0.0087890625,0,0,0.0087890625,32.4052734375,0)" xlink:href="#aG"/><use transform="matrix(0.0087890625,0,0,0.0087890625,43.20703125,0)" xlink:href="#aJ"/></g><path fill="#fff" d="M872-915c-35-112-84-223-220-223-91 0-156 41-204 116-89 137-87 550 2 688 51 79 116 122 209 122 150 0 197-126 240-244l273 52C1094-168 961 20 656 20 239 20 80-262 80-681c0-418 154-689 568-689 289 0 425 167 496 389" id="ba"/><g id="M"><use transform="matrix(0.008173828125000001,0,0,0.008173828125000001,0,0)" xlink:href="#ba"/><use transform="matrix(0.008173828125000001,0,0,0.008173828125000001,10.045634765625001,0)" xlink:href="#aN"/><use transform="matrix(0.008173828125000001,0,0,0.008173828125000001,20.091269531250003,0)" xlink:href="#ax"/><use transform="matrix(0.008173828125000001,0,0,0.008173828125000001,30.136904296875002,0)" xlink:href="#ax"/><use transform="matrix(0.008173828125000001,0,0,0.008173828125000001,40.182539062500005,0)" xlink:href="#aI"/><use transform="matrix(0.008173828125000001,0,0,0.008173828125000001,50.22817382812501,0)" xlink:href="#aH"/><use transform="matrix(0.008173828125000001,0,0,0.008173828125000001,60.27380859375001,0)" xlink:href="#aI"/><use transform="matrix(0.008173828125000001,0,0,0.008173828125000001,70.31944335937501,0)" xlink:href="#aN"/><use transform="matrix(0.008173828125000001,0,0,0.008173828125000001,80.36507812500001,0)" xlink:href="#av"/></g><g id="N"><use transform="matrix(0.0087890625,0,0,0.0087890625,0,0)" xlink:href="#aC"/><use transform="matrix(0.0087890625,0,0,0.0087890625,10.8017578125,0)" xlink:href="#aN"/><use transform="matrix(0.0087890625,0,0,0.0087890625,21.603515625,0)" xlink:href="#ax"/><use transform="matrix(0.0087890625,0,0,0.0087890625,32.4052734375,0)" xlink:href="#ax"/><use transform="matrix(0.0087890625,0,0,0.0087890625,43.20703125,0)" xlink:href="#aI"/><use transform="matrix(0.0087890625,0,0,0.0087890625,54.0087890625,0)" xlink:href="#aH"/><use transform="matrix(0.0087890625,0,0,0.0087890625,64.810546875,0)" xlink:href="#aI"/><use transform="matrix(0.0087890625,0,0,0.0087890625,75.6123046875,0)" xlink:href="#aN"/><use transform="matrix(0.0087890625,0,0,0.0087890625,86.4140625,0)" xlink:href="#av"/><use transform="matrix(0.0087890625,0,0,0.0087890625,97.2158203125,0)" xlink:href="#aH"/></g><path fill="#fff" d="M89 20l821-1504h228L321 20H89" id="bb"/><g id="O"><use transform="matrix(0.0087890625,0,0,0.0087890625,0,0)" xlink:href="#aT"/><use transform="matrix(0.0087890625,0,0,0.0087890625,10.8017578125,0)" xlink:href="#bb"/></g><g id="P"><use transform="matrix(0.0087890625,0,0,0.0087890625,0,0)" xlink:href="#aQ"/><use transform="matrix(0.0087890625,0,0,0.0087890625,10.8017578125,0)" xlink:href="#ax"/><use transform="matrix(0.0087890625,0,0,0.0087890625,21.603515625,0)" xlink:href="#ar"/><use transform="matrix(0.0087890625,0,0,0.0087890625,32.4052734375,0)" xlink:href="#aA"/><use transform="matrix(0.0087890625,0,0,0.0087890625,43.20703125,0)" xlink:href="#at"/><use transform="matrix(0.0087890625,0,0,0.0087890625,54.0087890625,0)" xlink:href="#ay"/></g><g id="Q"><use transform="matrix(0.0087890625,0,0,0.0087890625,0,0)" xlink:href="#ba"/><use transform="matrix(0.0087890625,0,0,0.0087890625,10.8017578125,0)" xlink:href="#aN"/><use transform="matrix(0.0087890625,0,0,0.0087890625,21.603515625,0)" xlink:href="#ax"/><use transform="matrix(0.0087890625,0,0,0.0087890625,32.4052734375,0)" xlink:href="#ax"/><use transform="matrix(0.0087890625,0,0,0.0087890625,43.20703125,0)" xlink:href="#aI"/><use transform="matrix(0.0087890625,0,0,0.0087890625,54.0087890625,0)" xlink:href="#aH"/><use transform="matrix(0.0087890625,0,0,0.0087890625,64.810546875,0)" xlink:href="#aI"/><use transform="matrix(0.0087890625,0,0,0.0087890625,75.6123046875,0)" xlink:href="#aN"/><use transform="matrix(0.0087890625,0,0,0.0087890625,86.4140625,0)" xlink:href="#av"/></g><g id="R"><use transform="matrix(0.0087890625,0,0,0.0087890625,0,0)" xlink:href="#aE"/><use transform="matrix(0.0087890625,0,0,0.0087890625,10.8017578125,0)" xlink:href="#av"/><use transform="matrix(0.0087890625,0,0,0.0087890625,21.603515625,0)" xlink:href="#aT"/><use transform="matrix(0.0087890625,0,0,0.0087890625,32.4052734375,0)" xlink:href="#ar"/><use transform="matrix(0.0087890625,0,0,0.0087890625,43.20703125,0)" xlink:href="#ax"/><use transform="matrix(0.0087890625,0,0,0.0087890625,54.0087890625,0)" xlink:href="#aV"/><use transform="matrix(0.0087890625,0,0,0.0087890625,64.810546875,0)" xlink:href="#ar"/><use transform="matrix(0.0087890625,0,0,0.0087890625,75.6123046875,0)" xlink:href="#aL"/><use transform="matrix(0.0087890625,0,0,0.0087890625,86.4140625,0)" xlink:href="#ax"/><use transform="matrix(0.0087890625,0,0,0.0087890625,97.2158203125,0)" xlink:href="#at"/></g><g id="S"><use transform="matrix(0.0087890625,0,0,0.0087890625,0,0)" xlink:href="#aS"/><use transform="matrix(0.0087890625,0,0,0.0087890625,10.8017578125,0)" xlink:href="#ay"/><use transform="matrix(0.0087890625,0,0,0.0087890625,21.603515625,0)" xlink:href="#aN"/><use transform="matrix(0.0087890625,0,0,0.0087890625,32.4052734375,0)" xlink:href="#aE"/><use transform="matrix(0.0087890625,0,0,0.0087890625,43.20703125,0)" xlink:href="#av"/><use transform="matrix(0.0087890625,0,0,0.0087890625,54.0087890625,0)" xlink:href="#aw"/></g><path fill="#fff" d="M496-1349c439 0 656 222 653 664C1146-265 969 0 556 0H135v-1349h361zm36 1121c245-7 319-187 320-457 1-273-91-439-361-436h-61v893h102" id="bc"/><g id="T"><use transform="matrix(0.008173828125000001,0,0,0.008173828125000001,0,0)" xlink:href="#bc"/><use transform="matrix(0.008173828125000001,0,0,0.008173828125000001,10.045634765625001,0)" xlink:href="#at"/><use transform="matrix(0.008173828125000001,0,0,0.008173828125000001,20.091269531250003,0)" xlink:href="#ar"/><use transform="matrix(0.008173828125000001,0,0,0.008173828125000001,30.136904296875002,0)" xlink:href="#aJ"/><use transform="matrix(0.008173828125000001,0,0,0.008173828125000001,40.182539062500005,0)" xlink:href="#aG"/></g><g id="U"><use transform="matrix(0.0087890625,0,0,0.0087890625,0,0)" xlink:href="#ba"/><use transform="matrix(0.0087890625,0,0,0.0087890625,10.8017578125,0)" xlink:href="#aN"/><use transform="matrix(0.0087890625,0,0,0.0087890625,21.603515625,0)" xlink:href="#ax"/><use transform="matrix(0.0087890625,0,0,0.0087890625,32.4052734375,0)" xlink:href="#ax"/><use transform="matrix(0.0087890625,0,0,0.0087890625,43.20703125,0)" xlink:href="#aI"/><use transform="matrix(0.0087890625,0,0,0.0087890625,54.0087890625,0)" xlink:href="#aH"/><use transform="matrix(0.0087890625,0,0,0.0087890625,64.810546875,0)" xlink:href="#aI"/><use transform="matrix(0.0087890625,0,0,0.0087890625,75.6123046875,0)" xlink:href="#aN"/><use transform="matrix(0.0087890625,0,0,0.0087890625,86.4140625,0)" xlink:href="#av"/></g><g id="V"><use transform="matrix(0.0087890625,0,0,0.0087890625,0,0)" xlink:href="#aN"/><use transform="matrix(0.0087890625,0,0,0.0087890625,10.8017578125,0)" xlink:href="#aL"/><use transform="matrix(0.0087890625,0,0,0.0087890625,21.603515625,0)" xlink:href="#aH"/><use transform="matrix(0.0087890625,0,0,0.0087890625,32.4052734375,0)" xlink:href="#aJ"/><use transform="matrix(0.0087890625,0,0,0.0087890625,43.20703125,0)" xlink:href="#ar"/><use transform="matrix(0.0087890625,0,0,0.0087890625,54.0087890625,0)" xlink:href="#aC"/><use transform="matrix(0.0087890625,0,0,0.0087890625,64.810546875,0)" xlink:href="#ax"/><use transform="matrix(0.0087890625,0,0,0.0087890625,75.6123046875,0)" xlink:href="#at"/></g><path fill="#fff" d="M137 0v-1349h968v228H432v324h612v228H432v341h714V0H137" id="bd"/><path fill="#fff" d="M874 0L612-392 348 0H49l406-559-387-523h303l241 354 240-354h305L770-562 1179 0H874" id="be"/><g id="W"><use transform="matrix(0.0087890625,0,0,0.0087890625,0,0)" xlink:href="#bd"/><use transform="matrix(0.0087890625,0,0,0.0087890625,10.8017578125,0)" xlink:href="#be"/><use transform="matrix(0.0087890625,0,0,0.0087890625,21.603515625,0)" xlink:href="#aI"/><use transform="matrix(0.0087890625,0,0,0.0087890625,32.4052734375,0)" xlink:href="#aJ"/></g><g id="X"><use transform="matrix(0.0087890625,0,0,0.0087890625,0,0)" xlink:href="#aT"/><use transform="matrix(0.0087890625,0,0,0.0087890625,10.8017578125,0)" xlink:href="#ar"/><use transform="matrix(0.0087890625,0,0,0.0087890625,21.603515625,0)" xlink:href="#ax"/><use transform="matrix(0.0087890625,0,0,0.0087890625,32.4052734375,0)" xlink:href="#aV"/><use transform="matrix(0.0087890625,0,0,0.0087890625,43.20703125,0)" xlink:href="#ar"/><use transform="matrix(0.0087890625,0,0,0.0087890625,54.0087890625,0)" xlink:href="#aL"/><use transform="matrix(0.0087890625,0,0,0.0087890625,64.810546875,0)" xlink:href="#ax"/><use transform="matrix(0.0087890625,0,0,0.0087890625,75.6123046875,0)" xlink:href="#at"/></g><g id="Y"><use transform="matrix(0.008173828125000001,0,0,0.008173828125000001,0,0)" xlink:href="#ar"/><use transform="matrix(0.008173828125000001,0,0,0.008173828125000001,10.045634765625001,0)" xlink:href="#aw"/><use transform="matrix(0.008173828125000001,0,0,0.008173828125000001,20.091269531250003,0)" xlink:href="#aw"/></g><g id="Z"><use transform="matrix(0.008173828125000001,0,0,0.008173828125000001,0,0)" xlink:href="#aN"/><use transform="matrix(0.008173828125000001,0,0,0.008173828125000001,10.045634765625001,0)" xlink:href="#aL"/><use transform="matrix(0.008173828125000001,0,0,0.008173828125000001,20.091269531250003,0)" xlink:href="#aH"/><use transform="matrix(0.008173828125000001,0,0,0.008173828125000001,30.136904296875002,0)" xlink:href="#aJ"/><use transform="matrix(0.008173828125000001,0,0,0.008173828125000001,40.182539062500005,0)" xlink:href="#ar"/><use transform="matrix(0.008173828125000001,0,0,0.008173828125000001,50.22817382812501,0)" xlink:href="#aC"/><use transform="matrix(0.008173828125000001,0,0,0.008173828125000001,60.27380859375001,0)" xlink:href="#ax"/><use transform="matrix(0.008173828125000001,0,0,0.008173828125000001,70.31944335937501,0)" xlink:href="#at"/></g><g id="aa"><use transform="matrix(0.008173828125000001,0,0,0.008173828125000001,0,0)" xlink:href="#aY"/><use transform="matrix(0.008173828125000001,0,0,0.008173828125000001,10.045634765625001,0)" xlink:href="#at"/><use transform="matrix(0.008173828125000001,0,0,0.008173828125000001,20.091269531250003,0)" xlink:href="#ax"/><use transform="matrix(0.008173828125000001,0,0,0.008173828125000001,30.136904296875002,0)" xlink:href="#aN"/><use transform="matrix(0.008173828125000001,0,0,0.008173828125000001,40.182539062500005,0)" xlink:href="#aC"/><use transform="matrix(0.008173828125000001,0,0,0.008173828125000001,50.22817382812501,0)" xlink:href="#aI"/><use transform="matrix(0.008173828125000001,0,0,0.008173828125000001,60.27380859375001,0)" xlink:href="#aJ"/><use transform="matrix(0.008173828125000001,0,0,0.008173828125000001,70.31944335937501,0)" xlink:href="#aA"/></g><g id="ab"><use transform="matrix(0.008173828125000001,0,0,0.008173828125000001,0,0)" xlink:href="#aJ"/><use transform="matrix(0.008173828125000001,0,0,0.008173828125000001,10.045634765625001,0)" xlink:href="#aN"/></g><g id="ac"><use transform="matrix(0.008173828125000001,0,0,0.008173828125000001,0,0)" xlink:href="#aQ"/><use transform="matrix(0.008173828125000001,0,0,0.008173828125000001,10.045634765625001,0)" xlink:href="#ax"/><use transform="matrix(0.008173828125000001,0,0,0.008173828125000001,20.091269531250003,0)" xlink:href="#ar"/><use transform="matrix(0.008173828125000001,0,0,0.008173828125000001,30.136904296875002,0)" xlink:href="#aA"/><use transform="matrix(0.008173828125000001,0,0,0.008173828125000001,40.182539062500005,0)" xlink:href="#at"/><use transform="matrix(0.008173828125000001,0,0,0.008173828125000001,50.22817382812501,0)" xlink:href="#ay"/></g><g id="ad"><use transform="matrix(0.008173828125000001,0,0,0.008173828125000001,0,0)" xlink:href="#aY"/><use transform="matrix(0.008173828125000001,0,0,0.008173828125000001,10.045634765625001,0)" xlink:href="#at"/><use transform="matrix(0.008173828125000001,0,0,0.008173828125000001,20.091269531250003,0)" xlink:href="#ax"/><use transform="matrix(0.008173828125000001,0,0,0.008173828125000001,30.136904296875002,0)" xlink:href="#aN"/><use transform="matrix(0.008173828125000001,0,0,0.008173828125000001,40.182539062500005,0)" xlink:href="#aC"/><use transform="matrix(0.008173828125000001,0,0,0.008173828125000001,50.22817382812501,0)" xlink:href="#aI"/><use transform="matrix(0.008173828125000001,0,0,0.008173828125000001,60.27380859375001,0)" xlink:href="#aJ"/><use transform="matrix(0.008173828125000001,0,0,0.008173828125000001,70.31944335937501,0)" xlink:href="#aA"/></g><g id="ae"><use transform="matrix(0.0087890625,0,0,0.0087890625,0,0)" xlink:href="#bd"/><use transform="matrix(0.0087890625,0,0,0.0087890625,10.8017578125,0)" xlink:href="#av"/><use transform="matrix(0.0087890625,0,0,0.0087890625,21.603515625,0)" xlink:href="#aJ"/><use transform="matrix(0.0087890625,0,0,0.0087890625,32.4052734375,0)" xlink:href="#at"/><use transform="matrix(0.0087890625,0,0,0.0087890625,43.20703125,0)" xlink:href="#ay"/></g><g id="af"><use transform="matrix(0.008173828125000001,0,0,0.008173828125000001,0,0)" xlink:href="#ay"/><use transform="matrix(0.008173828125000001,0,0,0.008173828125000001,10.045634765625001,0)" xlink:href="#at"/><use transform="matrix(0.008173828125000001,0,0,0.008173828125000001,20.091269531250003,0)" xlink:href="#as"/><use transform="matrix(0.008173828125000001,0,0,0.008173828125000001,30.136904296875002,0)" xlink:href="#aN"/><use transform="matrix(0.008173828125000001,0,0,0.008173828125000001,40.182539062500005,0)" xlink:href="#aY"/><use transform="matrix(0.008173828125000001,0,0,0.008173828125000001,50.22817382812501,0)" xlink:href="#at"/></g><g id="ag"><use transform="matrix(0.008173828125000001,0,0,0.008173828125000001,0,0)" xlink:href="#aY"/><use transform="matrix(0.008173828125000001,0,0,0.008173828125000001,10.045634765625001,0)" xlink:href="#at"/><use transform="matrix(0.008173828125000001,0,0,0.008173828125000001,20.091269531250003,0)" xlink:href="#ax"/><use transform="matrix(0.008173828125000001,0,0,0.008173828125000001,30.136904296875002,0)" xlink:href="#aN"/><use transform="matrix(0.008173828125000001,0,0,0.008173828125000001,40.182539062500005,0)" xlink:href="#aC"/><use transform="matrix(0.008173828125000001,0,0,0.008173828125000001,50.22817382812501,0)" xlink:href="#aI"/><use transform="matrix(0.008173828125000001,0,0,0.008173828125000001,60.27380859375001,0)" xlink:href="#aJ"/><use transform="matrix(0.008173828125000001,0,0,0.008173828125000001,70.31944335937501,0)" xlink:href="#aA"/></g><g id="ah"><use transform="matrix(0.008173828125000001,0,0,0.008173828125000001,0,0)" xlink:href="#aF"/><use transform="matrix(0.008173828125000001,0,0,0.008173828125000001,10.045634765625001,0)" xlink:href="#ay"/><use transform="matrix(0.008173828125000001,0,0,0.008173828125000001,20.091269531250003,0)" xlink:href="#aN"/><use transform="matrix(0.008173828125000001,0,0,0.008173828125000001,30.136904296875002,0)" xlink:href="#as"/></g><g id="ai"><use transform="matrix(0.0087890625,0,0,0.0087890625,0,0)" xlink:href="#aQ"/><use transform="matrix(0.0087890625,0,0,0.0087890625,10.8017578125,0)" xlink:href="#ax"/><use transform="matrix(0.0087890625,0,0,0.0087890625,21.603515625,0)" xlink:href="#ar"/><use transform="matrix(0.0087890625,0,0,0.0087890625,32.4052734375,0)" xlink:href="#aA"/><use transform="matrix(0.0087890625,0,0,0.0087890625,43.20703125,0)" xlink:href="#at"/><use transform="matrix(0.0087890625,0,0,0.0087890625,54.0087890625,0)" xlink:href="#ay"/></g><g id="aj"><use transform="matrix(0.0087890625,0,0,0.0087890625,0,0)" xlink:href="#aw"/><use transform="matrix(0.0087890625,0,0,0.0087890625,10.8017578125,0)" xlink:href="#at"/><use transform="matrix(0.0087890625,0,0,0.0087890625,21.603515625,0)" xlink:href="#ar"/><use transform="matrix(0.0087890625,0,0,0.0087890625,32.4052734375,0)" xlink:href="#aJ"/><use transform="matrix(0.0087890625,0,0,0.0087890625,43.20703125,0)" xlink:href="#aG"/></g><g id="ak"><use transform="matrix(0.0087890625,0,0,0.0087890625,0,0)" xlink:href="#aH"/><use transform="matrix(0.0087890625,0,0,0.0087890625,10.8017578125,0)" xlink:href="#aI"/><use transform="matrix(0.0087890625,0,0,0.0087890625,21.603515625,0)" xlink:href="#aS"/><use transform="matrix(0.0087890625,0,0,0.0087890625,32.4052734375,0)" xlink:href="#av"/><use transform="matrix(0.0087890625,0,0,0.0087890625,43.20703125,0)" xlink:href="#ar"/><use transform="matrix(0.0087890625,0,0,0.0087890625,54.0087890625,0)" xlink:href="#ax"/></g><g id="al"><use transform="matrix(0.0087890625,0,0,0.0087890625,0,0)" xlink:href="#aK"/><use transform="matrix(0.0087890625,0,0,0.0087890625,10.8017578125,0)" xlink:href="#aQ"/><use transform="matrix(0.0087890625,0,0,0.0087890625,21.603515625,0)" xlink:href="#at"/><use transform="matrix(0.0087890625,0,0,0.0087890625,32.4052734375,0)" xlink:href="#av"/></g><g id="am"><use transform="matrix(0.0087890625,0,0,0.0087890625,0,0)" xlink:href="#aH"/><use transform="matrix(0.0087890625,0,0,0.0087890625,10.8017578125,0)" xlink:href="#ar"/><use transform="matrix(0.0087890625,0,0,0.0087890625,21.603515625,0)" xlink:href="#aY"/><use transform="matrix(0.0087890625,0,0,0.0087890625,32.4052734375,0)" xlink:href="#at"/></g><g id="an"><use transform="matrix(0.0087890625,0,0,0.0087890625,0,0)" xlink:href="#aH"/><use transform="matrix(0.0087890625,0,0,0.0087890625,10.8017578125,0)" xlink:href="#aC"/><use transform="matrix(0.0087890625,0,0,0.0087890625,21.603515625,0)" xlink:href="#aN"/><use transform="matrix(0.0087890625,0,0,0.0087890625,32.4052734375,0)" xlink:href="#ay"/><use transform="matrix(0.0087890625,0,0,0.0087890625,43.20703125,0)" xlink:href="#at"/></g><g id="ao"><use transform="matrix(0.0087890625,0,0,0.0087890625,0,0)" xlink:href="#as"/><use transform="matrix(0.0087890625,0,0,0.0087890625,10.8017578125,0)" xlink:href="#aN"/><use transform="matrix(0.0087890625,0,0,0.0087890625,21.603515625,0)" xlink:href="#aw"/><use transform="matrix(0.0087890625,0,0,0.0087890625,32.4052734375,0)" xlink:href="#ar"/><use transform="matrix(0.0087890625,0,0,0.0087890625,43.20703125,0)" xlink:href="#ax"/></g><g id="ap"><use transform="matrix(0.0087890625,0,0,0.0087890625,0,0)" xlink:href="#aB"/><use transform="matrix(0.0087890625,0,0,0.0087890625,10.8017578125,0)" xlink:href="#aC"/><use transform="matrix(0.0087890625,0,0,0.0087890625,21.603515625,0)" xlink:href="#aN"/><use transform="matrix(0.0087890625,0,0,0.0087890625,32.4052734375,0)" xlink:href="#ay"/><use transform="matrix(0.0087890625,0,0,0.0087890625,43.20703125,0)" xlink:href="#at"/><use transform="matrix(0.0087890625,0,0,0.0087890625,54.0087890625,0)" xlink:href="#aH"/></g></defs></g></svg>