<?xml version="1.0" encoding="UTF-8" standalone="no"?>
<!DOCTYPE svg PUBLIC "-//W3C//DTD SVG 1.1//EN" "http://www.w3.org/Graphics/SVG/1.1/DTD/svg11.dtd">
<svg width="100%" height="100%" viewBox="0 0 2481 3508" version="1.1" xmlns="http://www.w3.org/2000/svg" xmlns:xlink="http://www.w3.org/1999/xlink" xml:space="preserve" xmlns:serif="http://www.serif.com/" style="fill-rule:evenodd;clip-rule:evenodd;stroke-linejoin:round;stroke-miterlimit:2;">
    <path d="M1185,289.782C887.25,289.782 470.887,161.422 291.255,369.235C166.656,513.382 330.92,1098.07 330.92,1726.47C330.92,2513.1 107.483,3095.56 291.255,3245.38C511.787,3425.16 860.148,3286.5 1144.65,3286.5C1442.4,3286.5 1857.21,3425.16 2077.74,3245.38C2261.51,3095.56 2066.08,2513.1 2066.08,1726.47C2066.08,1098.07 2202.34,513.382 2077.74,369.235C1898.11,161.422 1482.75,289.782 1185,289.782Z" style="fill:rgb(40,82,42);"/>
    <path d="M1185,257.782C1364.06,257.782 1585.56,211.583 1773,219.521C1907.29,225.208 2024.55,258.77 2101.95,348.309C2142.68,395.424 2160.92,485.034 2162.17,606.87C2164.84,867.876 2098.08,1286.46 2098.08,1726.47C2098.08,2277.39 2193.84,2728.22 2188.26,3000.55C2185.62,3129.25 2158.78,3220.59 2097.96,3270.18C2004.31,3346.52 1878.09,3370.3 1739.59,3369.52C1543.97,3368.42 1323.25,3318.5 1144.65,3318.5C1003.21,3318.5 845.915,3353.13 696.552,3365.25C537.659,3378.15 387.669,3365.26 271.036,3270.18C209.991,3220.41 185.52,3128.75 186.781,2999.59C189.437,2727.46 298.92,2276.98 298.92,1726.47C298.92,1286.86 218.435,868.651 212.882,607.88C210.278,485.573 226.163,395.606 267.046,348.309C344.437,258.776 461.861,225.208 596.35,219.521C784.075,211.583 1005.94,257.782 1185,257.782ZM1185,321.782C1006.76,321.782 785.922,275.562 599.054,283.464C483.809,288.337 381.782,313.44 315.464,390.162C299.905,408.162 290.659,434.778 284.648,468.168C277.745,506.513 275.729,553.061 276.867,606.517C282.427,867.605 362.92,1286.32 362.92,1726.47C362.92,2199.62 282.416,2599.09 257.7,2875.4C249.747,2964.32 247.546,3040.02 256.472,3100.74C264.32,3154.14 280.199,3195.08 311.475,3220.57C415.377,3305.28 549.826,3312.95 691.375,3301.46C842.452,3289.2 1001.59,3254.5 1144.65,3254.5C1323.35,3254.5 1544.21,3304.42 1739.95,3305.52C1862.38,3306.21 1974.74,3288.06 2057.52,3220.57C2089.03,3194.88 2106.13,3153.66 2115.58,3099.87C2126.24,3039.13 2126.43,2963.4 2121.08,2874.47C2104.46,2598.39 2034.08,2199.24 2034.08,1726.47C2034.08,1286.72 2100.85,868.38 2098.17,607.527C2097.13,505.69 2087.57,429.542 2053.53,390.162C1987.22,313.446 1885.35,288.336 1770.29,283.464C1583.71,275.562 1363.24,321.782 1185,321.782Z" style="fill:rgb(5,68,0);"/>
</svg>
